<svg width="12" height="12" viewBox="0 0 12 12" fill="none" xmlns="http://www.w3.org/2000/svg">
<path d="M2.5764 2.5882C3.45207 1.7095 4.66216 1.16663 5.99999 1.16663C8.66937 1.16663 10.8333 3.33058 10.8333 5.99996C10.8333 8.66934 8.66937 10.8333 5.99999 10.8333C3.33061 10.8333 1.16666 8.66934 1.16666 5.99996C1.16666 5.72382 0.942799 5.49996 0.666656 5.49996C0.390514 5.49996 0.166656 5.72382 0.166656 5.99996C0.166656 9.22162 2.77833 11.8333 5.99999 11.8333C9.22165 11.8333 11.8333 9.22162 11.8333 5.99996C11.8333 2.7783 9.22165 0.166626 5.99999 0.166626C4.38566 0.166626 2.92371 0.82304 1.86808 1.88231C1.85111 1.89933 1.83563 1.91727 1.82162 1.93597L0.983241 1.09759C0.891785 1.00613 0.755678 0.975838 0.634064 1.01987C0.51245 1.0639 0.427285 1.17431 0.415575 1.30311L0.179872 3.89584C0.170916 3.99436 0.206183 4.09177 0.276135 4.16172C0.346086 4.23167 0.443495 4.26694 0.542015 4.25798L3.13474 4.02228C3.26355 4.01057 3.37396 3.9254 3.41799 3.80379C3.46202 3.68218 3.43172 3.54607 3.34026 3.45461L2.52152 2.63587C2.54067 2.62153 2.55902 2.60564 2.5764 2.5882Z" fill="white"/>
<path d="M6.49999 2.66663C6.49999 2.39048 6.27613 2.16663 5.99999 2.16663C5.72385 2.16663 5.49999 2.39048 5.49999 2.66663V5.99996C5.49999 6.17235 5.5888 6.33259 5.73499 6.42396L7.73499 7.67396C7.96916 7.82031 8.27763 7.74913 8.42399 7.51496C8.57034 7.28079 8.49916 6.97232 8.26499 6.82596L6.49999 5.72284V2.66663Z" fill="white"/>
</svg>
