<svg width="80" height="22" viewBox="0 0 80 22" fill="none" xmlns="http://www.w3.org/2000/svg">
<g style="mix-blend-mode:multiply">
<rect width="80" height="22" rx="11" fill="#ECFDF3"/>
<path d="M16.6839 9.1108H15.3544C15.3033 8.8267 15.2081 8.5767 15.0689 8.3608C14.9297 8.14489 14.7592 7.96165 14.5575 7.81108C14.3558 7.66051 14.13 7.54687 13.88 7.47017C13.6328 7.39347 13.37 7.35511 13.0916 7.35511C12.5888 7.35511 12.1385 7.48153 11.7408 7.73438C11.3459 7.98722 11.0334 8.35795 10.8033 8.84659C10.576 9.33523 10.4624 9.93182 10.4624 10.6364C10.4624 11.3466 10.576 11.946 10.8033 12.4347C11.0334 12.9233 11.3473 13.2926 11.745 13.5426C12.1428 13.7926 12.5902 13.9176 13.0874 13.9176C13.3629 13.9176 13.6243 13.8807 13.8714 13.8068C14.1214 13.7301 14.3473 13.6179 14.549 13.4702C14.7507 13.3224 14.9212 13.142 15.0604 12.929C15.2024 12.7131 15.3004 12.4659 15.3544 12.1875L16.6839 12.1918C16.6129 12.6207 16.4751 13.0156 16.2706 13.3764C16.0689 13.7344 15.8089 14.044 15.4908 14.3054C15.1754 14.5639 14.8146 14.7642 14.4084 14.9062C14.0021 15.0483 13.5589 15.1193 13.0788 15.1193C12.3232 15.1193 11.6499 14.9403 11.0589 14.5824C10.468 14.2216 10.0021 13.706 9.66122 13.0355C9.32315 12.3651 9.15412 11.5653 9.15412 10.6364C9.15412 9.70455 9.32457 8.90483 9.66548 8.23722C10.0064 7.56676 10.4723 7.05256 11.0632 6.6946C11.6541 6.33381 12.326 6.15341 13.0788 6.15341C13.5419 6.15341 13.9737 6.22017 14.3743 6.35369C14.7777 6.48437 15.1399 6.67756 15.4609 6.93324C15.782 7.18608 16.0476 7.49574 16.2578 7.86222C16.468 8.22585 16.6101 8.64205 16.6839 9.1108ZM20.9144 15.1321C20.3008 15.1321 19.7653 14.9915 19.3079 14.7102C18.8505 14.429 18.4954 14.0355 18.2425 13.5298C17.9897 13.0241 17.8633 12.4332 17.8633 11.7571C17.8633 11.0781 17.9897 10.4844 18.2425 9.97585C18.4954 9.46733 18.8505 9.07244 19.3079 8.79119C19.7653 8.50994 20.3008 8.36932 20.9144 8.36932C21.5281 8.36932 22.0636 8.50994 22.521 8.79119C22.9783 9.07244 23.3335 9.46733 23.5863 9.97585C23.8391 10.4844 23.9656 11.0781 23.9656 11.7571C23.9656 12.4332 23.8391 13.0241 23.5863 13.5298C23.3335 14.0355 22.9783 14.429 22.521 14.7102C22.0636 14.9915 21.5281 15.1321 20.9144 15.1321ZM20.9187 14.0625C21.3164 14.0625 21.646 13.9574 21.9073 13.7472C22.1687 13.5369 22.3619 13.2571 22.4869 12.9077C22.6147 12.5582 22.6786 12.1733 22.6786 11.7528C22.6786 11.3352 22.6147 10.9517 22.4869 10.6023C22.3619 10.25 22.1687 9.96733 21.9073 9.75426C21.646 9.54119 21.3164 9.43466 20.9187 9.43466C20.5181 9.43466 20.1857 9.54119 19.9215 9.75426C19.6602 9.96733 19.4656 10.25 19.3377 10.6023C19.2127 10.9517 19.1502 11.3352 19.1502 11.7528C19.1502 12.1733 19.2127 12.5582 19.3377 12.9077C19.4656 13.2571 19.6602 13.5369 19.9215 13.7472C20.1857 13.9574 20.5181 14.0625 20.9187 14.0625ZM25.3878 15V8.45455H26.6108V9.51989H26.6918C26.8281 9.15909 27.0511 8.87784 27.3608 8.67614C27.6705 8.47159 28.0412 8.36932 28.473 8.36932C28.9105 8.36932 29.277 8.47159 29.5724 8.67614C29.8707 8.88068 30.0909 9.16193 30.233 9.51989H30.3011C30.4574 9.17045 30.706 8.89205 31.0469 8.68466C31.3878 8.47443 31.794 8.36932 32.2656 8.36932C32.8594 8.36932 33.3438 8.5554 33.7188 8.92756C34.0966 9.29972 34.2855 9.8608 34.2855 10.6108V15H33.0114V10.7301C33.0114 10.2869 32.8906 9.96591 32.6491 9.76705C32.4077 9.56818 32.1193 9.46875 31.7841 9.46875C31.3693 9.46875 31.0469 9.59659 30.8168 9.85227C30.5866 10.1051 30.4716 10.4304 30.4716 10.8281V15H29.2017V10.6491C29.2017 10.294 29.0909 10.0085 28.8693 9.79261C28.6477 9.5767 28.3594 9.46875 28.0043 9.46875C27.7628 9.46875 27.5398 9.53267 27.3352 9.66051C27.1335 9.78551 26.9702 9.96023 26.8452 10.1847C26.723 10.4091 26.6619 10.669 26.6619 10.9645V15H25.3878ZM35.9933 17.4545V8.45455H37.2376V9.51562H37.3441C37.418 9.37926 37.5245 9.22159 37.6637 9.04261C37.8029 8.86364 37.9961 8.70739 38.2433 8.57386C38.4904 8.4375 38.8171 8.36932 39.2234 8.36932C39.7518 8.36932 40.2234 8.50284 40.6381 8.76989C41.0529 9.03693 41.3782 9.42187 41.614 9.92472C41.8526 10.4276 41.9719 11.0327 41.9719 11.7401C41.9719 12.4474 41.854 13.054 41.6183 13.5597C41.3825 14.0625 41.0586 14.4503 40.6467 14.723C40.2347 14.9929 39.7646 15.1278 39.2362 15.1278C38.8384 15.1278 38.5131 15.0611 38.2603 14.9276C38.0103 14.794 37.8143 14.6378 37.6722 14.4588C37.5302 14.2798 37.4208 14.1207 37.3441 13.9815H37.2674V17.4545H35.9933ZM37.2418 11.7273C37.2418 12.1875 37.3086 12.5909 37.4421 12.9375C37.5756 13.2841 37.7688 13.5554 38.0217 13.7514C38.2745 13.9446 38.5842 14.0412 38.9506 14.0412C39.3313 14.0412 39.6495 13.9403 39.9052 13.7386C40.1609 13.5341 40.354 13.2571 40.4847 12.9077C40.6183 12.5582 40.685 12.1648 40.685 11.7273C40.685 11.2955 40.6197 10.9077 40.489 10.5639C40.3612 10.2202 40.168 9.94886 39.9094 9.75C39.6538 9.55114 39.3342 9.4517 38.9506 9.4517C38.5813 9.4517 38.2688 9.54687 38.0131 9.73722C37.7603 9.92756 37.5685 10.1932 37.4379 10.5341C37.3072 10.875 37.2418 11.2727 37.2418 11.7273ZM44.6737 6.27273V15H43.3995V6.27273H44.6737ZM49.2088 15.1321C48.5639 15.1321 48.0085 14.9943 47.5426 14.7188C47.0795 14.4403 46.7216 14.0497 46.4688 13.5469C46.2188 13.0412 46.0938 12.4489 46.0938 11.7699C46.0938 11.0994 46.2188 10.5085 46.4688 9.99716C46.7216 9.4858 47.0739 9.08665 47.5256 8.79972C47.9801 8.51278 48.5114 8.36932 49.1193 8.36932C49.4886 8.36932 49.8466 8.4304 50.1932 8.55256C50.5398 8.67472 50.8509 8.86648 51.1264 9.12784C51.402 9.3892 51.6193 9.72869 51.7784 10.1463C51.9375 10.5611 52.017 11.0653 52.017 11.6591V12.1108H46.8139V11.1562H50.7685C50.7685 10.821 50.7003 10.5241 50.5639 10.2656C50.4276 10.0043 50.2358 9.7983 49.9886 9.64773C49.7443 9.49716 49.4574 9.42188 49.1278 9.42188C48.7699 9.42188 48.4574 9.50994 48.1903 9.68608C47.9261 9.85937 47.7216 10.0866 47.5767 10.3679C47.4347 10.6463 47.3636 10.9489 47.3636 11.2756V12.0213C47.3636 12.4588 47.4403 12.831 47.5938 13.1378C47.75 13.4446 47.9673 13.679 48.2457 13.8409C48.5241 14 48.8494 14.0795 49.2216 14.0795C49.4631 14.0795 49.6832 14.0455 49.8821 13.9773C50.081 13.9062 50.2528 13.8011 50.3977 13.6619C50.5426 13.5227 50.6534 13.3509 50.7301 13.1463L51.9361 13.3636C51.8395 13.7187 51.6662 14.0298 51.4162 14.2969C51.169 14.5611 50.858 14.767 50.483 14.9148C50.1108 15.0597 49.6861 15.1321 49.2088 15.1321ZM56.4862 8.45455V9.47727H52.9109V8.45455H56.4862ZM53.8697 6.88636H55.1438V13.0781C55.1438 13.3253 55.1808 13.5114 55.2546 13.6364C55.3285 13.7585 55.4237 13.8423 55.5401 13.8878C55.6594 13.9304 55.7887 13.9517 55.9279 13.9517C56.0302 13.9517 56.1197 13.9446 56.1964 13.9304C56.2731 13.9162 56.3327 13.9048 56.3754 13.8963L56.6055 14.9489C56.5316 14.9773 56.4265 15.0057 56.2901 15.0341C56.1538 15.0653 55.9833 15.0824 55.7788 15.0852C55.4435 15.0909 55.131 15.0312 54.8413 14.9062C54.5515 14.7812 54.3171 14.5881 54.1381 14.3267C53.9592 14.0653 53.8697 13.7372 53.8697 13.3423V6.88636ZM60.6463 15.1321C60.0014 15.1321 59.446 14.9943 58.9801 14.7188C58.517 14.4403 58.1591 14.0497 57.9062 13.5469C57.6562 13.0412 57.5312 12.4489 57.5312 11.7699C57.5312 11.0994 57.6562 10.5085 57.9062 9.99716C58.1591 9.4858 58.5114 9.08665 58.9631 8.79972C59.4176 8.51278 59.9489 8.36932 60.5568 8.36932C60.9261 8.36932 61.2841 8.4304 61.6307 8.55256C61.9773 8.67472 62.2884 8.86648 62.5639 9.12784C62.8395 9.3892 63.0568 9.72869 63.2159 10.1463C63.375 10.5611 63.4545 11.0653 63.4545 11.6591V12.1108H58.2514V11.1562H62.206C62.206 10.821 62.1378 10.5241 62.0014 10.2656C61.8651 10.0043 61.6733 9.7983 61.4261 9.64773C61.1818 9.49716 60.8949 9.42188 60.5653 9.42188C60.2074 9.42188 59.8949 9.50994 59.6278 9.68608C59.3636 9.85937 59.1591 10.0866 59.0142 10.3679C58.8722 10.6463 58.8011 10.9489 58.8011 11.2756V12.0213C58.8011 12.4588 58.8778 12.831 59.0312 13.1378C59.1875 13.4446 59.4048 13.679 59.6832 13.8409C59.9616 14 60.2869 14.0795 60.6591 14.0795C60.9006 14.0795 61.1207 14.0455 61.3196 13.9773C61.5185 13.9062 61.6903 13.8011 61.8352 13.6619C61.9801 13.5227 62.0909 13.3509 62.1676 13.1463L63.3736 13.3636C63.277 13.7187 63.1037 14.0298 62.8537 14.2969C62.6065 14.5611 62.2955 14.767 61.9205 14.9148C61.5483 15.0597 61.1236 15.1321 60.6463 15.1321ZM67.3185 15.1278C66.7901 15.1278 66.3185 14.9929 65.9038 14.723C65.4918 14.4503 65.168 14.0625 64.9322 13.5597C64.6992 13.054 64.5827 12.4474 64.5827 11.7401C64.5827 11.0327 64.7006 10.4276 64.9364 9.92472C65.1751 9.42187 65.5018 9.03693 65.9165 8.76989C66.3313 8.50284 66.8015 8.36932 67.3271 8.36932C67.7333 8.36932 68.06 8.4375 68.3072 8.57386C68.5572 8.70739 68.7504 8.86364 68.8867 9.04261C69.0259 9.22159 69.1339 9.37926 69.2106 9.51562H69.2873V6.27273H70.5614V15H69.3171V13.9815H69.2106C69.1339 14.1207 69.0231 14.2798 68.8782 14.4588C68.7362 14.6378 68.5401 14.794 68.2901 14.9276C68.0401 15.0611 67.7163 15.1278 67.3185 15.1278ZM67.5998 14.0412C67.9663 14.0412 68.2759 13.9446 68.5288 13.7514C68.7844 13.5554 68.9776 13.2841 69.1083 12.9375C69.2418 12.5909 69.3086 12.1875 69.3086 11.7273C69.3086 11.2727 69.2433 10.875 69.1126 10.5341C68.9819 10.1932 68.7901 9.92756 68.5373 9.73722C68.2844 9.54687 67.9719 9.4517 67.5998 9.4517C67.2163 9.4517 66.8967 9.55114 66.641 9.75C66.3853 9.94886 66.1921 10.2202 66.0614 10.5639C65.9336 10.9077 65.8697 11.2955 65.8697 11.7273C65.8697 12.1648 65.935 12.5582 66.0657 12.9077C66.1964 13.2571 66.3896 13.5341 66.6452 13.7386C66.9038 13.9403 67.2219 14.0412 67.5998 14.0412Z" fill="#027A48"/>
</g>
</svg>
