<svg width="21" height="20" viewBox="0 0 21 20" fill="none" xmlns="http://www.w3.org/2000/svg">
<path d="M10.5 2.5C6.36437 2.5 3 5.86437 3 10C3 14.1356 6.36437 17.5 10.5 17.5C14.6356 17.5 18 14.1356 18 10C18 5.86437 14.6356 2.5 10.5 2.5ZM10.5 16.875C6.70937 16.875 3.625 13.7906 3.625 10C3.625 6.20937 6.70937 3.125 10.5 3.125C14.2906 3.125 17.375 6.20937 17.375 10C17.375 13.7906 14.2906 16.875 10.5 16.875Z" fill="#172B4D"/>
<path d="M10.5 6.875C11.3344 6.875 12.1194 7.2 12.7094 7.79063C12.8312 7.9125 13.0294 7.9125 13.1513 7.79063C13.2731 7.66875 13.2731 7.47063 13.1513 7.34875C12.4431 6.64 11.5019 6.25 10.5 6.25C9.49813 6.25 8.55688 6.64 7.84875 7.34875C7.14 8.05688 6.75 8.99813 6.75 10C6.75 11.0019 7.14 11.9431 7.84875 12.6513C8.55688 13.36 9.49813 13.75 10.5 13.75C11.5019 13.75 12.4431 13.36 13.1513 12.6513C13.2731 12.5294 13.2731 12.3312 13.1513 12.2094C13.0294 12.0875 12.8312 12.0875 12.7094 12.2094C12.1194 12.8 11.3344 13.125 10.5 13.125C9.66563 13.125 8.88063 12.8 8.29063 12.2094C7.70063 11.6194 7.375 10.8344 7.375 10C7.375 9.16563 7.70063 8.38063 8.29063 7.79063C8.88063 7.2 9.66563 6.875 10.5 6.875Z" fill="#172B4D"/>
</svg>
