<svg width="71" height="12" viewBox="0 0 71 12" fill="none" xmlns="http://www.w3.org/2000/svg">
<path d="M0 5C0 2.23858 2.23858 0 5 0H66C68.7614 0 71 2.23858 71 5V7C71 9.76142 68.7614 12 66 12H34.7366H5C2.23857 12 0 9.76142 0 7V5Z" fill="#DFF3FF"/>
<path d="M9.83317 1.83337H6.49984C6.27882 1.83337 6.06686 1.92117 5.91058 2.07745C5.7543 2.23373 5.6665 2.44569 5.6665 2.66671V9.33337C5.6665 9.55439 5.7543 9.76635 5.91058 9.92263C6.06686 10.0789 6.27882 10.1667 6.49984 10.1667H11.4998C11.7209 10.1667 11.9328 10.0789 12.0891 9.92263C12.2454 9.76635 12.3332 9.55439 12.3332 9.33337V4.33337M9.83317 1.83337L12.3332 4.33337M9.83317 1.83337V4.33337H12.3332M10.6665 6.41671H7.33317M10.6665 8.08337H7.33317M8.1665 4.75004H7.33317" stroke="#3AB5FF" stroke-linecap="round" stroke-linejoin="round"/>
<path d="M22.0398 5H21.5114C21.4801 4.84801 21.4254 4.71449 21.3473 4.59943C21.2706 4.48438 21.1768 4.38778 21.0661 4.30966C20.9567 4.23011 20.8352 4.17045 20.7017 4.13068C20.5682 4.09091 20.429 4.07102 20.2841 4.07102C20.0199 4.07102 19.7805 4.13778 19.5661 4.27131C19.353 4.40483 19.1832 4.60156 19.0568 4.86151C18.9318 5.12145 18.8693 5.44034 18.8693 5.81818C18.8693 6.19602 18.9318 6.51491 19.0568 6.77486C19.1832 7.0348 19.353 7.23153 19.5661 7.36506C19.7805 7.49858 20.0199 7.56534 20.2841 7.56534C20.429 7.56534 20.5682 7.54545 20.7017 7.50568C20.8352 7.46591 20.9567 7.40696 21.0661 7.32884C21.1768 7.24929 21.2706 7.15199 21.3473 7.03693C21.4254 6.92045 21.4801 6.78693 21.5114 6.63636H22.0398C22 6.85937 21.9276 7.05895 21.8224 7.23509C21.7173 7.41122 21.5866 7.56108 21.4304 7.68466C21.2741 7.80682 21.0987 7.89986 20.9041 7.96378C20.7109 8.0277 20.5043 8.05966 20.2841 8.05966C19.9119 8.05966 19.581 7.96875 19.2912 7.78693C19.0014 7.60511 18.7734 7.34659 18.6072 7.01136C18.4411 6.67614 18.358 6.27841 18.358 5.81818C18.358 5.35795 18.4411 4.96023 18.6072 4.625C18.7734 4.28977 19.0014 4.03125 19.2912 3.84943C19.581 3.66761 19.9119 3.5767 20.2841 3.5767C20.5043 3.5767 20.7109 3.60866 20.9041 3.67259C21.0987 3.73651 21.2741 3.83026 21.4304 3.95384C21.5866 4.07599 21.7173 4.22514 21.8224 4.40128C21.9276 4.57599 22 4.77557 22.0398 5ZM22.8255 8V4.72727H23.3113V5.22159H23.3453C23.405 5.05966 23.513 4.92827 23.6692 4.82741C23.8255 4.72656 24.0016 4.67614 24.1976 4.67614C24.2346 4.67614 24.2807 4.67685 24.3361 4.67827C24.3915 4.67969 24.4334 4.68182 24.4618 4.68466V5.19602C24.4448 5.19176 24.4057 5.18537 24.3446 5.17685C24.285 5.1669 24.2218 5.16193 24.155 5.16193C23.9959 5.16193 23.8539 5.19531 23.7289 5.26207C23.6053 5.32741 23.5073 5.41832 23.4348 5.5348C23.3638 5.64986 23.3283 5.78125 23.3283 5.92898V8H22.8255ZM26.3304 8.06818C26.0151 8.06818 25.7431 7.99858 25.5144 7.85938C25.2871 7.71875 25.1117 7.52273 24.9881 7.27131C24.8659 7.01847 24.8049 6.72443 24.8049 6.3892C24.8049 6.05398 24.8659 5.75852 24.9881 5.50284C25.1117 5.24574 25.2836 5.04545 25.5037 4.90199C25.7253 4.7571 25.9838 4.68466 26.2793 4.68466C26.4498 4.68466 26.6181 4.71307 26.7843 4.76989C26.9505 4.8267 27.1017 4.91903 27.2381 5.04688C27.3745 5.1733 27.4831 5.34091 27.5641 5.54972C27.6451 5.75852 27.6855 6.01562 27.6855 6.32102V6.53409H25.1628V6.09943H27.1742C27.1742 5.91477 27.1373 5.75 27.0634 5.60511C26.9909 5.46023 26.8873 5.34588 26.7523 5.26207C26.6188 5.17827 26.4611 5.13636 26.2793 5.13636C26.079 5.13636 25.9057 5.18608 25.7594 5.28551C25.6145 5.38352 25.503 5.51136 25.4249 5.66903C25.3468 5.8267 25.3077 5.99574 25.3077 6.17614V6.46591C25.3077 6.71307 25.3503 6.92259 25.4355 7.09446C25.5222 7.26491 25.6422 7.39489 25.7956 7.48438C25.949 7.57244 26.1273 7.61648 26.3304 7.61648C26.4625 7.61648 26.5819 7.59801 26.6884 7.56108C26.7963 7.52273 26.8894 7.46591 26.9675 7.39062C27.0456 7.31392 27.106 7.21875 27.1486 7.10511L27.6344 7.24148C27.5833 7.40625 27.4973 7.55114 27.3766 7.67614C27.2559 7.79972 27.1067 7.89631 26.9292 7.96591C26.7516 8.03409 26.552 8.06818 26.3304 8.06818ZM29.4135 8.0767C29.2061 8.0767 29.0179 8.03764 28.8489 7.95952C28.6799 7.87997 28.5456 7.76562 28.4462 7.61648C28.3468 7.46591 28.2971 7.28409 28.2971 7.07102C28.2971 6.88352 28.334 6.73153 28.4078 6.61506C28.4817 6.49716 28.5804 6.40483 28.704 6.33807C28.8276 6.27131 28.964 6.22159 29.1131 6.18892C29.2637 6.15483 29.415 6.12784 29.5669 6.10795C29.7658 6.08239 29.927 6.06321 30.0506 6.05043C30.1756 6.03622 30.2665 6.01278 30.3233 5.98011C30.3816 5.94744 30.4107 5.89062 30.4107 5.80966V5.79261C30.4107 5.58239 30.3532 5.41903 30.2381 5.30256C30.1245 5.18608 29.9519 5.12784 29.7203 5.12784C29.4803 5.12784 29.2921 5.1804 29.1557 5.28551C29.0194 5.39062 28.9235 5.50284 28.8681 5.62216L28.3908 5.4517C28.476 5.25284 28.5897 5.09801 28.7317 4.98722C28.8752 4.875 29.0314 4.79687 29.2005 4.75284C29.3709 4.70739 29.5385 4.68466 29.7033 4.68466C29.8084 4.68466 29.9292 4.69744 30.0655 4.72301C30.2033 4.74716 30.3361 4.79759 30.464 4.87429C30.5932 4.95099 30.7005 5.06676 30.7857 5.22159C30.8709 5.37642 30.9135 5.58381 30.9135 5.84375V8H30.4107V7.55682H30.3851C30.351 7.62784 30.2942 7.70384 30.2147 7.7848C30.1351 7.86577 30.0293 7.93466 29.8972 7.99148C29.7651 8.0483 29.6039 8.0767 29.4135 8.0767ZM29.4902 7.625C29.6891 7.625 29.8567 7.58594 29.9931 7.50781C30.1309 7.42969 30.2346 7.32884 30.3042 7.20526C30.3752 7.08168 30.4107 6.9517 30.4107 6.81534V6.35511C30.3894 6.38068 30.3425 6.40412 30.2701 6.42543C30.199 6.44531 30.1167 6.46307 30.0229 6.47869C29.9306 6.4929 29.8404 6.50568 29.7523 6.51705C29.6657 6.52699 29.5953 6.53551 29.5414 6.54261C29.4107 6.55966 29.2885 6.58736 29.1749 6.62571C29.0627 6.66264 28.9718 6.71875 28.9022 6.79403C28.834 6.8679 28.7999 6.96875 28.7999 7.09659C28.7999 7.27131 28.8645 7.40341 28.9938 7.4929C29.1245 7.58097 29.29 7.625 29.4902 7.625ZM33.2546 4.72727V5.15341H31.5586V4.72727H33.2546ZM32.0529 3.94318H32.5558V7.0625C32.5558 7.20455 32.5763 7.31108 32.6175 7.3821C32.6602 7.4517 32.7141 7.49858 32.7795 7.52273C32.8462 7.54545 32.9165 7.55682 32.9904 7.55682C33.0458 7.55682 33.0913 7.55398 33.1268 7.5483C33.1623 7.54119 33.1907 7.53551 33.212 7.53125L33.3143 7.98295C33.2802 7.99574 33.2326 8.00852 33.1715 8.02131C33.1104 8.03551 33.033 8.04261 32.9393 8.04261C32.7972 8.04261 32.658 8.01207 32.5217 7.95099C32.3867 7.88991 32.2745 7.79688 32.185 7.67188C32.0969 7.54688 32.0529 7.3892 32.0529 7.19886V3.94318ZM34.011 8V4.72727H34.5138V8H34.011ZM34.2667 4.18182C34.1687 4.18182 34.0842 4.14844 34.0131 4.08168C33.9435 4.01491 33.9087 3.93466 33.9087 3.84091C33.9087 3.74716 33.9435 3.6669 34.0131 3.60014C34.0842 3.53338 34.1687 3.5 34.2667 3.5C34.3647 3.5 34.4485 3.53338 34.5181 3.60014C34.5891 3.6669 34.6246 3.74716 34.6246 3.84091C34.6246 3.93466 34.5891 4.01491 34.5181 4.08168C34.4485 4.14844 34.3647 4.18182 34.2667 4.18182ZM35.9377 6.03125V8H35.4348V4.72727H35.9206V5.23864H35.9632C36.04 5.07244 36.1564 4.93892 36.3127 4.83807C36.4689 4.7358 36.6706 4.68466 36.9178 4.68466C37.1394 4.68466 37.3333 4.73011 37.4995 4.82102C37.6657 4.91051 37.7949 5.04688 37.8873 5.23011C37.9796 5.41193 38.0257 5.64205 38.0257 5.92045V8H37.5229V5.95455C37.5229 5.69744 37.4561 5.49716 37.3226 5.35369C37.1891 5.20881 37.0059 5.13636 36.7729 5.13636C36.6124 5.13636 36.4689 5.17116 36.3425 5.24077C36.2175 5.31037 36.1188 5.41193 36.0463 5.54545C35.9739 5.67898 35.9377 5.84091 35.9377 6.03125ZM40.2656 9.29545C40.0227 9.29545 39.8139 9.2642 39.6392 9.2017C39.4645 9.14062 39.3189 9.05966 39.2024 8.95881C39.0874 8.85938 38.9957 8.75284 38.9276 8.6392L39.3281 8.35795C39.3736 8.41761 39.4311 8.4858 39.5007 8.5625C39.5703 8.64062 39.6655 8.7081 39.7862 8.76491C39.9084 8.82315 40.0682 8.85227 40.2656 8.85227C40.5298 8.85227 40.7479 8.78835 40.9197 8.66051C41.0916 8.53267 41.1776 8.33239 41.1776 8.05966V7.39489H41.1349C41.098 7.45455 41.0455 7.52841 40.9773 7.61648C40.9105 7.70312 40.8139 7.78054 40.6875 7.84872C40.5625 7.91548 40.3935 7.94886 40.1804 7.94886C39.9162 7.94886 39.679 7.88636 39.4688 7.76136C39.2599 7.63636 39.0945 7.45455 38.9723 7.21591C38.8516 6.97727 38.7912 6.6875 38.7912 6.34659C38.7912 6.01136 38.8501 5.71946 38.968 5.47088C39.0859 5.22088 39.25 5.0277 39.4602 4.89134C39.6705 4.75355 39.9134 4.68466 40.1889 4.68466C40.402 4.68466 40.571 4.72017 40.696 4.79119C40.8224 4.8608 40.919 4.94034 40.9858 5.02983C41.054 5.1179 41.1065 5.19034 41.1435 5.24716H41.1946V4.72727H41.6804V8.09375C41.6804 8.375 41.6165 8.60369 41.4886 8.77983C41.3622 8.95739 41.1918 9.08736 40.9773 9.16974C40.7642 9.25355 40.527 9.29545 40.2656 9.29545ZM40.2486 7.49716C40.4503 7.49716 40.6207 7.45099 40.7599 7.35866C40.8991 7.26634 41.005 7.13352 41.0774 6.96023C41.1499 6.78693 41.1861 6.57955 41.1861 6.33807C41.1861 6.10227 41.1506 5.89418 41.0795 5.71378C41.0085 5.53338 40.9034 5.39205 40.7642 5.28977C40.625 5.1875 40.4531 5.13636 40.2486 5.13636C40.0355 5.13636 39.858 5.19034 39.7159 5.2983C39.5753 5.40625 39.4695 5.55114 39.3984 5.73295C39.3288 5.91477 39.294 6.11648 39.294 6.33807C39.294 6.56534 39.3295 6.76634 39.4006 6.94105C39.473 7.11435 39.5795 7.25071 39.7202 7.35014C39.8622 7.44815 40.0384 7.49716 40.2486 7.49716ZM44.2884 8V4.72727H44.7741V5.22159H44.8082C44.8679 5.05966 44.9759 4.92827 45.1321 4.82741C45.2884 4.72656 45.4645 4.67614 45.6605 4.67614C45.6974 4.67614 45.7436 4.67685 45.799 4.67827C45.8544 4.67969 45.8963 4.68182 45.9247 4.68466V5.19602C45.9077 5.19176 45.8686 5.18537 45.8075 5.17685C45.7479 5.1669 45.6847 5.16193 45.6179 5.16193C45.4588 5.16193 45.3168 5.19531 45.1918 5.26207C45.0682 5.32741 44.9702 5.41832 44.8977 5.5348C44.8267 5.64986 44.7912 5.78125 44.7912 5.92898V8H44.2884ZM47.7933 8.06818C47.478 8.06818 47.206 7.99858 46.9773 7.85938C46.75 7.71875 46.5746 7.52273 46.451 7.27131C46.3288 7.01847 46.2678 6.72443 46.2678 6.3892C46.2678 6.05398 46.3288 5.75852 46.451 5.50284C46.5746 5.24574 46.7464 5.04545 46.9666 4.90199C47.1882 4.7571 47.4467 4.68466 47.7422 4.68466C47.9126 4.68466 48.081 4.71307 48.2472 4.76989C48.4134 4.8267 48.5646 4.91903 48.701 5.04688C48.8374 5.1733 48.946 5.34091 49.027 5.54972C49.108 5.75852 49.1484 6.01562 49.1484 6.32102V6.53409H46.6257V6.09943H48.6371C48.6371 5.91477 48.6001 5.75 48.5263 5.60511C48.4538 5.46023 48.3501 5.34588 48.2152 5.26207C48.0817 5.17827 47.924 5.13636 47.7422 5.13636C47.5419 5.13636 47.3686 5.18608 47.2223 5.28551C47.0774 5.38352 46.9659 5.51136 46.8878 5.66903C46.8097 5.8267 46.7706 5.99574 46.7706 6.17614V6.46591C46.7706 6.71307 46.8132 6.92259 46.8984 7.09446C46.9851 7.26491 47.1051 7.39489 47.2585 7.48438C47.4119 7.57244 47.5902 7.61648 47.7933 7.61648C47.9254 7.61648 48.0447 7.59801 48.1513 7.56108C48.2592 7.52273 48.3523 7.46591 48.4304 7.39062C48.5085 7.31392 48.5689 7.21875 48.6115 7.10511L49.0973 7.24148C49.0462 7.40625 48.9602 7.55114 48.8395 7.67614C48.7188 7.79972 48.5696 7.89631 48.392 7.96591C48.2145 8.03409 48.0149 8.06818 47.7933 8.06818ZM49.9134 9.22727V4.72727H50.3991V5.24716H50.4588C50.4957 5.19034 50.5469 5.1179 50.6122 5.02983C50.679 4.94034 50.7741 4.8608 50.8977 4.79119C51.0227 4.72017 51.1918 4.68466 51.4048 4.68466C51.6804 4.68466 51.9233 4.75355 52.1335 4.89134C52.3438 5.02912 52.5078 5.22443 52.6257 5.47727C52.7436 5.73011 52.8026 6.02841 52.8026 6.37216C52.8026 6.71875 52.7436 7.01918 52.6257 7.27344C52.5078 7.52628 52.3445 7.7223 52.1357 7.86151C51.9268 7.99929 51.6861 8.06818 51.4134 8.06818C51.2031 8.06818 51.0348 8.03338 50.9084 7.96378C50.782 7.89276 50.6847 7.8125 50.6165 7.72301C50.5483 7.6321 50.4957 7.55682 50.4588 7.49716H50.4162V9.22727H49.9134ZM50.4077 6.36364C50.4077 6.6108 50.4439 6.82884 50.5163 7.01776C50.5888 7.20526 50.6946 7.35227 50.8338 7.45881C50.973 7.56392 51.1435 7.61648 51.3452 7.61648C51.5554 7.61648 51.7308 7.56108 51.8714 7.45028C52.0135 7.33807 52.12 7.1875 52.1911 6.99858C52.2635 6.80824 52.2997 6.59659 52.2997 6.36364C52.2997 6.13352 52.2642 5.92614 52.1932 5.74148C52.1236 5.5554 52.0178 5.40838 51.8757 5.30043C51.7351 5.19105 51.5582 5.13636 51.3452 5.13636C51.1406 5.13636 50.9688 5.18821 50.8295 5.2919C50.6903 5.39418 50.5852 5.53764 50.5142 5.7223C50.4432 5.90554 50.4077 6.11932 50.4077 6.36364ZM54.8991 8.06818C54.6037 8.06818 54.3445 7.99787 54.1214 7.85724C53.8999 7.71662 53.7266 7.51989 53.6016 7.26705C53.478 7.0142 53.4162 6.71875 53.4162 6.38068C53.4162 6.03977 53.478 5.74219 53.6016 5.48793C53.7266 5.23366 53.8999 5.03622 54.1214 4.8956C54.3445 4.75497 54.6037 4.68466 54.8991 4.68466C55.1946 4.68466 55.4531 4.75497 55.6747 4.8956C55.8977 5.03622 56.071 5.23366 56.1946 5.48793C56.3196 5.74219 56.3821 6.03977 56.3821 6.38068C56.3821 6.71875 56.3196 7.0142 56.1946 7.26705C56.071 7.51989 55.8977 7.71662 55.6747 7.85724C55.4531 7.99787 55.1946 8.06818 54.8991 8.06818ZM54.8991 7.61648C55.1236 7.61648 55.3082 7.55895 55.4531 7.44389C55.598 7.32884 55.7053 7.17756 55.7749 6.99006C55.8445 6.80256 55.8793 6.59943 55.8793 6.38068C55.8793 6.16193 55.8445 5.9581 55.7749 5.76918C55.7053 5.58026 55.598 5.42756 55.4531 5.31108C55.3082 5.1946 55.1236 5.13636 54.8991 5.13636C54.6747 5.13636 54.4901 5.1946 54.3452 5.31108C54.2003 5.42756 54.093 5.58026 54.0234 5.76918C53.9538 5.9581 53.919 6.16193 53.919 6.38068C53.919 6.59943 53.9538 6.80256 54.0234 6.99006C54.093 7.17756 54.2003 7.32884 54.3452 7.44389C54.4901 7.55895 54.6747 7.61648 54.8991 7.61648ZM57.1497 8V4.72727H57.6355V5.22159H57.6696C57.7292 5.05966 57.8372 4.92827 57.9934 4.82741C58.1497 4.72656 58.3258 4.67614 58.5218 4.67614C58.5588 4.67614 58.6049 4.67685 58.6603 4.67827C58.7157 4.67969 58.7576 4.68182 58.786 4.68466V5.19602C58.769 5.19176 58.7299 5.18537 58.6689 5.17685C58.6092 5.1669 58.546 5.16193 58.4792 5.16193C58.3201 5.16193 58.1781 5.19531 58.0531 5.26207C57.9295 5.32741 57.8315 5.41832 57.7591 5.5348C57.688 5.64986 57.6525 5.78125 57.6525 5.92898V8H57.1497ZM61.0105 4.72727V5.15341H59.3145V4.72727H61.0105ZM59.8088 3.94318H60.3116V7.0625C60.3116 7.20455 60.3322 7.31108 60.3734 7.3821C60.416 7.4517 60.47 7.49858 60.5353 7.52273C60.6021 7.54545 60.6724 7.55682 60.7463 7.55682C60.8017 7.55682 60.8471 7.55398 60.8826 7.5483C60.9181 7.54119 60.9466 7.53551 60.9679 7.53125L61.0701 7.98295C61.036 7.99574 60.9885 8.00852 60.9274 8.02131C60.8663 8.03551 60.7889 8.04261 60.6951 8.04261C60.5531 8.04261 60.4139 8.01207 60.2775 7.95099C60.1426 7.88991 60.0304 7.79688 59.9409 7.67188C59.8528 7.54688 59.8088 7.3892 59.8088 7.19886V3.94318Z" fill="#3AB5FF"/>
</svg>
