<svg width="20" height="20" viewBox="0 0 20 20" fill="none" xmlns="http://www.w3.org/2000/svg">
<g clip-path="url(#clip0_1641_15735)">
<path d="M6.66649 14.1666L9.99982 17.4999M9.99982 17.4999L13.3332 14.1666M9.99982 17.4999V9.99994M17.3998 15.0749C18.1243 14.5655 18.6676 13.8384 18.9509 12.9992C19.2342 12.1601 19.2427 11.2525 18.9752 10.4081C18.7076 9.56381 18.178 8.82669 17.4632 8.30375C16.7484 7.78081 15.8855 7.49925 14.9998 7.49994H13.9498C13.6992 6.52317 13.2302 5.61598 12.5783 4.84668C11.9263 4.07737 11.1083 3.46599 10.1858 3.05857C9.26338 2.65115 8.26053 2.4583 7.25276 2.49454C6.245 2.53078 5.25858 2.79517 4.36778 3.2678C3.47698 3.74043 2.70501 4.40898 2.10998 5.22314C1.51495 6.03729 1.11237 6.97582 0.93254 7.96807C0.752714 8.96032 0.800331 9.98044 1.07181 10.9516C1.34328 11.9228 1.83154 12.8198 2.49982 13.5749" stroke="#344054" stroke-width="2" stroke-linecap="round" stroke-linejoin="round"/>
</g>
<defs>
<clipPath id="clip0_1641_15735">
<rect width="20" height="20" fill="white"/>
</clipPath>
</defs>
</svg>
