<svg width="36" height="36" viewBox="0 0 36 36" fill="none" xmlns="http://www.w3.org/2000/svg">
<rect x="2" y="2" width="32" height="32" rx="16" fill="#F4EBFF"/>
<rect x="2" y="2" width="32" height="32" rx="16" stroke="#F9F5FF" stroke-width="4"/>
<path d="M18 23.3332H24M21 12.3332C21.2652 12.0679 21.6249 11.9189 22 11.9189C22.1857 11.9189 22.3696 11.9555 22.5412 12.0266C22.7128 12.0977 22.8687 12.2018 23 12.3332C23.1313 12.4645 23.2355 12.6204 23.3066 12.792C23.3776 12.9635 23.4142 13.1474 23.4142 13.3332C23.4142 13.5189 23.3776 13.7028 23.3066 13.8744C23.2355 14.0459 23.1313 14.2018 23 14.3332L14.6667 22.6665L12 23.3332L12.6667 20.6665L21 12.3332Z" stroke="#0C66E4" stroke-width="1.5" stroke-linecap="round" stroke-linejoin="round"/>
</svg>
