<svg width="88" height="12" viewBox="0 0 88 12" fill="none" xmlns="http://www.w3.org/2000/svg">
<path d="M0 5C0 2.23858 2.23858 0 5 0H83C85.7614 0 88 2.23858 88 5V7C88 9.76142 85.7614 12 83 12H43.0538H5C2.23858 12 0 9.76142 0 7V5Z" fill="#E6F7EB"/>
<path d="M11 9L14 6L11 3M7 3L4 6L7 9" stroke="#0F8856" stroke-linecap="round" stroke-linejoin="round"/>
<path d="M21.5114 5C21.4645 4.85653 21.4027 4.72798 21.326 4.61435C21.2507 4.49929 21.1605 4.40128 21.0554 4.32031C20.9517 4.23935 20.8338 4.17756 20.7017 4.13494C20.5696 4.09233 20.4247 4.07102 20.267 4.07102C20.0085 4.07102 19.7734 4.13778 19.5618 4.27131C19.3501 4.40483 19.1818 4.60156 19.0568 4.86151C18.9318 5.12145 18.8693 5.44034 18.8693 5.81818C18.8693 6.19602 18.9325 6.51491 19.0589 6.77486C19.1854 7.0348 19.3565 7.23153 19.5724 7.36506C19.7884 7.49858 20.0313 7.56534 20.3011 7.56534C20.5511 7.56534 20.7713 7.51207 20.9616 7.40554C21.1534 7.29759 21.3026 7.1456 21.4091 6.94957C21.517 6.75213 21.571 6.51989 21.571 6.25284L21.733 6.28693H20.4205V5.81818H22.0824V6.28693C22.0824 6.64631 22.0057 6.95881 21.8523 7.22443C21.7003 7.49006 21.4901 7.69602 21.2216 7.84233C20.9545 7.98722 20.6477 8.05966 20.3011 8.05966C19.9148 8.05966 19.5753 7.96875 19.2827 7.78693C18.9915 7.60511 18.7642 7.34659 18.6009 7.01136C18.4389 6.67614 18.358 6.27841 18.358 5.81818C18.358 5.47301 18.4041 5.16264 18.4964 4.88707C18.5902 4.61009 18.7223 4.37429 18.8928 4.17969C19.0632 3.98509 19.2649 3.83594 19.4979 3.73224C19.7308 3.62855 19.9872 3.5767 20.267 3.5767C20.4972 3.5767 20.7116 3.61151 20.9105 3.68111C21.1108 3.74929 21.2891 3.84659 21.4453 3.97301C21.603 4.09801 21.7344 4.24787 21.8395 4.42259C21.9446 4.59588 22.017 4.78835 22.0568 5H21.5114ZM24.2914 8.06818C23.976 8.06818 23.704 7.99858 23.4753 7.85938C23.248 7.71875 23.0726 7.52273 22.949 7.27131C22.8269 7.01847 22.7658 6.72443 22.7658 6.3892C22.7658 6.05398 22.8269 5.75852 22.949 5.50284C23.0726 5.24574 23.2445 5.04545 23.4647 4.90199C23.6863 4.7571 23.9448 4.68466 24.2402 4.68466C24.4107 4.68466 24.579 4.71307 24.7452 4.76989C24.9114 4.8267 25.0627 4.91903 25.199 5.04688C25.3354 5.1733 25.4441 5.34091 25.525 5.54972C25.606 5.75852 25.6465 6.01562 25.6465 6.32102V6.53409H23.1238V6.09943H25.1351C25.1351 5.91477 25.0982 5.75 25.0243 5.60511C24.9519 5.46023 24.8482 5.34588 24.7132 5.26207C24.5797 5.17827 24.4221 5.13636 24.2402 5.13636C24.04 5.13636 23.8667 5.18608 23.7203 5.28551C23.5755 5.38352 23.464 5.51136 23.3858 5.66903C23.3077 5.8267 23.2686 5.99574 23.2686 6.17614V6.46591C23.2686 6.71307 23.3113 6.92259 23.3965 7.09446C23.4831 7.26491 23.6032 7.39489 23.7566 7.48438C23.91 7.57244 24.0882 7.61648 24.2914 7.61648C24.4235 7.61648 24.5428 7.59801 24.6493 7.56108C24.7573 7.52273 24.8503 7.46591 24.9284 7.39062C25.0066 7.31392 25.0669 7.21875 25.1096 7.10511L25.5953 7.24148C25.5442 7.40625 25.4583 7.55114 25.3375 7.67614C25.2168 7.79972 25.0676 7.89631 24.8901 7.96591C24.7125 8.03409 24.513 8.06818 24.2914 8.06818ZM26.9142 6.03125V8H26.4114V4.72727H26.8972V5.23864H26.9398C27.0165 5.07244 27.133 4.93892 27.2892 4.83807C27.4455 4.7358 27.6472 4.68466 27.8944 4.68466C28.1159 4.68466 28.3098 4.73011 28.476 4.82102C28.6422 4.91051 28.7715 5.04688 28.8638 5.23011C28.9561 5.41193 29.0023 5.64205 29.0023 5.92045V8H28.4995V5.95455C28.4995 5.69744 28.4327 5.49716 28.2992 5.35369C28.1657 5.20881 27.9824 5.13636 27.7495 5.13636C27.589 5.13636 27.4455 5.17116 27.3191 5.24077C27.1941 5.31037 27.0953 5.41193 27.0229 5.54545C26.9505 5.67898 26.9142 5.84091 26.9142 6.03125ZM31.2933 8.06818C30.978 8.06818 30.706 7.99858 30.4773 7.85938C30.25 7.71875 30.0746 7.52273 29.951 7.27131C29.8288 7.01847 29.7678 6.72443 29.7678 6.3892C29.7678 6.05398 29.8288 5.75852 29.951 5.50284C30.0746 5.24574 30.2464 5.04545 30.4666 4.90199C30.6882 4.7571 30.9467 4.68466 31.2422 4.68466C31.4126 4.68466 31.581 4.71307 31.7472 4.76989C31.9134 4.8267 32.0646 4.91903 32.201 5.04688C32.3374 5.1733 32.446 5.34091 32.527 5.54972C32.608 5.75852 32.6484 6.01562 32.6484 6.32102V6.53409H30.1257V6.09943H32.1371C32.1371 5.91477 32.1001 5.75 32.0263 5.60511C31.9538 5.46023 31.8501 5.34588 31.7152 5.26207C31.5817 5.17827 31.424 5.13636 31.2422 5.13636C31.0419 5.13636 30.8686 5.18608 30.7223 5.28551C30.5774 5.38352 30.4659 5.51136 30.3878 5.66903C30.3097 5.8267 30.2706 5.99574 30.2706 6.17614V6.46591C30.2706 6.71307 30.3132 6.92259 30.3984 7.09446C30.4851 7.26491 30.6051 7.39489 30.7585 7.48438C30.9119 7.57244 31.0902 7.61648 31.2933 7.61648C31.4254 7.61648 31.5447 7.59801 31.6513 7.56108C31.7592 7.52273 31.8523 7.46591 31.9304 7.39062C32.0085 7.31392 32.0689 7.21875 32.1115 7.10511L32.5973 7.24148C32.5462 7.40625 32.4602 7.55114 32.3395 7.67614C32.2188 7.79972 32.0696 7.89631 31.892 7.96591C31.7145 8.03409 31.5149 8.06818 31.2933 8.06818ZM33.4134 8V4.72727H33.8991V5.22159H33.9332C33.9929 5.05966 34.1009 4.92827 34.2571 4.82741C34.4134 4.72656 34.5895 4.67614 34.7855 4.67614C34.8224 4.67614 34.8686 4.67685 34.924 4.67827C34.9794 4.67969 35.0213 4.68182 35.0497 4.68466V5.19602C35.0327 5.19176 34.9936 5.18537 34.9325 5.17685C34.8729 5.1669 34.8097 5.16193 34.7429 5.16193C34.5838 5.16193 34.4418 5.19531 34.3168 5.26207C34.1932 5.32741 34.0952 5.41832 34.0227 5.5348C33.9517 5.64986 33.9162 5.78125 33.9162 5.92898V8H33.4134ZM36.6088 8.0767C36.4015 8.0767 36.2132 8.03764 36.0442 7.95952C35.8752 7.87997 35.7409 7.76562 35.6415 7.61648C35.5421 7.46591 35.4924 7.28409 35.4924 7.07102C35.4924 6.88352 35.5293 6.73153 35.6032 6.61506C35.677 6.49716 35.7757 6.40483 35.8993 6.33807C36.0229 6.27131 36.1593 6.22159 36.3084 6.18892C36.459 6.15483 36.6103 6.12784 36.7623 6.10795C36.9611 6.08239 37.1223 6.06321 37.2459 6.05043C37.3709 6.03622 37.4618 6.01278 37.5186 5.98011C37.5769 5.94744 37.606 5.89062 37.606 5.80966V5.79261C37.606 5.58239 37.5485 5.41903 37.4334 5.30256C37.3198 5.18608 37.1472 5.12784 36.9157 5.12784C36.6756 5.12784 36.4874 5.1804 36.351 5.28551C36.2147 5.39062 36.1188 5.50284 36.0634 5.62216L35.5861 5.4517C35.6713 5.25284 35.785 5.09801 35.927 4.98722C36.0705 4.875 36.2267 4.79687 36.3958 4.75284C36.5662 4.70739 36.7338 4.68466 36.8986 4.68466C37.0037 4.68466 37.1245 4.69744 37.2608 4.72301C37.3986 4.74716 37.5314 4.79759 37.6593 4.87429C37.7885 4.95099 37.8958 5.06676 37.981 5.22159C38.0662 5.37642 38.1088 5.58381 38.1088 5.84375V8H37.606V7.55682H37.5804C37.5463 7.62784 37.4895 7.70384 37.41 7.7848C37.3304 7.86577 37.2246 7.93466 37.0925 7.99148C36.9604 8.0483 36.7992 8.0767 36.6088 8.0767ZM36.6855 7.625C36.8844 7.625 37.052 7.58594 37.1884 7.50781C37.3262 7.42969 37.4299 7.32884 37.4995 7.20526C37.5705 7.08168 37.606 6.9517 37.606 6.81534V6.35511C37.5847 6.38068 37.5378 6.40412 37.4654 6.42543C37.3944 6.44531 37.312 6.46307 37.2182 6.47869C37.1259 6.4929 37.0357 6.50568 36.9476 6.51705C36.861 6.52699 36.7907 6.53551 36.7367 6.54261C36.606 6.55966 36.4838 6.58736 36.3702 6.62571C36.258 6.66264 36.1671 6.71875 36.0975 6.79403C36.0293 6.8679 35.9952 6.96875 35.9952 7.09659C35.9952 7.27131 36.0598 7.40341 36.1891 7.4929C36.3198 7.58097 36.4853 7.625 36.6855 7.625ZM40.4499 4.72727V5.15341H38.7539V4.72727H40.4499ZM39.2482 3.94318H39.7511V7.0625C39.7511 7.20455 39.7717 7.31108 39.8129 7.3821C39.8555 7.4517 39.9094 7.49858 39.9748 7.52273C40.0415 7.54545 40.1119 7.55682 40.1857 7.55682C40.2411 7.55682 40.2866 7.55398 40.3221 7.5483C40.3576 7.54119 40.386 7.53551 40.4073 7.53125L40.5096 7.98295C40.4755 7.99574 40.4279 8.00852 40.3668 8.02131C40.3058 8.03551 40.2283 8.04261 40.1346 8.04261C39.9925 8.04261 39.8533 8.01207 39.717 7.95099C39.582 7.88991 39.4698 7.79688 39.3803 7.67188C39.2923 7.54688 39.2482 7.3892 39.2482 7.19886V3.94318ZM41.2063 8V4.72727H41.7092V8H41.2063ZM41.462 4.18182C41.364 4.18182 41.2795 4.14844 41.2085 4.08168C41.1388 4.01491 41.104 3.93466 41.104 3.84091C41.104 3.74716 41.1388 3.6669 41.2085 3.60014C41.2795 3.53338 41.364 3.5 41.462 3.5C41.56 3.5 41.6438 3.53338 41.7134 3.60014C41.7844 3.6669 41.82 3.74716 41.82 3.84091C41.82 3.93466 41.7844 4.01491 41.7134 4.08168C41.6438 4.14844 41.56 4.18182 41.462 4.18182ZM43.133 6.03125V8H42.6301V4.72727H43.1159V5.23864H43.1586C43.2353 5.07244 43.3517 4.93892 43.508 4.83807C43.6642 4.7358 43.8659 4.68466 44.1131 4.68466C44.3347 4.68466 44.5286 4.73011 44.6948 4.82102C44.861 4.91051 44.9902 5.04688 45.0826 5.23011C45.1749 5.41193 45.2211 5.64205 45.2211 5.92045V8H44.7182V5.95455C44.7182 5.69744 44.6515 5.49716 44.5179 5.35369C44.3844 5.20881 44.2012 5.13636 43.9682 5.13636C43.8077 5.13636 43.6642 5.17116 43.5378 5.24077C43.4128 5.31037 43.3141 5.41193 43.2417 5.54545C43.1692 5.67898 43.133 5.84091 43.133 6.03125ZM47.4609 9.29545C47.218 9.29545 47.0092 9.2642 46.8345 9.2017C46.6598 9.14062 46.5142 9.05966 46.3977 8.95881C46.2827 8.85938 46.1911 8.75284 46.1229 8.6392L46.5234 8.35795C46.5689 8.41761 46.6264 8.4858 46.696 8.5625C46.7656 8.64062 46.8608 8.7081 46.9815 8.76491C47.1037 8.82315 47.2635 8.85227 47.4609 8.85227C47.7251 8.85227 47.9432 8.78835 48.1151 8.66051C48.2869 8.53267 48.3729 8.33239 48.3729 8.05966V7.39489H48.3303C48.2933 7.45455 48.2408 7.52841 48.1726 7.61648C48.1058 7.70312 48.0092 7.78054 47.8828 7.84872C47.7578 7.91548 47.5888 7.94886 47.3757 7.94886C47.1115 7.94886 46.8743 7.88636 46.6641 7.76136C46.4553 7.63636 46.2898 7.45455 46.1676 7.21591C46.0469 6.97727 45.9865 6.6875 45.9865 6.34659C45.9865 6.01136 46.0455 5.71946 46.1634 5.47088C46.2813 5.22088 46.4453 5.0277 46.6555 4.89134C46.8658 4.75355 47.1087 4.68466 47.3842 4.68466C47.5973 4.68466 47.7663 4.72017 47.8913 4.79119C48.0178 4.8608 48.1143 4.94034 48.1811 5.02983C48.2493 5.1179 48.3018 5.19034 48.3388 5.24716H48.3899V4.72727H48.8757V8.09375C48.8757 8.375 48.8118 8.60369 48.6839 8.77983C48.5575 8.95739 48.3871 9.08736 48.1726 9.16974C47.9595 9.25355 47.7223 9.29545 47.4609 9.29545ZM47.4439 7.49716C47.6456 7.49716 47.8161 7.45099 47.9553 7.35866C48.0945 7.26634 48.2003 7.13352 48.2727 6.96023C48.3452 6.78693 48.3814 6.57955 48.3814 6.33807C48.3814 6.10227 48.3459 5.89418 48.2749 5.71378C48.2038 5.53338 48.0987 5.39205 47.9595 5.28977C47.8203 5.1875 47.6484 5.13636 47.4439 5.13636C47.2308 5.13636 47.0533 5.19034 46.9112 5.2983C46.7706 5.40625 46.6648 5.55114 46.5938 5.73295C46.5241 5.91477 46.4893 6.11648 46.4893 6.33807C46.4893 6.56534 46.5249 6.76634 46.5959 6.94105C46.6683 7.11435 46.7749 7.25071 46.9155 7.35014C47.0575 7.44815 47.2337 7.49716 47.4439 7.49716ZM52.8132 8.06818C52.5064 8.06818 52.2422 7.99574 52.0206 7.85085C51.799 7.70597 51.6286 7.50639 51.5092 7.25213C51.3899 6.99787 51.3303 6.70739 51.3303 6.38068C51.3303 6.0483 51.3913 5.75497 51.5135 5.50071C51.6371 5.24503 51.8089 5.04545 52.0291 4.90199C52.2507 4.7571 52.5092 4.68466 52.8047 4.68466C53.0348 4.68466 53.2422 4.72727 53.4268 4.8125C53.6115 4.89773 53.7628 5.01705 53.8807 5.17045C53.9986 5.32386 54.0717 5.50284 54.1001 5.70739H53.5973C53.5589 5.55824 53.4737 5.42614 53.3416 5.31108C53.2109 5.1946 53.0348 5.13636 52.8132 5.13636C52.6172 5.13636 52.4453 5.1875 52.2976 5.28977C52.1513 5.39062 52.0369 5.53338 51.9545 5.71804C51.8736 5.90128 51.8331 6.11648 51.8331 6.36364C51.8331 6.61648 51.8729 6.83665 51.9524 7.02415C52.0334 7.21165 52.147 7.35724 52.2933 7.46094C52.4411 7.56463 52.6143 7.61648 52.8132 7.61648C52.9439 7.61648 53.0625 7.59375 53.169 7.5483C53.2756 7.50284 53.3658 7.4375 53.4396 7.35227C53.5135 7.26705 53.5661 7.16477 53.5973 7.04545H54.1001C54.0717 7.23864 54.0014 7.41264 53.8892 7.56747C53.7784 7.72088 53.6314 7.84304 53.4482 7.93395C53.2663 8.02344 53.0547 8.06818 52.8132 8.06818ZM56.1648 8.06818C55.8693 8.06818 55.6101 7.99787 55.3871 7.85724C55.1655 7.71662 54.9922 7.51989 54.8672 7.26705C54.7436 7.0142 54.6818 6.71875 54.6818 6.38068C54.6818 6.03977 54.7436 5.74219 54.8672 5.48793C54.9922 5.23366 55.1655 5.03622 55.3871 4.8956C55.6101 4.75497 55.8693 4.68466 56.1648 4.68466C56.4602 4.68466 56.7188 4.75497 56.9403 4.8956C57.1634 5.03622 57.3366 5.23366 57.4602 5.48793C57.5852 5.74219 57.6477 6.03977 57.6477 6.38068C57.6477 6.71875 57.5852 7.0142 57.4602 7.26705C57.3366 7.51989 57.1634 7.71662 56.9403 7.85724C56.7188 7.99787 56.4602 8.06818 56.1648 8.06818ZM56.1648 7.61648C56.3892 7.61648 56.5739 7.55895 56.7188 7.44389C56.8636 7.32884 56.9709 7.17756 57.0405 6.99006C57.1101 6.80256 57.1449 6.59943 57.1449 6.38068C57.1449 6.16193 57.1101 5.9581 57.0405 5.76918C56.9709 5.58026 56.8636 5.42756 56.7188 5.31108C56.5739 5.1946 56.3892 5.13636 56.1648 5.13636C55.9403 5.13636 55.7557 5.1946 55.6108 5.31108C55.4659 5.42756 55.3587 5.58026 55.2891 5.76918C55.2195 5.9581 55.1847 6.16193 55.1847 6.38068C55.1847 6.59943 55.2195 6.80256 55.2891 6.99006C55.3587 7.17756 55.4659 7.32884 55.6108 7.44389C55.7557 7.55895 55.9403 7.61648 56.1648 7.61648ZM59.6511 8.06818C59.3784 8.06818 59.1376 7.99929 58.9288 7.86151C58.72 7.7223 58.5566 7.52628 58.4387 7.27344C58.3208 7.01918 58.2619 6.71875 58.2619 6.37216C58.2619 6.02841 58.3208 5.73011 58.4387 5.47727C58.5566 5.22443 58.7207 5.02912 58.9309 4.89134C59.1412 4.75355 59.3841 4.68466 59.6596 4.68466C59.8727 4.68466 60.041 4.72017 60.1646 4.79119C60.2896 4.8608 60.3848 4.94034 60.4501 5.02983C60.5169 5.1179 60.5687 5.19034 60.6056 5.24716H60.6483V3.63636H61.1511V8H60.6653V7.49716H60.6056C60.5687 7.55682 60.5162 7.6321 60.448 7.72301C60.3798 7.8125 60.2825 7.89276 60.1561 7.96378C60.0297 8.03338 59.8613 8.06818 59.6511 8.06818ZM59.7193 7.61648C59.921 7.61648 60.0914 7.56392 60.2306 7.45881C60.3699 7.35227 60.4757 7.20526 60.5481 7.01776C60.6206 6.82884 60.6568 6.6108 60.6568 6.36364C60.6568 6.11932 60.6213 5.90554 60.5502 5.7223C60.4792 5.53764 60.3741 5.39418 60.2349 5.2919C60.0957 5.18821 59.9238 5.13636 59.7193 5.13636C59.5062 5.13636 59.3287 5.19105 59.1866 5.30043C59.046 5.40838 58.9402 5.5554 58.8691 5.74148C58.7995 5.92614 58.7647 6.13352 58.7647 6.36364C58.7647 6.59659 58.8002 6.80824 58.8713 6.99858C58.9437 7.1875 59.0502 7.33807 59.1909 7.45028C59.3329 7.56108 59.5091 7.61648 59.7193 7.61648ZM63.514 8.06818C63.1987 8.06818 62.9267 7.99858 62.698 7.85938C62.4707 7.71875 62.2953 7.52273 62.1717 7.27131C62.0495 7.01847 61.9885 6.72443 61.9885 6.3892C61.9885 6.05398 62.0495 5.75852 62.1717 5.50284C62.2953 5.24574 62.4672 5.04545 62.6873 4.90199C62.9089 4.7571 63.1674 4.68466 63.4629 4.68466C63.6333 4.68466 63.8017 4.71307 63.9679 4.76989C64.1341 4.8267 64.2853 4.91903 64.4217 5.04688C64.5581 5.1733 64.6667 5.34091 64.7477 5.54972C64.8287 5.75852 64.8691 6.01562 64.8691 6.32102V6.53409H62.3464V6.09943H64.3578C64.3578 5.91477 64.3208 5.75 64.247 5.60511C64.1745 5.46023 64.0708 5.34588 63.9359 5.26207C63.8024 5.17827 63.6447 5.13636 63.4629 5.13636C63.2626 5.13636 63.0893 5.18608 62.943 5.28551C62.7981 5.38352 62.6866 5.51136 62.6085 5.66903C62.5304 5.8267 62.4913 5.99574 62.4913 6.17614V6.46591C62.4913 6.71307 62.5339 6.92259 62.6191 7.09446C62.7058 7.26491 62.8258 7.39489 62.9792 7.48438C63.1326 7.57244 63.3109 7.61648 63.514 7.61648C63.6461 7.61648 63.7654 7.59801 63.872 7.56108C63.9799 7.52273 64.073 7.46591 64.1511 7.39062C64.2292 7.31392 64.2896 7.21875 64.3322 7.10511L64.818 7.24148C64.7669 7.40625 64.6809 7.55114 64.5602 7.67614C64.4395 7.79972 64.2903 7.89631 64.1127 7.96591C63.9352 8.03409 63.7356 8.06818 63.514 8.06818ZM66.0005 8.03409C65.8954 8.03409 65.8052 7.99645 65.7299 7.92116C65.6547 7.84588 65.617 7.75568 65.617 7.65057C65.617 7.54545 65.6547 7.45526 65.7299 7.37997C65.8052 7.30469 65.8954 7.26705 66.0005 7.26705C66.1056 7.26705 66.1958 7.30469 66.2711 7.37997C66.3464 7.45526 66.3841 7.54545 66.3841 7.65057C66.3841 7.72017 66.3663 7.78409 66.3308 7.84233C66.2967 7.90057 66.2505 7.94744 66.1923 7.98295C66.1355 8.01705 66.0716 8.03409 66.0005 8.03409ZM66.0005 5.60511C65.8954 5.60511 65.8052 5.56747 65.7299 5.49219C65.6547 5.4169 65.617 5.3267 65.617 5.22159C65.617 5.11648 65.6547 5.02628 65.7299 4.95099C65.8052 4.87571 65.8954 4.83807 66.0005 4.83807C66.1056 4.83807 66.1958 4.87571 66.2711 4.95099C66.3464 5.02628 66.3841 5.11648 66.3841 5.22159C66.3841 5.29119 66.3663 5.35511 66.3308 5.41335C66.2967 5.47159 66.2505 5.51847 66.1923 5.55398C66.1355 5.58807 66.0716 5.60511 66.0005 5.60511ZM70.2097 8.06818C69.937 8.06818 69.6962 7.99929 69.4874 7.86151C69.2786 7.7223 69.1152 7.52628 68.9973 7.27344C68.8794 7.01918 68.8205 6.71875 68.8205 6.37216C68.8205 6.02841 68.8794 5.73011 68.9973 5.47727C69.1152 5.22443 69.2793 5.02912 69.4895 4.89134C69.6998 4.75355 69.9426 4.68466 70.2182 4.68466C70.4313 4.68466 70.5996 4.72017 70.7232 4.79119C70.8482 4.8608 70.9434 4.94034 71.0087 5.02983C71.0755 5.1179 71.1273 5.19034 71.1642 5.24716H71.2069V3.63636H71.7097V8H71.2239V7.49716H71.1642C71.1273 7.55682 71.0748 7.6321 71.0066 7.72301C70.9384 7.8125 70.8411 7.89276 70.7147 7.96378C70.5882 8.03338 70.4199 8.06818 70.2097 8.06818ZM70.2779 7.61648C70.4796 7.61648 70.65 7.56392 70.7892 7.45881C70.9284 7.35227 71.0343 7.20526 71.1067 7.01776C71.1792 6.82884 71.2154 6.6108 71.2154 6.36364C71.2154 6.11932 71.1799 5.90554 71.1088 5.7223C71.0378 5.53764 70.9327 5.39418 70.7935 5.2919C70.6543 5.18821 70.4824 5.13636 70.2779 5.13636C70.0648 5.13636 69.8873 5.19105 69.7452 5.30043C69.6046 5.40838 69.4988 5.5554 69.4277 5.74148C69.3581 5.92614 69.3233 6.13352 69.3233 6.36364C69.3233 6.59659 69.3588 6.80824 69.4299 6.99858C69.5023 7.1875 69.6088 7.33807 69.7495 7.45028C69.8915 7.56108 70.0676 7.61648 70.2779 7.61648ZM74.03 8.06818C73.7346 8.06818 73.4753 7.99787 73.2523 7.85724C73.0307 7.71662 72.8574 7.51989 72.7324 7.26705C72.6088 7.0142 72.5471 6.71875 72.5471 6.38068C72.5471 6.03977 72.6088 5.74219 72.7324 5.48793C72.8574 5.23366 73.0307 5.03622 73.2523 4.8956C73.4753 4.75497 73.7346 4.68466 74.03 4.68466C74.3255 4.68466 74.584 4.75497 74.8056 4.8956C75.0286 5.03622 75.2019 5.23366 75.3255 5.48793C75.4505 5.74219 75.513 6.03977 75.513 6.38068C75.513 6.71875 75.4505 7.0142 75.3255 7.26705C75.2019 7.51989 75.0286 7.71662 74.8056 7.85724C74.584 7.99787 74.3255 8.06818 74.03 8.06818ZM74.03 7.61648C74.2544 7.61648 74.4391 7.55895 74.584 7.44389C74.7289 7.32884 74.8361 7.17756 74.9057 6.99006C74.9753 6.80256 75.0101 6.59943 75.0101 6.38068C75.0101 6.16193 74.9753 5.9581 74.9057 5.76918C74.8361 5.58026 74.7289 5.42756 74.584 5.31108C74.4391 5.1946 74.2544 5.13636 74.03 5.13636C73.8056 5.13636 73.6209 5.1946 73.476 5.31108C73.3311 5.42756 73.2239 5.58026 73.1543 5.76918C73.0847 5.9581 73.0499 6.16193 73.0499 6.38068C73.0499 6.59943 73.0847 6.80256 73.1543 6.99006C73.2239 7.17756 73.3311 7.32884 73.476 7.44389C73.6209 7.55895 73.8056 7.61648 74.03 7.61648ZM76.7834 6.03125V8H76.2805V4.72727H76.7663V5.23864H76.8089C76.8857 5.07244 77.0021 4.93892 77.1584 4.83807C77.3146 4.7358 77.5163 4.68466 77.7635 4.68466C77.9851 4.68466 78.179 4.73011 78.3452 4.82102C78.5114 4.91051 78.6406 5.04688 78.733 5.23011C78.8253 5.41193 78.8714 5.64205 78.8714 5.92045V8H78.3686V5.95455C78.3686 5.69744 78.3018 5.49716 78.1683 5.35369C78.0348 5.20881 77.8516 5.13636 77.6186 5.13636C77.4581 5.13636 77.3146 5.17116 77.1882 5.24077C77.0632 5.31037 76.9645 5.41193 76.892 5.54545C76.8196 5.67898 76.7834 5.84091 76.7834 6.03125ZM81.1625 8.06818C80.8471 8.06818 80.5751 7.99858 80.3464 7.85938C80.1191 7.71875 79.9437 7.52273 79.8201 7.27131C79.698 7.01847 79.6369 6.72443 79.6369 6.3892C79.6369 6.05398 79.698 5.75852 79.8201 5.50284C79.9437 5.24574 80.1156 5.04545 80.3358 4.90199C80.5574 4.7571 80.8159 4.68466 81.1113 4.68466C81.2818 4.68466 81.4501 4.71307 81.6163 4.76989C81.7825 4.8267 81.9338 4.91903 82.0701 5.04688C82.2065 5.1733 82.3152 5.34091 82.3961 5.54972C82.4771 5.75852 82.5176 6.01562 82.5176 6.32102V6.53409H79.9949V6.09943H82.0062C82.0062 5.91477 81.9693 5.75 81.8954 5.60511C81.823 5.46023 81.7193 5.34588 81.5843 5.26207C81.4508 5.17827 81.2931 5.13636 81.1113 5.13636C80.911 5.13636 80.7377 5.18608 80.5914 5.28551C80.4466 5.38352 80.335 5.51136 80.2569 5.66903C80.1788 5.8267 80.1397 5.99574 80.1397 6.17614V6.46591C80.1397 6.71307 80.1824 6.92259 80.2676 7.09446C80.3542 7.26491 80.4743 7.39489 80.6277 7.48438C80.7811 7.57244 80.9593 7.61648 81.1625 7.61648C81.2946 7.61648 81.4139 7.59801 81.5204 7.56108C81.6284 7.52273 81.7214 7.46591 81.7995 7.39062C81.8777 7.31392 81.938 7.21875 81.9806 7.10511L82.4664 7.24148C82.4153 7.40625 82.3294 7.55114 82.2086 7.67614C82.0879 7.79972 81.9387 7.89631 81.7612 7.96591C81.5836 8.03409 81.3841 8.06818 81.1625 8.06818Z" fill="#0F8856"/>
</svg>
