<svg width="47" height="7" viewBox="0 0 47 7" fill="none" xmlns="http://www.w3.org/2000/svg">
<path d="M3.51136 2C3.46449 1.85653 3.4027 1.72798 3.32599 1.61435C3.25071 1.49929 3.16051 1.40128 3.0554 1.32031C2.9517 1.23935 2.83381 1.17756 2.7017 1.13494C2.5696 1.09233 2.42472 1.07102 2.26705 1.07102C2.00852 1.07102 1.77344 1.13778 1.56179 1.27131C1.35014 1.40483 1.18182 1.60156 1.05682 1.86151C0.931818 2.12145 0.869318 2.44034 0.869318 2.81818C0.869318 3.19602 0.932528 3.51491 1.05895 3.77486C1.18537 4.0348 1.35653 4.23153 1.57244 4.36506C1.78835 4.49858 2.03125 4.56534 2.30114 4.56534C2.55114 4.56534 2.77131 4.51207 2.96165 4.40554C3.15341 4.29759 3.30256 4.1456 3.40909 3.94957C3.51705 3.75213 3.57102 3.51989 3.57102 3.25284L3.73295 3.28693H2.42045V2.81818H4.08239V3.28693C4.08239 3.64631 4.00568 3.95881 3.85227 4.22443C3.70028 4.49006 3.49006 4.69602 3.22159 4.84233C2.95455 4.98722 2.64773 5.05966 2.30114 5.05966C1.91477 5.05966 1.57528 4.96875 1.28267 4.78693C0.991477 4.60511 0.764205 4.34659 0.600852 4.01136C0.43892 3.67614 0.357955 3.27841 0.357955 2.81818C0.357955 2.47301 0.404119 2.16264 0.496449 1.88707C0.590199 1.61009 0.722301 1.37429 0.892756 1.17969C1.06321 0.985085 1.26491 0.835938 1.49787 0.732244C1.73082 0.628551 1.98722 0.576704 2.26705 0.576704C2.49716 0.576704 2.71165 0.611506 2.91051 0.681108C3.1108 0.74929 3.28906 0.846591 3.44531 0.973011C3.60298 1.09801 3.73438 1.24787 3.83949 1.42259C3.9446 1.59588 4.01705 1.78835 4.05682 2H3.51136ZM6.29137 5.06818C5.97603 5.06818 5.70401 4.99858 5.47532 4.85938C5.24805 4.71875 5.07262 4.52273 4.94904 4.27131C4.82688 4.01847 4.7658 3.72443 4.7658 3.3892C4.7658 3.05398 4.82688 2.75852 4.94904 2.50284C5.07262 2.24574 5.2445 2.04545 5.46467 1.90199C5.68626 1.7571 5.94478 1.68466 6.24023 1.68466C6.41069 1.68466 6.57901 1.71307 6.74521 1.76989C6.9114 1.8267 7.06268 1.91903 7.19904 2.04688C7.3354 2.1733 7.44407 2.34091 7.52504 2.54972C7.606 2.75852 7.64648 3.01562 7.64648 3.32102V3.53409H5.12376V3.09943H7.13512C7.13512 2.91477 7.09819 2.75 7.02433 2.60511C6.95188 2.46023 6.84819 2.34588 6.71325 2.26207C6.57972 2.17827 6.42205 2.13636 6.24023 2.13636C6.03995 2.13636 5.86665 2.18608 5.72035 2.28551C5.57546 2.38352 5.46396 2.51136 5.38583 2.66903C5.30771 2.8267 5.26864 2.99574 5.26864 3.17614V3.46591C5.26864 3.71307 5.31126 3.92259 5.39648 4.09446C5.48313 4.26491 5.60316 4.39489 5.75657 4.48438C5.90998 4.57244 6.08825 4.61648 6.29137 4.61648C6.42347 4.61648 6.54279 4.59801 6.64933 4.56108C6.75728 4.52273 6.85032 4.46591 6.92844 4.39062C7.00657 4.31392 7.06694 4.21875 7.10955 4.10511L7.59535 4.24148C7.54421 4.40625 7.45827 4.55114 7.33754 4.67614C7.2168 4.79972 7.06765 4.89631 6.89009 4.96591C6.71254 5.03409 6.51296 5.06818 6.29137 5.06818ZM8.91424 3.03125V5H8.4114V1.72727H8.89719V2.23864H8.93981C9.01651 2.07244 9.13299 1.93892 9.28924 1.83807C9.44549 1.7358 9.64719 1.68466 9.89435 1.68466C10.1159 1.68466 10.3098 1.73011 10.476 1.82102C10.6422 1.91051 10.7715 2.04688 10.8638 2.23011C10.9561 2.41193 11.0023 2.64205 11.0023 2.92045V5H10.4995V2.95455C10.4995 2.69744 10.4327 2.49716 10.2992 2.35369C10.1657 2.20881 9.98242 2.13636 9.74947 2.13636C9.58896 2.13636 9.44549 2.17116 9.31907 2.24077C9.19407 2.31037 9.09535 2.41193 9.0229 2.54545C8.95046 2.67898 8.91424 2.84091 8.91424 3.03125ZM13.2933 5.06818C12.978 5.06818 12.706 4.99858 12.4773 4.85938C12.25 4.71875 12.0746 4.52273 11.951 4.27131C11.8288 4.01847 11.7678 3.72443 11.7678 3.3892C11.7678 3.05398 11.8288 2.75852 11.951 2.50284C12.0746 2.24574 12.2464 2.04545 12.4666 1.90199C12.6882 1.7571 12.9467 1.68466 13.2422 1.68466C13.4126 1.68466 13.581 1.71307 13.7472 1.76989C13.9134 1.8267 14.0646 1.91903 14.201 2.04688C14.3374 2.1733 14.446 2.34091 14.527 2.54972C14.608 2.75852 14.6484 3.01562 14.6484 3.32102V3.53409H12.1257V3.09943H14.1371C14.1371 2.91477 14.1001 2.75 14.0263 2.60511C13.9538 2.46023 13.8501 2.34588 13.7152 2.26207C13.5817 2.17827 13.424 2.13636 13.2422 2.13636C13.0419 2.13636 12.8686 2.18608 12.7223 2.28551C12.5774 2.38352 12.4659 2.51136 12.3878 2.66903C12.3097 2.8267 12.2706 2.99574 12.2706 3.17614V3.46591C12.2706 3.71307 12.3132 3.92259 12.3984 4.09446C12.4851 4.26491 12.6051 4.39489 12.7585 4.48438C12.9119 4.57244 13.0902 4.61648 13.2933 4.61648C13.4254 4.61648 13.5447 4.59801 13.6513 4.56108C13.7592 4.52273 13.8523 4.46591 13.9304 4.39062C14.0085 4.31392 14.0689 4.21875 14.1115 4.10511L14.5973 4.24148C14.5462 4.40625 14.4602 4.55114 14.3395 4.67614C14.2188 4.79972 14.0696 4.89631 13.892 4.96591C13.7145 5.03409 13.5149 5.06818 13.2933 5.06818ZM15.4134 5V1.72727H15.8991V2.22159H15.9332C15.9929 2.05966 16.1009 1.92827 16.2571 1.82741C16.4134 1.72656 16.5895 1.67614 16.7855 1.67614C16.8224 1.67614 16.8686 1.67685 16.924 1.67827C16.9794 1.67969 17.0213 1.68182 17.0497 1.68466V2.19602C17.0327 2.19176 16.9936 2.18537 16.9325 2.17685C16.8729 2.1669 16.8097 2.16193 16.7429 2.16193C16.5838 2.16193 16.4418 2.19531 16.3168 2.26207C16.1932 2.32741 16.0952 2.41832 16.0227 2.5348C15.9517 2.64986 15.9162 2.78125 15.9162 2.92898V5H15.4134ZM18.6088 5.0767C18.4015 5.0767 18.2132 5.03764 18.0442 4.95952C17.8752 4.87997 17.7409 4.76562 17.6415 4.61648C17.5421 4.46591 17.4924 4.28409 17.4924 4.07102C17.4924 3.88352 17.5293 3.73153 17.6032 3.61506C17.677 3.49716 17.7757 3.40483 17.8993 3.33807C18.0229 3.27131 18.1593 3.22159 18.3084 3.18892C18.459 3.15483 18.6103 3.12784 18.7623 3.10795C18.9611 3.08239 19.1223 3.06321 19.2459 3.05043C19.3709 3.03622 19.4618 3.01278 19.5186 2.98011C19.5769 2.94744 19.606 2.89062 19.606 2.80966V2.79261C19.606 2.58239 19.5485 2.41903 19.4334 2.30256C19.3198 2.18608 19.1472 2.12784 18.9157 2.12784C18.6756 2.12784 18.4874 2.1804 18.351 2.28551C18.2147 2.39062 18.1188 2.50284 18.0634 2.62216L17.5861 2.4517C17.6713 2.25284 17.785 2.09801 17.927 1.98722C18.0705 1.875 18.2267 1.79687 18.3958 1.75284C18.5662 1.70739 18.7338 1.68466 18.8986 1.68466C19.0037 1.68466 19.1245 1.69744 19.2608 1.72301C19.3986 1.74716 19.5314 1.79759 19.6593 1.87429C19.7885 1.95099 19.8958 2.06676 19.981 2.22159C20.0662 2.37642 20.1088 2.58381 20.1088 2.84375V5H19.606V4.55682H19.5804C19.5463 4.62784 19.4895 4.70384 19.41 4.7848C19.3304 4.86577 19.2246 4.93466 19.0925 4.99148C18.9604 5.0483 18.7992 5.0767 18.6088 5.0767ZM18.6855 4.625C18.8844 4.625 19.052 4.58594 19.1884 4.50781C19.3262 4.42969 19.4299 4.32884 19.4995 4.20526C19.5705 4.08168 19.606 3.9517 19.606 3.81534V3.35511C19.5847 3.38068 19.5378 3.40412 19.4654 3.42543C19.3944 3.44531 19.312 3.46307 19.2182 3.47869C19.1259 3.4929 19.0357 3.50568 18.9476 3.51705C18.861 3.52699 18.7907 3.53551 18.7367 3.54261C18.606 3.55966 18.4838 3.58736 18.3702 3.62571C18.258 3.66264 18.1671 3.71875 18.0975 3.79403C18.0293 3.8679 17.9952 3.96875 17.9952 4.09659C17.9952 4.27131 18.0598 4.40341 18.1891 4.4929C18.3198 4.58097 18.4853 4.625 18.6855 4.625ZM22.4499 1.72727V2.15341H20.7539V1.72727H22.4499ZM21.2482 0.943182H21.7511V4.0625C21.7511 4.20455 21.7717 4.31108 21.8129 4.3821C21.8555 4.4517 21.9094 4.49858 21.9748 4.52273C22.0415 4.54545 22.1119 4.55682 22.1857 4.55682C22.2411 4.55682 22.2866 4.55398 22.3221 4.5483C22.3576 4.54119 22.386 4.53551 22.4073 4.53125L22.5096 4.98295C22.4755 4.99574 22.4279 5.00852 22.3668 5.02131C22.3058 5.03551 22.2283 5.04261 22.1346 5.04261C21.9925 5.04261 21.8533 5.01207 21.717 4.95099C21.582 4.88991 21.4698 4.79688 21.3803 4.67188C21.2923 4.54688 21.2482 4.3892 21.2482 4.19886V0.943182ZM23.2063 5V1.72727H23.7092V5H23.2063ZM23.462 1.18182C23.364 1.18182 23.2795 1.14844 23.2085 1.08168C23.1388 1.01491 23.104 0.934659 23.104 0.840909C23.104 0.747159 23.1388 0.666903 23.2085 0.600142C23.2795 0.533381 23.364 0.5 23.462 0.5C23.56 0.5 23.6438 0.533381 23.7134 0.600142C23.7844 0.666903 23.82 0.747159 23.82 0.840909C23.82 0.934659 23.7844 1.01491 23.7134 1.08168C23.6438 1.14844 23.56 1.18182 23.462 1.18182ZM25.133 3.03125V5H24.6301V1.72727H25.1159V2.23864H25.1586C25.2353 2.07244 25.3517 1.93892 25.508 1.83807C25.6642 1.7358 25.8659 1.68466 26.1131 1.68466C26.3347 1.68466 26.5286 1.73011 26.6948 1.82102C26.861 1.91051 26.9902 2.04688 27.0826 2.23011C27.1749 2.41193 27.2211 2.64205 27.2211 2.92045V5H26.7182V2.95455C26.7182 2.69744 26.6515 2.49716 26.5179 2.35369C26.3844 2.20881 26.2012 2.13636 25.9682 2.13636C25.8077 2.13636 25.6642 2.17116 25.5378 2.24077C25.4128 2.31037 25.3141 2.41193 25.2417 2.54545C25.1692 2.67898 25.133 2.84091 25.133 3.03125ZM29.4609 6.29545C29.218 6.29545 29.0092 6.2642 28.8345 6.2017C28.6598 6.14062 28.5142 6.05966 28.3977 5.95881C28.2827 5.85938 28.1911 5.75284 28.1229 5.6392L28.5234 5.35795C28.5689 5.41761 28.6264 5.4858 28.696 5.5625C28.7656 5.64062 28.8608 5.7081 28.9815 5.76491C29.1037 5.82315 29.2635 5.85227 29.4609 5.85227C29.7251 5.85227 29.9432 5.78835 30.1151 5.66051C30.2869 5.53267 30.3729 5.33239 30.3729 5.05966V4.39489H30.3303C30.2933 4.45455 30.2408 4.52841 30.1726 4.61648C30.1058 4.70312 30.0092 4.78054 29.8828 4.84872C29.7578 4.91548 29.5888 4.94886 29.3757 4.94886C29.1115 4.94886 28.8743 4.88636 28.6641 4.76136C28.4553 4.63636 28.2898 4.45455 28.1676 4.21591C28.0469 3.97727 27.9865 3.6875 27.9865 3.34659C27.9865 3.01136 28.0455 2.71946 28.1634 2.47088C28.2813 2.22088 28.4453 2.0277 28.6555 1.89134C28.8658 1.75355 29.1087 1.68466 29.3842 1.68466C29.5973 1.68466 29.7663 1.72017 29.8913 1.79119C30.0178 1.8608 30.1143 1.94034 30.1811 2.02983C30.2493 2.1179 30.3018 2.19034 30.3388 2.24716H30.3899V1.72727H30.8757V5.09375C30.8757 5.375 30.8118 5.60369 30.6839 5.77983C30.5575 5.95739 30.3871 6.08736 30.1726 6.16974C29.9595 6.25355 29.7223 6.29545 29.4609 6.29545ZM29.4439 4.49716C29.6456 4.49716 29.8161 4.45099 29.9553 4.35866C30.0945 4.26634 30.2003 4.13352 30.2727 3.96023C30.3452 3.78693 30.3814 3.57955 30.3814 3.33807C30.3814 3.10227 30.3459 2.89418 30.2749 2.71378C30.2038 2.53338 30.0987 2.39205 29.9595 2.28977C29.8203 2.1875 29.6484 2.13636 29.4439 2.13636C29.2308 2.13636 29.0533 2.19034 28.9112 2.2983C28.7706 2.40625 28.6648 2.55114 28.5938 2.73295C28.5241 2.91477 28.4893 3.11648 28.4893 3.33807C28.4893 3.56534 28.5249 3.76634 28.5959 3.94105C28.6683 4.11435 28.7749 4.25071 28.9155 4.35014C29.0575 4.44815 29.2337 4.49716 29.4439 4.49716ZM34.8132 5.06818C34.5064 5.06818 34.2422 4.99574 34.0206 4.85085C33.799 4.70597 33.6286 4.50639 33.5092 4.25213C33.3899 3.99787 33.3303 3.70739 33.3303 3.38068C33.3303 3.0483 33.3913 2.75497 33.5135 2.50071C33.6371 2.24503 33.8089 2.04545 34.0291 1.90199C34.2507 1.7571 34.5092 1.68466 34.8047 1.68466C35.0348 1.68466 35.2422 1.72727 35.4268 1.8125C35.6115 1.89773 35.7628 2.01705 35.8807 2.17045C35.9986 2.32386 36.0717 2.50284 36.1001 2.70739H35.5973C35.5589 2.55824 35.4737 2.42614 35.3416 2.31108C35.2109 2.1946 35.0348 2.13636 34.8132 2.13636C34.6172 2.13636 34.4453 2.1875 34.2976 2.28977C34.1513 2.39062 34.0369 2.53338 33.9545 2.71804C33.8736 2.90128 33.8331 3.11648 33.8331 3.36364C33.8331 3.61648 33.8729 3.83665 33.9524 4.02415C34.0334 4.21165 34.147 4.35724 34.2933 4.46094C34.4411 4.56463 34.6143 4.61648 34.8132 4.61648C34.9439 4.61648 35.0625 4.59375 35.169 4.5483C35.2756 4.50284 35.3658 4.4375 35.4396 4.35227C35.5135 4.26705 35.5661 4.16477 35.5973 4.04545H36.1001C36.0717 4.23864 36.0014 4.41264 35.8892 4.56747C35.7784 4.72088 35.6314 4.84304 35.4482 4.93395C35.2663 5.02344 35.0547 5.06818 34.8132 5.06818ZM38.1648 5.06818C37.8693 5.06818 37.6101 4.99787 37.3871 4.85724C37.1655 4.71662 36.9922 4.51989 36.8672 4.26705C36.7436 4.0142 36.6818 3.71875 36.6818 3.38068C36.6818 3.03977 36.7436 2.74219 36.8672 2.48793C36.9922 2.23366 37.1655 2.03622 37.3871 1.8956C37.6101 1.75497 37.8693 1.68466 38.1648 1.68466C38.4602 1.68466 38.7188 1.75497 38.9403 1.8956C39.1634 2.03622 39.3366 2.23366 39.4602 2.48793C39.5852 2.74219 39.6477 3.03977 39.6477 3.38068C39.6477 3.71875 39.5852 4.0142 39.4602 4.26705C39.3366 4.51989 39.1634 4.71662 38.9403 4.85724C38.7188 4.99787 38.4602 5.06818 38.1648 5.06818ZM38.1648 4.61648C38.3892 4.61648 38.5739 4.55895 38.7188 4.44389C38.8636 4.32884 38.9709 4.17756 39.0405 3.99006C39.1101 3.80256 39.1449 3.59943 39.1449 3.38068C39.1449 3.16193 39.1101 2.9581 39.0405 2.76918C38.9709 2.58026 38.8636 2.42756 38.7188 2.31108C38.5739 2.1946 38.3892 2.13636 38.1648 2.13636C37.9403 2.13636 37.7557 2.1946 37.6108 2.31108C37.4659 2.42756 37.3587 2.58026 37.2891 2.76918C37.2195 2.9581 37.1847 3.16193 37.1847 3.38068C37.1847 3.59943 37.2195 3.80256 37.2891 3.99006C37.3587 4.17756 37.4659 4.32884 37.6108 4.44389C37.7557 4.55895 37.9403 4.61648 38.1648 4.61648ZM41.6511 5.06818C41.3784 5.06818 41.1376 4.99929 40.9288 4.86151C40.72 4.7223 40.5566 4.52628 40.4387 4.27344C40.3208 4.01918 40.2619 3.71875 40.2619 3.37216C40.2619 3.02841 40.3208 2.73011 40.4387 2.47727C40.5566 2.22443 40.7207 2.02912 40.9309 1.89134C41.1412 1.75355 41.3841 1.68466 41.6596 1.68466C41.8727 1.68466 42.041 1.72017 42.1646 1.79119C42.2896 1.8608 42.3848 1.94034 42.4501 2.02983C42.5169 2.1179 42.5687 2.19034 42.6056 2.24716H42.6483V0.636364H43.1511V5H42.6653V4.49716H42.6056C42.5687 4.55682 42.5162 4.6321 42.448 4.72301C42.3798 4.8125 42.2825 4.89276 42.1561 4.96378C42.0297 5.03338 41.8613 5.06818 41.6511 5.06818ZM41.7193 4.61648C41.921 4.61648 42.0914 4.56392 42.2306 4.45881C42.3699 4.35227 42.4757 4.20526 42.5481 4.01776C42.6206 3.82884 42.6568 3.6108 42.6568 3.36364C42.6568 3.11932 42.6213 2.90554 42.5502 2.7223C42.4792 2.53764 42.3741 2.39418 42.2349 2.2919C42.0957 2.18821 41.9238 2.13636 41.7193 2.13636C41.5062 2.13636 41.3287 2.19105 41.1866 2.30043C41.046 2.40838 40.9402 2.5554 40.8691 2.74148C40.7995 2.92614 40.7647 3.13352 40.7647 3.36364C40.7647 3.59659 40.8002 3.80824 40.8713 3.99858C40.9437 4.1875 41.0502 4.33807 41.1909 4.45028C41.3329 4.56108 41.5091 4.61648 41.7193 4.61648ZM45.514 5.06818C45.1987 5.06818 44.9267 4.99858 44.698 4.85938C44.4707 4.71875 44.2953 4.52273 44.1717 4.27131C44.0495 4.01847 43.9885 3.72443 43.9885 3.3892C43.9885 3.05398 44.0495 2.75852 44.1717 2.50284C44.2953 2.24574 44.4672 2.04545 44.6873 1.90199C44.9089 1.7571 45.1674 1.68466 45.4629 1.68466C45.6333 1.68466 45.8017 1.71307 45.9679 1.76989C46.1341 1.8267 46.2853 1.91903 46.4217 2.04688C46.5581 2.1733 46.6667 2.34091 46.7477 2.54972C46.8287 2.75852 46.8691 3.01562 46.8691 3.32102V3.53409H44.3464V3.09943H46.3578C46.3578 2.91477 46.3208 2.75 46.247 2.60511C46.1745 2.46023 46.0708 2.34588 45.9359 2.26207C45.8024 2.17827 45.6447 2.13636 45.4629 2.13636C45.2626 2.13636 45.0893 2.18608 44.943 2.28551C44.7981 2.38352 44.6866 2.51136 44.6085 2.66903C44.5304 2.8267 44.4913 2.99574 44.4913 3.17614V3.46591C44.4913 3.71307 44.5339 3.92259 44.6191 4.09446C44.7058 4.26491 44.8258 4.39489 44.9792 4.48438C45.1326 4.57244 45.3109 4.61648 45.514 4.61648C45.6461 4.61648 45.7654 4.59801 45.872 4.56108C45.9799 4.52273 46.073 4.46591 46.1511 4.39062C46.2292 4.31392 46.2896 4.21875 46.3322 4.10511L46.818 4.24148C46.7669 4.40625 46.6809 4.55114 46.5602 4.67614C46.4395 4.79972 46.2903 4.89631 46.1127 4.96591C45.9352 5.03409 45.7356 5.06818 45.514 5.06818Z" fill="#3AB5FF"/>
</svg>
