<svg width="14" height="14" viewBox="0 0 14 14" fill="none" xmlns="http://www.w3.org/2000/svg">
<path d="M7 8.63636C7.90374 8.63636 8.63636 7.90374 8.63636 7C8.63636 6.09626 7.90374 5.36364 7 5.36364C6.09626 5.36364 5.36364 6.09626 5.36364 7C5.36364 7.90374 6.09626 8.63636 7 8.63636Z" stroke="white" stroke-linecap="round" stroke-linejoin="round"/>
<path d="M11.0364 8.63636C10.9638 8.80088 10.9421 8.98338 10.9742 9.16032C11.0063 9.33726 11.0906 9.50054 11.2164 9.62909L11.2491 9.66182C11.3505 9.76313 11.431 9.88345 11.4859 10.0159C11.5408 10.1483 11.569 10.2903 11.569 10.4336C11.569 10.577 11.5408 10.719 11.4859 10.8514C11.431 10.9838 11.3505 11.1041 11.2491 11.2055C11.1478 11.3069 11.0275 11.3873 10.895 11.4422C10.7626 11.4971 10.6206 11.5254 10.4773 11.5254C10.3339 11.5254 10.192 11.4971 10.0595 11.4422C9.92709 11.3873 9.80677 11.3069 9.70545 11.2055L9.67273 11.1727C9.54418 11.047 9.3809 10.9626 9.20396 10.9305C9.02701 10.8985 8.84452 10.9201 8.68 10.9927C8.51867 11.0619 8.38108 11.1767 8.28417 11.323C8.18725 11.4694 8.13525 11.6408 8.13455 11.8164V11.9091C8.13455 12.1984 8.01961 12.4759 7.81503 12.6805C7.61044 12.8851 7.33296 13 7.04364 13C6.75431 13 6.47683 12.8851 6.27225 12.6805C6.06766 12.4759 5.95273 12.1984 5.95273 11.9091V11.86C5.9485 11.6795 5.89006 11.5044 5.78501 11.3575C5.67995 11.2106 5.53313 11.0987 5.36364 11.0364C5.19912 10.9638 5.01662 10.9421 4.83968 10.9742C4.66274 11.0063 4.49946 11.0906 4.37091 11.2164L4.33818 11.2491C4.23687 11.3505 4.11655 11.431 3.98412 11.4859C3.85168 11.5408 3.70973 11.569 3.56636 11.569C3.423 11.569 3.28104 11.5408 3.14861 11.4859C3.01618 11.431 2.89586 11.3505 2.79455 11.2491C2.69312 11.1478 2.61265 11.0275 2.55775 10.895C2.50285 10.7626 2.4746 10.6206 2.4746 10.4773C2.4746 10.3339 2.50285 10.192 2.55775 10.0595C2.61265 9.92709 2.69312 9.80677 2.79455 9.70545L2.82727 9.67273C2.95302 9.54418 3.03737 9.3809 3.06946 9.20396C3.10154 9.02701 3.07988 8.84452 3.00727 8.68C2.93813 8.51867 2.82332 8.38108 2.67698 8.28417C2.53064 8.18725 2.35916 8.13525 2.18364 8.13455H2.09091C1.80158 8.13455 1.52411 8.01961 1.31952 7.81503C1.11493 7.61044 1 7.33296 1 7.04364C1 6.75431 1.11493 6.47683 1.31952 6.27225C1.52411 6.06766 1.80158 5.95273 2.09091 5.95273H2.14C2.32054 5.9485 2.49564 5.89006 2.64253 5.78501C2.78941 5.67995 2.9013 5.53313 2.96364 5.36364C3.03624 5.19912 3.0579 5.01662 3.02582 4.83968C2.99374 4.66274 2.90938 4.49946 2.78364 4.37091L2.75091 4.33818C2.64948 4.23687 2.56902 4.11655 2.51412 3.98412C2.45922 3.85168 2.43096 3.70973 2.43096 3.56636C2.43096 3.423 2.45922 3.28104 2.51412 3.14861C2.56902 3.01618 2.64948 2.89586 2.75091 2.79455C2.85223 2.69312 2.97254 2.61265 3.10497 2.55775C3.23741 2.50285 3.37937 2.4746 3.52273 2.4746C3.66609 2.4746 3.80805 2.50285 3.94048 2.55775C4.07291 2.61265 4.19323 2.69312 4.29455 2.79455L4.32727 2.82727C4.45583 2.95302 4.6191 3.03737 4.79604 3.06946C4.97299 3.10154 5.15548 3.07988 5.32 3.00727H5.36364C5.52497 2.93813 5.66256 2.82332 5.75947 2.67698C5.85638 2.53064 5.90839 2.35916 5.90909 2.18364V2.09091C5.90909 1.80158 6.02403 1.52411 6.22861 1.31952C6.4332 1.11493 6.71067 1 7 1C7.28933 1 7.5668 1.11493 7.77139 1.31952C7.97597 1.52411 8.09091 1.80158 8.09091 2.09091V2.14C8.09161 2.31552 8.14362 2.487 8.24053 2.63334C8.33745 2.77969 8.47503 2.89449 8.63636 2.96364C8.80088 3.03624 8.98338 3.0579 9.16032 3.02582C9.33726 2.99374 9.50054 2.90938 9.62909 2.78364L9.66182 2.75091C9.76313 2.64948 9.88345 2.56902 10.0159 2.51412C10.1483 2.45922 10.2903 2.43096 10.4336 2.43096C10.577 2.43096 10.719 2.45922 10.8514 2.51412C10.9838 2.56902 11.1041 2.64948 11.2055 2.75091C11.3069 2.85223 11.3873 2.97254 11.4422 3.10497C11.4971 3.23741 11.5254 3.37937 11.5254 3.52273C11.5254 3.66609 11.4971 3.80805 11.4422 3.94048C11.3873 4.07291 11.3069 4.19323 11.2055 4.29455L11.1727 4.32727C11.047 4.45583 10.9626 4.6191 10.9305 4.79604C10.8985 4.97299 10.9201 5.15548 10.9927 5.32V5.36364C11.0619 5.52497 11.1767 5.66256 11.323 5.75947C11.4694 5.85638 11.6408 5.90839 11.8164 5.90909H11.9091C12.1984 5.90909 12.4759 6.02403 12.6805 6.22861C12.8851 6.4332 13 6.71067 13 7C13 7.28933 12.8851 7.5668 12.6805 7.77139C12.4759 7.97597 12.1984 8.09091 11.9091 8.09091H11.86C11.6845 8.09161 11.513 8.14362 11.3667 8.24053C11.2203 8.33745 11.1055 8.47503 11.0364 8.63636Z" stroke="white" stroke-linecap="round" stroke-linejoin="round"/>
</svg>
