<svg width="33" height="32" viewBox="0 0 33 32" fill="none" xmlns="http://www.w3.org/2000/svg">
<rect x="0.818115" width="32" height="32" rx="16" fill="#0072E5"/>
<path d="M18.3208 7.89111V11.3332C18.3208 11.7999 18.3208 12.0333 18.4116 12.2116C18.4915 12.3684 18.619 12.4958 18.7758 12.5757C18.954 12.6666 19.1874 12.6666 19.6541 12.6666H23.0962M18.3208 20.1665H13.3208M19.9874 16.8332H13.3208M23.3208 14.3234V20.3332C23.3208 21.7333 23.3208 22.4334 23.0483 22.9681C22.8086 23.4386 22.4261 23.821 21.9557 24.0607C21.421 24.3332 20.7209 24.3332 19.3208 24.3332H13.9874C12.5873 24.3332 11.8872 24.3332 11.3525 24.0607C10.882 23.821 10.4996 23.4386 10.2599 22.9681C9.98743 22.4334 9.98743 21.7333 9.98743 20.3332V11.6665C9.98743 10.2664 9.98743 9.56631 10.2599 9.03153C10.4996 8.56112 10.882 8.17867 11.3525 7.93899C11.8872 7.6665 12.5873 7.6665 13.9874 7.6665H16.6639C17.2754 7.6665 17.5811 7.6665 17.8688 7.73558C18.1239 7.79682 18.3678 7.89783 18.5915 8.0349C18.8438 8.18951 19.06 8.4057 19.4923 8.83808L22.1492 11.4949C22.5816 11.9273 22.7978 12.1435 22.9524 12.3958C23.0894 12.6195 23.1904 12.8633 23.2517 13.1184C23.3208 13.4061 23.3208 13.7119 23.3208 14.3234Z" stroke="#0D0D0D" stroke-width="1.5" stroke-linecap="round" stroke-linejoin="round"/>
</svg>
