<svg width="33" height="32" viewBox="0 0 33 32" fill="none" xmlns="http://www.w3.org/2000/svg">
<rect x="0.818359" width="32" height="32" rx="16" fill="#0066CB"/>
<path d="M18.3206 7.89124V11.3334C18.3206 11.8001 18.3206 12.0334 18.4115 12.2117C18.4914 12.3685 18.6188 12.496 18.7756 12.5759C18.9539 12.6667 19.1873 12.6667 19.654 12.6667H23.0961M18.3206 20.1666H13.3206M19.9873 16.8333H13.3206M23.3206 14.3235V20.3333C23.3206 21.7334 23.3206 22.4335 23.0482 22.9683C22.8085 23.4387 22.426 23.8211 21.9556 24.0608C21.4208 24.3333 20.7208 24.3333 19.3206 24.3333H13.9873C12.5872 24.3333 11.8871 24.3333 11.3523 24.0608C10.8819 23.8211 10.4995 23.4387 10.2598 22.9683C9.9873 22.4335 9.9873 21.7334 9.9873 20.3333V11.6666C9.9873 10.2665 9.9873 9.56643 10.2598 9.03165C10.4995 8.56124 10.8819 8.17879 11.3523 7.93911C11.8871 7.66663 12.5872 7.66663 13.9873 7.66663H16.6638C17.2753 7.66663 17.581 7.66663 17.8687 7.7357C18.1238 7.79694 18.3677 7.89795 18.5914 8.03503C18.8436 8.18963 19.0598 8.40582 19.4922 8.8382L22.1491 11.4951C22.5814 11.9274 22.7976 12.1436 22.9522 12.3959C23.0893 12.6196 23.1903 12.8635 23.2516 13.1185C23.3206 13.4063 23.3206 13.712 23.3206 14.3235Z" stroke="white" stroke-width="1.5" stroke-linecap="round" stroke-linejoin="round"/>
</svg>
