<svg width="36" height="36" viewBox="0 0 36 36" fill="none" xmlns="http://www.w3.org/2000/svg">
<rect x="2" y="2" width="32" height="32" rx="16" fill="#FEF0C7"/>
<rect x="2" y="2" width="32" height="32" rx="16" stroke="#FFFAEB" stroke-width="4"/>
<path d="M17.9995 15.3331V17.9998M17.9995 20.6665H18.0062M16.8595 11.9065L11.2129 21.3331C11.0964 21.5348 11.0348 21.7633 11.0342 21.9962C11.0335 22.229 11.0939 22.4579 11.2091 22.6602C11.3244 22.8624 11.4907 23.031 11.6913 23.149C11.892 23.2671 12.1201 23.3306 12.3529 23.3331H23.6462C23.879 23.3306 24.1071 23.2671 24.3077 23.149C24.5084 23.031 24.6746 22.8624 24.7899 22.6602C24.9052 22.4579 24.9655 22.229 24.9649 21.9962C24.9642 21.7633 24.9026 21.5348 24.7862 21.3331L19.1395 11.9065C19.0207 11.7105 18.8533 11.5486 18.6537 11.4361C18.454 11.3237 18.2287 11.2646 17.9995 11.2646C17.7704 11.2646 17.5451 11.3237 17.3454 11.4361C17.1457 11.5486 16.9784 11.7105 16.8595 11.9065Z" stroke="#DC6803" stroke-width="1.33333" stroke-linecap="round" stroke-linejoin="round"/>
</svg>
