<svg width="722" height="126" viewBox="0 0 722 126" fill="none" xmlns="http://www.w3.org/2000/svg">
<path d="M48.7102 0L0 48.7102V77.2437L48.1561 29.0876L82.0916 62.9769L96.9124 48.1561L48.7102 0Z" fill="url(#paint0_linear_806_7333)"/>
<path d="M77.2437 126L29.0876 77.7977L62.9769 43.9083L48.1561 29.0875L0 77.2436L48.7102 126H77.2437Z" fill="url(#paint1_linear_806_7333)"/>
<path d="M126 48.7102L77.7977 96.9125L43.9084 62.977L29.0876 77.7978L77.2437 126L126 77.2437V48.7102Z" fill="url(#paint2_linear_806_7333)"/>
<path d="M77.2437 0H48.7101L96.9124 48.1561L62.9769 82.0916L77.7977 96.9124L126 48.7102L77.2437 0Z" fill="url(#paint3_linear_806_7333)"/>
<path d="M48.7101 0L96.9124 48.1561L126 48.7102L77.2437 0H48.7101Z" fill="url(#paint4_linear_806_7333)"/>
<path d="M96.9125 48.1561L82.0916 62.9769L76.5511 57.4365C76.5511 57.4826 81.907 63.3001 96.9125 48.1561Z" fill="url(#paint5_radial_806_7333)"/>
<path d="M29.0876 77.8439L43.9084 63.0231L49.4489 68.5636C49.4027 68.5174 44.0931 62.6999 29.0876 77.8439Z" fill="url(#paint6_radial_806_7333)"/>
<path opacity="0.17" d="M48.1561 29.0875L62.9769 43.9083L57.4365 49.4488C57.4826 49.4488 63.254 44.093 48.1561 29.0875Z" fill="url(#paint7_radial_806_7333)"/>
<path opacity="0.17" d="M77.7977 96.9125L62.9769 82.0916L68.5174 76.5511C68.5174 76.5973 62.6998 81.907 77.7977 96.9125Z" fill="url(#paint8_radial_806_7333)"/>
<path d="M168.24 91V45.56H150.32V35H199.12V45.56H181.2V91H168.24ZM204.276 91V47.96H216.196V60.12L214.516 56.6C215.796 53.56 217.849 51.2667 220.676 49.72C223.502 48.12 226.942 47.32 230.996 47.32V58.84C230.462 58.7867 229.982 58.76 229.556 58.76C229.129 58.7067 228.676 58.68 228.196 58.68C224.782 58.68 222.009 59.6667 219.876 61.64C217.796 63.56 216.756 66.5733 216.756 70.68V91H204.276ZM256.889 91.64C253.315 91.64 250.115 90.9467 247.289 89.56C244.515 88.1733 242.355 86.0667 240.809 83.24C239.262 80.36 238.489 76.7067 238.489 72.28V47.96H250.969V70.44C250.969 74.0133 251.715 76.6533 253.209 78.36C254.755 80.0133 256.915 80.84 259.689 80.84C261.609 80.84 263.315 80.44 264.809 79.64C266.302 78.7867 267.475 77.5067 268.329 75.8C269.182 74.04 269.609 71.8533 269.609 69.24V47.96H282.089V91H270.249V79.16L272.409 82.6C270.969 85.5867 268.835 87.8533 266.009 89.4C263.235 90.8933 260.195 91.64 256.889 91.64ZM315.011 91.64C310.104 91.64 305.784 90.68 302.051 88.76C298.371 86.84 295.517 84.2267 293.491 80.92C291.464 77.56 290.451 73.7467 290.451 69.48C290.451 65.16 291.437 61.3467 293.411 58.04C295.437 54.68 298.184 52.0667 301.651 50.2C305.117 48.28 309.037 47.32 313.411 47.32C317.624 47.32 321.411 48.2267 324.771 50.04C328.184 51.8 330.877 54.36 332.851 57.72C334.824 61.0267 335.811 65 335.811 69.64C335.811 70.12 335.784 70.68 335.731 71.32C335.677 71.9067 335.624 72.4667 335.571 73H300.611V65.72H329.011L324.211 67.88C324.211 65.64 323.757 63.6933 322.851 62.04C321.944 60.3867 320.691 59.1067 319.091 58.2C317.491 57.24 315.624 56.76 313.491 56.76C311.357 56.76 309.464 57.24 307.811 58.2C306.211 59.1067 304.957 60.4133 304.051 62.12C303.144 63.7733 302.691 65.7467 302.691 68.04V69.96C302.691 72.3067 303.197 74.3867 304.211 76.2C305.277 77.96 306.744 79.32 308.611 80.28C310.531 81.1867 312.771 81.64 315.331 81.64C317.624 81.64 319.624 81.2933 321.331 80.6C323.091 79.9067 324.691 78.8667 326.131 77.48L332.771 84.68C330.797 86.92 328.317 88.6533 325.331 89.88C322.344 91.0533 318.904 91.64 315.011 91.64Z" fill="#0066CB"/>
<path d="M372.039 91.96C367.613 91.96 363.533 91.2667 359.799 89.88C356.119 88.44 352.893 86.4133 350.119 83.8C347.399 81.1867 345.266 78.12 343.719 74.6C342.226 71.08 341.479 67.2133 341.479 63C341.479 58.7867 342.226 54.92 343.719 51.4C345.266 47.88 347.426 44.8133 350.199 42.2C352.973 39.5867 356.226 37.5867 359.959 36.2C363.693 34.76 367.799 34.04 372.279 34.04C377.239 34.04 381.693 34.8667 385.639 36.52C389.639 38.1733 392.999 40.5733 395.719 43.72L387.399 51.4C385.373 49.2667 383.159 47.6933 380.759 46.68C378.359 45.6133 375.746 45.08 372.919 45.08C370.199 45.08 367.719 45.5067 365.479 46.36C363.239 47.2133 361.293 48.44 359.639 50.04C358.039 51.64 356.786 53.5333 355.879 55.72C355.026 57.9067 354.599 60.3333 354.599 63C354.599 65.6133 355.026 68.0133 355.879 70.2C356.786 72.3867 358.039 74.3067 359.639 75.96C361.293 77.56 363.213 78.7867 365.399 79.64C367.639 80.4933 370.093 80.92 372.759 80.92C375.319 80.92 377.799 80.52 380.199 79.72C382.653 78.8667 385.026 77.4533 387.319 75.48L394.679 84.84C391.639 87.1333 388.093 88.8933 384.039 90.12C380.039 91.3467 376.039 91.96 372.039 91.96ZM382.839 83.16V62.12H394.679V84.84L382.839 83.16ZM405.838 91V47.96H417.758V60.12L416.078 56.6C417.358 53.56 419.411 51.2667 422.238 49.72C425.065 48.12 428.505 47.32 432.558 47.32V58.84C432.025 58.7867 431.545 58.76 431.118 58.76C430.691 58.7067 430.238 58.68 429.758 58.68C426.345 58.68 423.571 59.6667 421.438 61.64C419.358 63.56 418.318 66.5733 418.318 70.68V91H405.838ZM463.566 91V82.6L462.766 80.76V65.72C462.766 63.0533 461.94 60.9733 460.286 59.48C458.686 57.9867 456.206 57.24 452.846 57.24C450.553 57.24 448.286 57.6133 446.046 58.36C443.86 59.0533 441.993 60.0133 440.446 61.24L435.966 52.52C438.313 50.8667 441.14 49.5867 444.446 48.68C447.753 47.7733 451.113 47.32 454.526 47.32C461.086 47.32 466.18 48.8667 469.806 51.96C473.433 55.0533 475.246 59.88 475.246 66.44V91H463.566ZM450.446 91.64C447.086 91.64 444.206 91.08 441.806 89.96C439.406 88.7867 437.566 87.2133 436.286 85.24C435.006 83.2667 434.366 81.0533 434.366 78.6C434.366 76.04 434.98 73.8 436.206 71.88C437.486 69.96 439.486 68.4667 442.206 67.4C444.926 66.28 448.473 65.72 452.846 65.72H464.286V73H454.206C451.273 73 449.246 73.48 448.126 74.44C447.06 75.4 446.526 76.6 446.526 78.04C446.526 79.64 447.14 80.92 448.366 81.88C449.646 82.7867 451.38 83.24 453.566 83.24C455.646 83.24 457.513 82.76 459.166 81.8C460.82 80.7867 462.02 79.32 462.766 77.4L464.686 83.16C463.78 85.9333 462.126 88.04 459.726 89.48C457.326 90.92 454.233 91.64 450.446 91.64ZM505.334 91.64C501.28 91.64 497.627 90.7333 494.374 88.92C491.12 87.0533 488.534 84.4667 486.614 81.16C484.747 77.8533 483.814 73.96 483.814 69.48C483.814 64.9467 484.747 61.0267 486.614 57.72C488.534 54.4133 491.12 51.8533 494.374 50.04C497.627 48.2267 501.28 47.32 505.334 47.32C508.96 47.32 512.134 48.12 514.854 49.72C517.574 51.32 519.68 53.7467 521.174 57C522.667 60.2533 523.414 64.4133 523.414 69.48C523.414 74.4933 522.694 78.6533 521.254 81.96C519.814 85.2133 517.734 87.64 515.014 89.24C512.347 90.84 509.12 91.64 505.334 91.64ZM507.494 81.4C509.52 81.4 511.36 80.92 513.014 79.96C514.667 79 515.974 77.64 516.934 75.88C517.947 74.0667 518.454 71.9333 518.454 69.48C518.454 66.9733 517.947 64.84 516.934 63.08C515.974 61.32 514.667 59.96 513.014 59C511.36 58.04 509.52 57.56 507.494 57.56C505.414 57.56 503.547 58.04 501.894 59C500.24 59.96 498.907 61.32 497.894 63.08C496.934 64.84 496.454 66.9733 496.454 69.48C496.454 71.9333 496.934 74.0667 497.894 75.88C498.907 77.64 500.24 79 501.894 79.96C503.547 80.92 505.414 81.4 507.494 81.4ZM518.774 91V82.2L519.014 69.4L518.214 56.68V31.64H530.694V91H518.774ZM542.244 91V47.96H554.724V91H542.244ZM548.484 41.96C546.191 41.96 544.324 41.2933 542.884 39.96C541.444 38.6267 540.724 36.9733 540.724 35C540.724 33.0267 541.444 31.3733 542.884 30.04C544.324 28.7067 546.191 28.04 548.484 28.04C550.778 28.04 552.644 28.68 554.084 29.96C555.524 31.1867 556.244 32.7867 556.244 34.76C556.244 36.84 555.524 38.5733 554.084 39.96C552.698 41.2933 550.831 41.96 548.484 41.96ZM587.667 91.64C582.76 91.64 578.44 90.68 574.707 88.76C571.027 86.84 568.174 84.2267 566.147 80.92C564.12 77.56 563.107 73.7467 563.107 69.48C563.107 65.16 564.094 61.3467 566.067 58.04C568.094 54.68 570.84 52.0667 574.307 50.2C577.774 48.28 581.694 47.32 586.067 47.32C590.28 47.32 594.067 48.2267 597.427 50.04C600.84 51.8 603.534 54.36 605.507 57.72C607.48 61.0267 608.467 65 608.467 69.64C608.467 70.12 608.44 70.68 608.387 71.32C608.334 71.9067 608.28 72.4667 608.227 73H573.267V65.72H601.667L596.867 67.88C596.867 65.64 596.414 63.6933 595.507 62.04C594.6 60.3867 593.347 59.1067 591.747 58.2C590.147 57.24 588.28 56.76 586.147 56.76C584.014 56.76 582.12 57.24 580.467 58.2C578.867 59.1067 577.614 60.4133 576.707 62.12C575.8 63.7733 575.347 65.7467 575.347 68.04V69.96C575.347 72.3067 575.854 74.3867 576.867 76.2C577.934 77.96 579.4 79.32 581.267 80.28C583.187 81.1867 585.427 81.64 587.987 81.64C590.28 81.64 592.28 81.2933 593.987 80.6C595.747 79.9067 597.347 78.8667 598.787 77.48L605.427 84.68C603.454 86.92 600.974 88.6533 597.987 89.88C595 91.0533 591.56 91.64 587.667 91.64ZM642.936 47.32C646.349 47.32 649.389 48.0133 652.056 49.4C654.776 50.7333 656.909 52.8133 658.456 55.64C660.002 58.4133 660.776 61.9867 660.776 66.36V91H648.296V68.28C648.296 64.8133 647.522 62.2533 645.976 60.6C644.482 58.9467 642.349 58.12 639.576 58.12C637.602 58.12 635.816 58.5467 634.216 59.4C632.669 60.2 631.442 61.4533 630.536 63.16C629.682 64.8667 629.256 67.0533 629.256 69.72V91H616.776V47.96H628.696V59.88L626.456 56.28C628.002 53.4 630.216 51.1867 633.096 49.64C635.976 48.0933 639.256 47.32 642.936 47.32ZM689.688 91.64C684.621 91.64 680.675 90.36 677.848 87.8C675.021 85.1867 673.608 81.32 673.608 76.2V38.44H686.088V76.04C686.088 77.8533 686.568 79.2667 687.528 80.28C688.488 81.24 689.795 81.72 691.448 81.72C693.421 81.72 695.101 81.1867 696.488 80.12L699.848 88.92C698.568 89.8267 697.021 90.52 695.208 91C693.448 91.4267 691.608 91.64 689.688 91.64ZM666.968 58.52V48.92H696.808V58.52H666.968Z" fill="#0076A5"/>
<defs>
<linearGradient id="paint0_linear_806_7333" x1="65.4128" y1="79.6847" x2="17.2207" y2="31.4925" gradientUnits="userSpaceOnUse">
<stop stop-color="#11687C"/>
<stop offset="1" stop-color="#1485A3"/>
</linearGradient>
<linearGradient id="paint1_linear_806_7333" x1="38.6189" y1="126.01" x2="38.6189" y2="29.0718" gradientUnits="userSpaceOnUse">
<stop stop-color="#3BC9F8"/>
<stop offset="1" stop-color="#18849F"/>
</linearGradient>
<linearGradient id="paint2_linear_806_7333" x1="29.0664" y1="87.3718" x2="126.005" y2="87.3718" gradientUnits="userSpaceOnUse">
<stop stop-color="#11687C"/>
<stop offset="1" stop-color="#1485A3"/>
</linearGradient>
<linearGradient id="paint3_linear_806_7333" x1="87.3663" y1="96.9252" x2="87.3663" y2="-0.0134338" gradientUnits="userSpaceOnUse">
<stop stop-color="#1D96B2"/>
<stop offset="0.303" stop-color="#32AECB"/>
<stop offset="0.7522" stop-color="#4DCCEC"/>
<stop offset="1" stop-color="#57D8F8"/>
</linearGradient>
<linearGradient id="paint4_linear_806_7333" x1="87.3663" y1="48.7331" x2="87.3663" y2="-0.0134351" gradientUnits="userSpaceOnUse">
<stop stop-color="#18849F" stop-opacity="0"/>
<stop offset="0.1206" stop-color="#2795AC" stop-opacity="0.1206"/>
<stop offset="0.5266" stop-color="#57C9D5" stop-opacity="0.5266"/>
<stop offset="0.8322" stop-color="#74EAEE" stop-opacity="0.8322"/>
<stop offset="1" stop-color="#7FF6F8"/>
</linearGradient>
<radialGradient id="paint5_radial_806_7333" cx="0" cy="0" r="1" gradientUnits="userSpaceOnUse" gradientTransform="translate(75.6919 43.9333) rotate(-69.7947) scale(31.8673 36.6238)">
<stop offset="0.0114138" stop-color="white" stop-opacity="0"/>
<stop offset="0.9007"/>
</radialGradient>
<radialGradient id="paint6_radial_806_7333" cx="0" cy="0" r="1" gradientUnits="userSpaceOnUse" gradientTransform="translate(50.2918 82.0682) rotate(110.205) scale(31.8673 36.6238)">
<stop offset="0.0114138" stop-color="white" stop-opacity="0"/>
<stop offset="0.9007"/>
</radialGradient>
<radialGradient id="paint7_radial_806_7333" cx="0" cy="0" r="1" gradientUnits="userSpaceOnUse" gradientTransform="translate(43.9297 50.3023) rotate(-159.795) scale(31.8673 36.6238)">
<stop offset="0.0114138" stop-color="white" stop-opacity="0"/>
<stop offset="0.9007"/>
</radialGradient>
<radialGradient id="paint8_radial_806_7333" cx="0" cy="0" r="1" gradientUnits="userSpaceOnUse" gradientTransform="translate(82.0592 75.6971) rotate(20.2053) scale(31.8673 36.6238)">
<stop offset="0.0114138" stop-color="white" stop-opacity="0"/>
<stop offset="0.9007"/>
</radialGradient>
</defs>
</svg>
