<svg width="435" height="379" viewBox="0 0 435 379" fill="none" xmlns="http://www.w3.org/2000/svg">
<path d="M181.759 0L59.93 121.829V193.195L180.374 72.7512L265.25 157.512L302.319 120.444L181.759 0Z" fill="url(#paint0_linear_966_35684)"/>
<path d="M253.125 315.14L132.681 194.581L217.442 109.82L180.374 72.7513L59.93 193.195L181.76 315.14H253.125Z" fill="url(#paint1_linear_966_35684)"/>
<path d="M375.07 121.829L254.511 242.389L169.75 157.512L132.681 194.581L253.125 315.14L375.07 193.195V121.829Z" fill="url(#paint2_linear_966_35684)"/>
<path d="M253.125 0H181.759L302.319 120.444L217.442 205.32L254.511 242.389L375.07 121.829L253.125 0Z" fill="url(#paint3_linear_966_35684)"/>
<path d="M181.759 0L302.319 120.444L375.07 121.829L253.125 0H181.759Z" fill="url(#paint4_linear_966_35684)"/>
<path d="M302.319 120.444L265.25 157.512L251.393 143.655C251.393 143.77 264.788 158.321 302.319 120.444Z" fill="url(#paint5_radial_966_35684)"/>
<path d="M132.681 194.696L169.75 157.628L183.607 171.485C183.492 171.37 170.212 156.819 132.681 194.696Z" fill="url(#paint6_radial_966_35684)"/>
<path opacity="0.17" d="M180.374 72.7513L217.442 109.82L203.585 123.677C203.7 123.677 218.135 110.282 180.374 72.7513Z" fill="url(#paint7_radial_966_35684)"/>
<path opacity="0.17" d="M254.511 242.389L217.442 205.32L231.3 191.463C231.3 191.578 216.749 204.858 254.511 242.389Z" fill="url(#paint8_radial_966_35684)"/>
<path d="M14.3704 378.048V342.248H0.252112V333.929H38.6992V342.248H24.5809V378.048H14.3704ZM42.761 378.048V344.139H52.1522V353.719L50.8286 350.946C51.8371 348.551 53.4548 346.744 55.6818 345.526C57.9088 344.265 60.619 343.635 63.8124 343.635V352.711C63.3922 352.669 63.014 352.648 62.6779 352.648C62.3417 352.606 61.9846 352.585 61.6064 352.585C58.9172 352.585 56.7322 353.362 55.0515 354.917C53.4128 356.43 52.5934 358.804 52.5934 362.039V378.048H42.761ZM84.2123 378.553C81.397 378.553 78.8759 378.006 76.6489 376.914C74.464 375.821 72.7622 374.162 71.5437 371.935C70.3251 369.666 69.7158 366.787 69.7158 363.3V344.139H79.5482V361.85C79.5482 364.665 80.1365 366.745 81.313 368.09C82.5315 369.392 84.2333 370.044 86.4183 370.044C87.9309 370.044 89.2755 369.729 90.4521 369.098C91.6286 368.426 92.553 367.418 93.2253 366.073C93.8976 364.686 94.2337 362.964 94.2337 360.905V344.139H104.066V378.048H94.738V368.72L96.4397 371.43C95.3052 373.783 93.6245 375.569 91.3975 376.788C89.2125 377.964 86.8174 378.553 84.2123 378.553ZM130.004 378.553C126.138 378.553 122.734 377.796 119.793 376.283C116.894 374.771 114.646 372.712 113.049 370.107C111.452 367.46 110.654 364.455 110.654 361.094C110.654 357.69 111.431 354.686 112.986 352.081C114.583 349.434 116.747 347.375 119.478 345.904C122.209 344.391 125.298 343.635 128.743 343.635C132.063 343.635 135.046 344.349 137.693 345.778C140.382 347.165 142.504 349.181 144.059 351.829C145.614 354.434 146.391 357.564 146.391 361.22C146.391 361.598 146.37 362.039 146.328 362.543C146.286 363.006 146.244 363.447 146.202 363.867H118.659V358.131H141.033L137.252 359.833C137.252 358.068 136.895 356.535 136.18 355.232C135.466 353.93 134.479 352.921 133.218 352.207C131.957 351.45 130.487 351.072 128.806 351.072C127.125 351.072 125.634 351.45 124.331 352.207C123.071 352.921 122.083 353.951 121.369 355.295C120.654 356.598 120.297 358.152 120.297 359.959V361.472C120.297 363.321 120.696 364.959 121.495 366.388C122.335 367.775 123.491 368.846 124.961 369.603C126.474 370.317 128.239 370.674 130.256 370.674C132.063 370.674 133.638 370.401 134.983 369.855C136.369 369.308 137.63 368.489 138.764 367.397L143.996 373.069C142.441 374.834 140.487 376.199 138.134 377.166C135.781 378.09 133.071 378.553 130.004 378.553Z" fill="#0066CB"/>
<path d="M174.934 378.805C171.446 378.805 168.232 378.258 165.29 377.166C162.391 376.031 159.849 374.435 157.664 372.376C155.521 370.317 153.84 367.901 152.622 365.128C151.445 362.354 150.857 359.308 150.857 355.988C150.857 352.669 151.445 349.623 152.622 346.849C153.84 344.076 155.542 341.66 157.727 339.601C159.912 337.542 162.475 335.967 165.416 334.874C168.358 333.74 171.593 333.172 175.123 333.172C179.031 333.172 182.539 333.824 185.648 335.126C188.8 336.429 191.447 338.32 193.59 340.799L187.035 346.849C185.438 345.169 183.695 343.929 181.804 343.131C179.913 342.29 177.854 341.87 175.627 341.87C173.484 341.87 171.53 342.206 169.765 342.879C168.001 343.551 166.467 344.517 165.164 345.778C163.904 347.039 162.916 348.53 162.202 350.253C161.53 351.976 161.194 353.888 161.194 355.988C161.194 358.047 161.53 359.938 162.202 361.661C162.916 363.384 163.904 364.896 165.164 366.199C166.467 367.46 167.98 368.426 169.702 369.098C171.467 369.771 173.4 370.107 175.501 370.107C177.518 370.107 179.472 369.792 181.363 369.161C183.295 368.489 185.165 367.376 186.972 365.821L192.771 373.195C190.376 375.002 187.581 376.389 184.388 377.355C181.236 378.321 178.085 378.805 174.934 378.805ZM183.442 371.872V355.295H192.771V373.195L183.442 371.872ZM201.562 378.048V344.139H210.953V353.719L209.63 350.946C210.638 348.551 212.256 346.744 214.483 345.526C216.71 344.265 219.42 343.635 222.613 343.635V352.711C222.193 352.669 221.815 352.648 221.479 352.648C221.143 352.606 220.786 352.585 220.407 352.585C217.718 352.585 215.533 353.362 213.852 354.917C212.214 356.43 211.394 358.804 211.394 362.039V378.048H201.562ZM247.043 378.048V371.43L246.413 369.981V358.131C246.413 356.031 245.762 354.392 244.459 353.215C243.198 352.039 241.245 351.45 238.597 351.45C236.791 351.45 235.005 351.745 233.24 352.333C231.517 352.879 230.047 353.635 228.828 354.602L225.298 347.732C227.147 346.429 229.374 345.421 231.979 344.706C234.585 343.992 237.232 343.635 239.921 343.635C245.089 343.635 249.102 344.854 251.959 347.291C254.817 349.728 256.245 353.53 256.245 358.699V378.048H247.043ZM236.707 378.553C234.059 378.553 231.79 378.111 229.9 377.229C228.009 376.305 226.559 375.065 225.551 373.51C224.542 371.956 224.038 370.212 224.038 368.279C224.038 366.262 224.521 364.497 225.488 362.985C226.496 361.472 228.072 360.295 230.215 359.455C232.358 358.573 235.152 358.131 238.597 358.131H247.61V363.867H239.669C237.358 363.867 235.761 364.245 234.879 365.001C234.038 365.758 233.618 366.703 233.618 367.838C233.618 369.098 234.101 370.107 235.068 370.863C236.076 371.577 237.442 371.935 239.165 371.935C240.803 371.935 242.274 371.556 243.577 370.8C244.879 370.002 245.825 368.846 246.413 367.334L247.926 371.872C247.211 374.057 245.909 375.716 244.018 376.851C242.127 377.985 239.69 378.553 236.707 378.553ZM279.95 378.553C276.756 378.553 273.878 377.838 271.315 376.41C268.752 374.939 266.714 372.901 265.201 370.296C263.73 367.691 262.995 364.623 262.995 361.094C262.995 357.522 263.73 354.434 265.201 351.829C266.714 349.223 268.752 347.207 271.315 345.778C273.878 344.349 276.756 343.635 279.95 343.635C282.807 343.635 285.307 344.265 287.45 345.526C289.593 346.786 291.253 348.698 292.429 351.261C293.606 353.825 294.194 357.102 294.194 361.094C294.194 365.044 293.627 368.321 292.492 370.926C291.358 373.489 289.719 375.401 287.576 376.662C285.475 377.922 282.933 378.553 279.95 378.553ZM281.651 370.485C283.248 370.485 284.698 370.107 286 369.35C287.303 368.594 288.332 367.523 289.089 366.136C289.887 364.707 290.286 363.027 290.286 361.094C290.286 359.119 289.887 357.438 289.089 356.052C288.332 354.665 287.303 353.593 286 352.837C284.698 352.081 283.248 351.703 281.651 351.703C280.013 351.703 278.542 352.081 277.239 352.837C275.937 353.593 274.886 354.665 274.088 356.052C273.332 357.438 272.954 359.119 272.954 361.094C272.954 363.027 273.332 364.707 274.088 366.136C274.886 367.523 275.937 368.594 277.239 369.35C278.542 370.107 280.013 370.485 281.651 370.485ZM290.538 378.048V371.115L290.727 361.031L290.097 351.009V331.282H299.93V378.048H290.538ZM309.03 378.048V344.139H318.862V378.048H309.03ZM313.946 339.412C312.139 339.412 310.668 338.887 309.534 337.836C308.399 336.786 307.832 335.483 307.832 333.929C307.832 332.374 308.399 331.071 309.534 330.021C310.668 328.97 312.139 328.445 313.946 328.445C315.753 328.445 317.223 328.949 318.358 329.958C319.492 330.924 320.06 332.185 320.06 333.74C320.06 335.378 319.492 336.744 318.358 337.836C317.265 338.887 315.795 339.412 313.946 339.412ZM344.816 378.553C340.95 378.553 337.547 377.796 334.605 376.283C331.706 374.771 329.458 372.712 327.861 370.107C326.265 367.46 325.466 364.455 325.466 361.094C325.466 357.69 326.244 354.686 327.798 352.081C329.395 349.434 331.559 347.375 334.29 345.904C337.021 344.391 340.11 343.635 343.555 343.635C346.875 343.635 349.858 344.349 352.505 345.778C355.194 347.165 357.316 349.181 358.871 351.829C360.426 354.434 361.203 357.564 361.203 361.22C361.203 361.598 361.182 362.039 361.14 362.543C361.098 363.006 361.056 363.447 361.014 363.867H333.471V358.131H355.846L352.064 359.833C352.064 358.068 351.707 356.535 350.993 355.232C350.278 353.93 349.291 352.921 348.03 352.207C346.77 351.45 345.299 351.072 343.618 351.072C341.937 351.072 340.446 351.45 339.143 352.207C337.883 352.921 336.895 353.951 336.181 355.295C335.467 356.598 335.109 358.152 335.109 359.959V361.472C335.109 363.321 335.509 364.959 336.307 366.388C337.147 367.775 338.303 368.846 339.774 369.603C341.286 370.317 343.051 370.674 345.068 370.674C346.875 370.674 348.45 370.401 349.795 369.855C351.182 369.308 352.442 368.489 353.577 367.397L358.808 373.069C357.253 374.834 355.299 376.199 352.946 377.166C350.593 378.09 347.883 378.553 344.816 378.553ZM388.359 343.635C391.048 343.635 393.444 344.181 395.544 345.274C397.687 346.324 399.368 347.963 400.587 350.19C401.805 352.375 402.415 355.19 402.415 358.636V378.048H392.582V360.148C392.582 357.417 391.973 355.4 390.754 354.098C389.578 352.795 387.897 352.144 385.712 352.144C384.157 352.144 382.75 352.48 381.489 353.152C380.271 353.783 379.304 354.77 378.59 356.115C377.918 357.459 377.581 359.182 377.581 361.283V378.048H367.749V344.139H377.14V353.53L375.375 350.694C376.594 348.425 378.338 346.681 380.607 345.463C382.876 344.244 385.46 343.635 388.359 343.635ZM425.193 378.553C421.201 378.553 418.092 377.544 415.865 375.527C413.638 373.468 412.525 370.422 412.525 366.388V336.639H422.357V366.262C422.357 367.691 422.735 368.804 423.491 369.603C424.248 370.359 425.277 370.737 426.58 370.737C428.135 370.737 429.458 370.317 430.551 369.476L433.198 376.41C432.189 377.124 430.971 377.67 429.542 378.048C428.156 378.384 426.706 378.553 425.193 378.553ZM407.293 352.459V344.896H430.803V352.459H407.293Z" fill="#0076A5"/>
<defs>
<linearGradient id="paint0_linear_966_35684" x1="223.535" y1="199.3" x2="103.001" y2="78.7663" gradientUnits="userSpaceOnUse">
<stop stop-color="#11687C"/>
<stop offset="1" stop-color="#1485A3"/>
</linearGradient>
<linearGradient id="paint1_linear_966_35684" x1="156.52" y1="315.166" x2="156.52" y2="72.712" gradientUnits="userSpaceOnUse">
<stop stop-color="#3BC9F8"/>
<stop offset="1" stop-color="#18849F"/>
</linearGradient>
<linearGradient id="paint2_linear_966_35684" x1="132.628" y1="218.526" x2="375.083" y2="218.526" gradientUnits="userSpaceOnUse">
<stop stop-color="#11687C"/>
<stop offset="1" stop-color="#1485A3"/>
</linearGradient>
<linearGradient id="paint3_linear_966_35684" x1="278.443" y1="242.421" x2="278.443" y2="-0.0335995" gradientUnits="userSpaceOnUse">
<stop stop-color="#1D96B2"/>
<stop offset="0.303" stop-color="#32AECB"/>
<stop offset="0.7522" stop-color="#4DCCEC"/>
<stop offset="1" stop-color="#57D8F8"/>
</linearGradient>
<linearGradient id="paint4_linear_966_35684" x1="278.443" y1="121.887" x2="278.443" y2="-0.0336027" gradientUnits="userSpaceOnUse">
<stop stop-color="#18849F" stop-opacity="0"/>
<stop offset="0.1206" stop-color="#2795AC" stop-opacity="0.1206"/>
<stop offset="0.5266" stop-color="#57C9D5" stop-opacity="0.5266"/>
<stop offset="0.8322" stop-color="#74EAEE" stop-opacity="0.8322"/>
<stop offset="1" stop-color="#7FF6F8"/>
</linearGradient>
<radialGradient id="paint5_radial_966_35684" cx="0" cy="0" r="1" gradientUnits="userSpaceOnUse" gradientTransform="translate(249.244 109.882) rotate(-69.7947) scale(79.7037 91.6002)">
<stop offset="0.0114138" stop-color="white" stop-opacity="0"/>
<stop offset="0.9007"/>
</radialGradient>
<radialGradient id="paint6_radial_966_35684" cx="0" cy="0" r="1" gradientUnits="userSpaceOnUse" gradientTransform="translate(185.715 205.262) rotate(110.205) scale(79.7037 91.6002)">
<stop offset="0.0114138" stop-color="white" stop-opacity="0"/>
<stop offset="0.9007"/>
</radialGradient>
<radialGradient id="paint7_radial_966_35684" cx="0" cy="0" r="1" gradientUnits="userSpaceOnUse" gradientTransform="translate(169.803 125.812) rotate(-159.795) scale(79.7037 91.6002)">
<stop offset="0.0114138" stop-color="white" stop-opacity="0"/>
<stop offset="0.9007"/>
</radialGradient>
<radialGradient id="paint8_radial_966_35684" cx="0" cy="0" r="1" gradientUnits="userSpaceOnUse" gradientTransform="translate(265.169 189.327) rotate(20.2053) scale(79.7037 91.6002)">
<stop offset="0.0114138" stop-color="white" stop-opacity="0"/>
<stop offset="0.9007"/>
</radialGradient>
</defs>
</svg>
