<svg width="61" height="61" viewBox="0 0 61 61" fill="none" xmlns="http://www.w3.org/2000/svg">
<path d="M23.6953 0.50061L0.5 23.6959V37.2833L23.4315 14.3518L39.5912 30.4896L46.6488 23.4321L23.6953 0.50061Z" fill="url(#paint0_linear_752_7044)"/>
<path d="M37.2827 60.5006L14.3512 37.5471L30.489 21.4093L23.4315 14.3518L0.5 37.2833L23.6953 60.5006H37.2827Z" fill="url(#paint1_linear_752_7044)"/>
<path d="M60.5003 23.6959L37.5469 46.6494L21.4091 30.4896L14.3516 37.5471L37.283 60.5006L60.5003 37.2833V23.6959Z" fill="url(#paint2_linear_752_7044)"/>
<path d="M37.2827 0.50061H23.6953L46.6488 23.4321L30.489 39.5918L37.5465 46.6494L60.5 23.6959L37.2827 0.50061Z" fill="url(#paint3_linear_752_7044)"/>
<path d="M23.6953 0.50061L46.6488 23.4321L60.5 23.6959L37.2827 0.50061H23.6953Z" fill="url(#paint4_linear_752_7044)"/>
<path d="M46.649 23.4321L39.5915 30.4897L36.9531 27.8513C36.9531 27.8733 39.5035 30.6436 46.649 23.4321Z" fill="url(#paint5_radial_752_7044)"/>
<path d="M14.3516 37.5691L21.4091 30.5116L24.0474 33.1499C24.0254 33.1279 21.497 30.3577 14.3516 37.5691Z" fill="url(#paint6_radial_752_7044)"/>
<path opacity="0.17" d="M23.4316 14.3518L30.4892 21.4093L27.8508 24.0477C27.8728 24.0477 30.6211 21.4973 23.4316 14.3518Z" fill="url(#paint7_radial_752_7044)"/>
<path opacity="0.17" d="M37.5468 46.6494L30.4893 39.5918L33.1276 36.9535C33.1276 36.9755 30.3573 39.5039 37.5468 46.6494Z" fill="url(#paint8_radial_752_7044)"/>
<defs>
<linearGradient id="paint0_linear_752_7044" x1="31.649" y1="38.4457" x2="8.70034" y2="15.497" gradientUnits="userSpaceOnUse">
<stop stop-color="#11687C"/>
<stop offset="1" stop-color="#1485A3"/>
</linearGradient>
<linearGradient id="paint1_linear_752_7044" x1="18.8899" y1="60.5055" x2="18.8899" y2="14.3443" gradientUnits="userSpaceOnUse">
<stop stop-color="#3BC9F8"/>
<stop offset="1" stop-color="#18849F"/>
</linearGradient>
<linearGradient id="paint2_linear_752_7044" x1="14.3415" y1="42.1062" x2="60.5027" y2="42.1062" gradientUnits="userSpaceOnUse">
<stop stop-color="#11687C"/>
<stop offset="1" stop-color="#1485A3"/>
</linearGradient>
<linearGradient id="paint3_linear_752_7044" x1="42.103" y1="46.6555" x2="42.103" y2="0.494213" gradientUnits="userSpaceOnUse">
<stop stop-color="#1D96B2"/>
<stop offset="0.303" stop-color="#32AECB"/>
<stop offset="0.7522" stop-color="#4DCCEC"/>
<stop offset="1" stop-color="#57D8F8"/>
</linearGradient>
<linearGradient id="paint4_linear_752_7044" x1="42.103" y1="23.7068" x2="42.103" y2="0.494213" gradientUnits="userSpaceOnUse">
<stop stop-color="#18849F" stop-opacity="0"/>
<stop offset="0.1206" stop-color="#2795AC" stop-opacity="0.1206"/>
<stop offset="0.5266" stop-color="#57C9D5" stop-opacity="0.5266"/>
<stop offset="0.8322" stop-color="#74EAEE" stop-opacity="0.8322"/>
<stop offset="1" stop-color="#7FF6F8"/>
</linearGradient>
<radialGradient id="paint5_radial_752_7044" cx="0" cy="0" r="1" gradientUnits="userSpaceOnUse" gradientTransform="translate(36.544 21.4213) rotate(-69.7947) scale(15.1749 17.4399)">
<stop offset="0.0114138" stop-color="white" stop-opacity="0"/>
<stop offset="0.9007"/>
</radialGradient>
<radialGradient id="paint6_radial_752_7044" cx="0" cy="0" r="1" gradientUnits="userSpaceOnUse" gradientTransform="translate(24.4488 39.5807) rotate(110.205) scale(15.1749 17.4399)">
<stop offset="0.0114138" stop-color="white" stop-opacity="0"/>
<stop offset="0.9007"/>
</radialGradient>
<radialGradient id="paint7_radial_752_7044" cx="0" cy="0" r="1" gradientUnits="userSpaceOnUse" gradientTransform="translate(21.4191 24.4541) rotate(-159.795) scale(15.1749 17.4399)">
<stop offset="0.0114138" stop-color="white" stop-opacity="0"/>
<stop offset="0.9007"/>
</radialGradient>
<radialGradient id="paint8_radial_752_7044" cx="0" cy="0" r="1" gradientUnits="userSpaceOnUse" gradientTransform="translate(39.5761 36.5468) rotate(20.2053) scale(15.1749 17.4399)">
<stop offset="0.0114138" stop-color="white" stop-opacity="0"/>
<stop offset="0.9007"/>
</radialGradient>
</defs>
</svg>
