<svg width="1000" height="200" viewBox="0 0 1000 200" fill="none" xmlns="http://www.w3.org/2000/svg">
<rect width="1000" height="200" fill="#222222"/>
<path d="M186.71 36L138 84.7102V113.244L186.156 65.0876L220.092 98.9769L234.912 84.1561L186.71 36Z" fill="url(#paint0_linear_800_6600)"/>
<path d="M215.244 162L167.088 113.798L200.977 79.9083L186.156 65.0875L138 113.244L186.71 162H215.244Z" fill="url(#paint1_linear_800_6600)"/>
<path d="M264 84.7102L215.798 132.912L181.908 98.977L167.088 113.798L215.244 162L264 113.244V84.7102Z" fill="url(#paint2_linear_800_6600)"/>
<path d="M215.244 36H186.71L234.912 84.1561L200.977 118.092L215.798 132.912L264 84.7102L215.244 36Z" fill="url(#paint3_linear_800_6600)"/>
<path d="M186.71 36L234.912 84.1561L264 84.7102L215.244 36H186.71Z" fill="url(#paint4_linear_800_6600)"/>
<path d="M234.912 84.1561L220.092 98.9769L214.551 93.4365C214.551 93.4826 219.907 99.3001 234.912 84.1561Z" fill="url(#paint5_radial_800_6600)"/>
<path d="M167.088 113.844L181.908 99.0231L187.449 104.564C187.403 104.517 182.093 98.6999 167.088 113.844Z" fill="url(#paint6_radial_800_6600)"/>
<path opacity="0.17" d="M186.156 65.0875L200.977 79.9083L195.436 85.4488C195.483 85.4488 201.254 80.093 186.156 65.0875Z" fill="url(#paint7_radial_800_6600)"/>
<path opacity="0.17" d="M215.798 132.912L200.977 118.092L206.517 112.551C206.517 112.597 200.7 117.907 215.798 132.912Z" fill="url(#paint8_radial_800_6600)"/>
<path d="M306.24 127V81.56H288.32V71H337.12V81.56H319.2V127H306.24ZM342.276 127V83.96H354.196V96.12L352.516 92.6C353.796 89.56 355.849 87.2667 358.676 85.72C361.502 84.12 364.942 83.32 368.996 83.32V94.84C368.462 94.7867 367.982 94.76 367.556 94.76C367.129 94.7067 366.676 94.68 366.196 94.68C362.782 94.68 360.009 95.6667 357.876 97.64C355.796 99.56 354.756 102.573 354.756 106.68V127H342.276ZM394.889 127.64C391.315 127.64 388.115 126.947 385.289 125.56C382.515 124.173 380.355 122.067 378.809 119.24C377.262 116.36 376.489 112.707 376.489 108.28V83.96H388.969V106.44C388.969 110.013 389.715 112.653 391.209 114.36C392.755 116.013 394.915 116.84 397.689 116.84C399.609 116.84 401.315 116.44 402.809 115.64C404.302 114.787 405.475 113.507 406.329 111.8C407.182 110.04 407.609 107.853 407.609 105.24V83.96H420.089V127H408.249V115.16L410.409 118.6C408.969 121.587 406.835 123.853 404.009 125.4C401.235 126.893 398.195 127.64 394.889 127.64ZM453.011 127.64C448.104 127.64 443.784 126.68 440.051 124.76C436.371 122.84 433.517 120.227 431.491 116.92C429.464 113.56 428.451 109.747 428.451 105.48C428.451 101.16 429.437 97.3467 431.411 94.04C433.437 90.68 436.184 88.0667 439.651 86.2C443.117 84.28 447.037 83.32 451.411 83.32C455.624 83.32 459.411 84.2267 462.771 86.04C466.184 87.8 468.877 90.36 470.851 93.72C472.824 97.0267 473.811 101 473.811 105.64C473.811 106.12 473.784 106.68 473.731 107.32C473.677 107.907 473.624 108.467 473.571 109H438.611V101.72H467.011L462.211 103.88C462.211 101.64 461.757 99.6933 460.851 98.04C459.944 96.3867 458.691 95.1067 457.091 94.2C455.491 93.24 453.624 92.76 451.491 92.76C449.357 92.76 447.464 93.24 445.811 94.2C444.211 95.1067 442.957 96.4133 442.051 98.12C441.144 99.7733 440.691 101.747 440.691 104.04V105.96C440.691 108.307 441.197 110.387 442.211 112.2C443.277 113.96 444.744 115.32 446.611 116.28C448.531 117.187 450.771 117.64 453.331 117.64C455.624 117.64 457.624 117.293 459.331 116.6C461.091 115.907 462.691 114.867 464.131 113.48L470.771 120.68C468.797 122.92 466.317 124.653 463.331 125.88C460.344 127.053 456.904 127.64 453.011 127.64Z" fill="#0066CB"/>
<path d="M510.039 127.96C505.613 127.96 501.533 127.267 497.799 125.88C494.119 124.44 490.893 122.413 488.119 119.8C485.399 117.187 483.266 114.12 481.719 110.6C480.226 107.08 479.479 103.213 479.479 99C479.479 94.7867 480.226 90.92 481.719 87.4C483.266 83.88 485.426 80.8133 488.199 78.2C490.973 75.5867 494.226 73.5867 497.959 72.2C501.693 70.76 505.799 70.04 510.279 70.04C515.239 70.04 519.693 70.8667 523.639 72.52C527.639 74.1733 530.999 76.5733 533.719 79.72L525.399 87.4C523.373 85.2667 521.159 83.6933 518.759 82.68C516.359 81.6133 513.746 81.08 510.919 81.08C508.199 81.08 505.719 81.5067 503.479 82.36C501.239 83.2133 499.293 84.44 497.639 86.04C496.039 87.64 494.786 89.5333 493.879 91.72C493.026 93.9067 492.599 96.3333 492.599 99C492.599 101.613 493.026 104.013 493.879 106.2C494.786 108.387 496.039 110.307 497.639 111.96C499.293 113.56 501.213 114.787 503.399 115.64C505.639 116.493 508.093 116.92 510.759 116.92C513.319 116.92 515.799 116.52 518.199 115.72C520.653 114.867 523.026 113.453 525.319 111.48L532.679 120.84C529.639 123.133 526.093 124.893 522.039 126.12C518.039 127.347 514.039 127.96 510.039 127.96ZM520.839 119.16V98.12H532.679V120.84L520.839 119.16ZM543.838 127V83.96H555.758V96.12L554.078 92.6C555.358 89.56 557.411 87.2667 560.238 85.72C563.065 84.12 566.505 83.32 570.558 83.32V94.84C570.025 94.7867 569.545 94.76 569.118 94.76C568.691 94.7067 568.238 94.68 567.758 94.68C564.345 94.68 561.571 95.6667 559.438 97.64C557.358 99.56 556.318 102.573 556.318 106.68V127H543.838ZM601.566 127V118.6L600.766 116.76V101.72C600.766 99.0533 599.94 96.9733 598.286 95.48C596.686 93.9867 594.206 93.24 590.846 93.24C588.553 93.24 586.286 93.6133 584.046 94.36C581.86 95.0533 579.993 96.0133 578.446 97.24L573.966 88.52C576.313 86.8667 579.14 85.5867 582.446 84.68C585.753 83.7733 589.113 83.32 592.526 83.32C599.086 83.32 604.18 84.8667 607.806 87.96C611.433 91.0533 613.246 95.88 613.246 102.44V127H601.566ZM588.446 127.64C585.086 127.64 582.206 127.08 579.806 125.96C577.406 124.787 575.566 123.213 574.286 121.24C573.006 119.267 572.366 117.053 572.366 114.6C572.366 112.04 572.98 109.8 574.206 107.88C575.486 105.96 577.486 104.467 580.206 103.4C582.926 102.28 586.473 101.72 590.846 101.72H602.286V109H592.206C589.273 109 587.246 109.48 586.126 110.44C585.06 111.4 584.526 112.6 584.526 114.04C584.526 115.64 585.14 116.92 586.366 117.88C587.646 118.787 589.38 119.24 591.566 119.24C593.646 119.24 595.513 118.76 597.166 117.8C598.82 116.787 600.02 115.32 600.766 113.4L602.686 119.16C601.78 121.933 600.126 124.04 597.726 125.48C595.326 126.92 592.233 127.64 588.446 127.64ZM643.334 127.64C639.28 127.64 635.627 126.733 632.374 124.92C629.12 123.053 626.534 120.467 624.614 117.16C622.747 113.853 621.814 109.96 621.814 105.48C621.814 100.947 622.747 97.0267 624.614 93.72C626.534 90.4133 629.12 87.8533 632.374 86.04C635.627 84.2267 639.28 83.32 643.334 83.32C646.96 83.32 650.134 84.12 652.854 85.72C655.574 87.32 657.68 89.7467 659.174 93C660.667 96.2533 661.414 100.413 661.414 105.48C661.414 110.493 660.694 114.653 659.254 117.96C657.814 121.213 655.734 123.64 653.014 125.24C650.347 126.84 647.12 127.64 643.334 127.64ZM645.494 117.4C647.52 117.4 649.36 116.92 651.014 115.96C652.667 115 653.974 113.64 654.934 111.88C655.947 110.067 656.454 107.933 656.454 105.48C656.454 102.973 655.947 100.84 654.934 99.08C653.974 97.32 652.667 95.96 651.014 95C649.36 94.04 647.52 93.56 645.494 93.56C643.414 93.56 641.547 94.04 639.894 95C638.24 95.96 636.907 97.32 635.894 99.08C634.934 100.84 634.454 102.973 634.454 105.48C634.454 107.933 634.934 110.067 635.894 111.88C636.907 113.64 638.24 115 639.894 115.96C641.547 116.92 643.414 117.4 645.494 117.4ZM656.774 127V118.2L657.014 105.4L656.214 92.68V67.64H668.694V127H656.774ZM680.244 127V83.96H692.724V127H680.244ZM686.484 77.96C684.191 77.96 682.324 77.2933 680.884 75.96C679.444 74.6267 678.724 72.9733 678.724 71C678.724 69.0267 679.444 67.3733 680.884 66.04C682.324 64.7067 684.191 64.04 686.484 64.04C688.778 64.04 690.644 64.68 692.084 65.96C693.524 67.1867 694.244 68.7867 694.244 70.76C694.244 72.84 693.524 74.5733 692.084 75.96C690.698 77.2933 688.831 77.96 686.484 77.96ZM725.667 127.64C720.76 127.64 716.44 126.68 712.707 124.76C709.027 122.84 706.174 120.227 704.147 116.92C702.12 113.56 701.107 109.747 701.107 105.48C701.107 101.16 702.094 97.3467 704.067 94.04C706.094 90.68 708.84 88.0667 712.307 86.2C715.774 84.28 719.694 83.32 724.067 83.32C728.28 83.32 732.067 84.2267 735.427 86.04C738.84 87.8 741.534 90.36 743.507 93.72C745.48 97.0267 746.467 101 746.467 105.64C746.467 106.12 746.44 106.68 746.387 107.32C746.334 107.907 746.28 108.467 746.227 109H711.267V101.72H739.667L734.867 103.88C734.867 101.64 734.414 99.6933 733.507 98.04C732.6 96.3867 731.347 95.1067 729.747 94.2C728.147 93.24 726.28 92.76 724.147 92.76C722.014 92.76 720.12 93.24 718.467 94.2C716.867 95.1067 715.614 96.4133 714.707 98.12C713.8 99.7733 713.347 101.747 713.347 104.04V105.96C713.347 108.307 713.854 110.387 714.867 112.2C715.934 113.96 717.4 115.32 719.267 116.28C721.187 117.187 723.427 117.64 725.987 117.64C728.28 117.64 730.28 117.293 731.987 116.6C733.747 115.907 735.347 114.867 736.787 113.48L743.427 120.68C741.454 122.92 738.974 124.653 735.987 125.88C733 127.053 729.56 127.64 725.667 127.64ZM780.936 83.32C784.349 83.32 787.389 84.0133 790.056 85.4C792.776 86.7333 794.909 88.8133 796.456 91.64C798.002 94.4133 798.776 97.9867 798.776 102.36V127H786.296V104.28C786.296 100.813 785.522 98.2533 783.976 96.6C782.482 94.9467 780.349 94.12 777.576 94.12C775.602 94.12 773.816 94.5467 772.216 95.4C770.669 96.2 769.442 97.4533 768.536 99.16C767.682 100.867 767.256 103.053 767.256 105.72V127H754.776V83.96H766.696V95.88L764.456 92.28C766.002 89.4 768.216 87.1867 771.096 85.64C773.976 84.0933 777.256 83.32 780.936 83.32ZM827.688 127.64C822.621 127.64 818.675 126.36 815.848 123.8C813.021 121.187 811.608 117.32 811.608 112.2V74.44H824.088V112.04C824.088 113.853 824.568 115.267 825.528 116.28C826.488 117.24 827.795 117.72 829.448 117.72C831.421 117.72 833.101 117.187 834.488 116.12L837.848 124.92C836.568 125.827 835.021 126.52 833.208 127C831.448 127.427 829.608 127.64 827.688 127.64ZM804.968 94.52V84.92H834.808V94.52H804.968Z" fill="#0076A5"/>
<defs>
<linearGradient id="paint0_linear_800_6600" x1="203.413" y1="115.685" x2="155.221" y2="67.4925" gradientUnits="userSpaceOnUse">
<stop stop-color="#11687C"/>
<stop offset="1" stop-color="#1485A3"/>
</linearGradient>
<linearGradient id="paint1_linear_800_6600" x1="176.619" y1="162.01" x2="176.619" y2="65.0718" gradientUnits="userSpaceOnUse">
<stop stop-color="#3BC9F8"/>
<stop offset="1" stop-color="#18849F"/>
</linearGradient>
<linearGradient id="paint2_linear_800_6600" x1="167.066" y1="123.372" x2="264.005" y2="123.372" gradientUnits="userSpaceOnUse">
<stop stop-color="#11687C"/>
<stop offset="1" stop-color="#1485A3"/>
</linearGradient>
<linearGradient id="paint3_linear_800_6600" x1="225.366" y1="132.925" x2="225.366" y2="35.9866" gradientUnits="userSpaceOnUse">
<stop stop-color="#1D96B2"/>
<stop offset="0.303" stop-color="#32AECB"/>
<stop offset="0.7522" stop-color="#4DCCEC"/>
<stop offset="1" stop-color="#57D8F8"/>
</linearGradient>
<linearGradient id="paint4_linear_800_6600" x1="225.366" y1="84.7331" x2="225.366" y2="35.9866" gradientUnits="userSpaceOnUse">
<stop stop-color="#18849F" stop-opacity="0"/>
<stop offset="0.1206" stop-color="#2795AC" stop-opacity="0.1206"/>
<stop offset="0.5266" stop-color="#57C9D5" stop-opacity="0.5266"/>
<stop offset="0.8322" stop-color="#74EAEE" stop-opacity="0.8322"/>
<stop offset="1" stop-color="#7FF6F8"/>
</linearGradient>
<radialGradient id="paint5_radial_800_6600" cx="0" cy="0" r="1" gradientUnits="userSpaceOnUse" gradientTransform="translate(213.692 79.9333) rotate(-69.7947) scale(31.8673 36.6238)">
<stop offset="0.0114138" stop-color="white" stop-opacity="0"/>
<stop offset="0.9007"/>
</radialGradient>
<radialGradient id="paint6_radial_800_6600" cx="0" cy="0" r="1" gradientUnits="userSpaceOnUse" gradientTransform="translate(188.292 118.068) rotate(110.205) scale(31.8673 36.6238)">
<stop offset="0.0114138" stop-color="white" stop-opacity="0"/>
<stop offset="0.9007"/>
</radialGradient>
<radialGradient id="paint7_radial_800_6600" cx="0" cy="0" r="1" gradientUnits="userSpaceOnUse" gradientTransform="translate(181.93 86.3023) rotate(-159.795) scale(31.8673 36.6238)">
<stop offset="0.0114138" stop-color="white" stop-opacity="0"/>
<stop offset="0.9007"/>
</radialGradient>
<radialGradient id="paint8_radial_800_6600" cx="0" cy="0" r="1" gradientUnits="userSpaceOnUse" gradientTransform="translate(220.059 111.697) rotate(20.2053) scale(31.8673 36.6238)">
<stop offset="0.0114138" stop-color="white" stop-opacity="0"/>
<stop offset="0.9007"/>
</radialGradient>
</defs>
</svg>
