<svg width="552" height="207" viewBox="0 0 552 207" fill="none" xmlns="http://www.w3.org/2000/svg">
<path d="M261.71 0L213 48.7102V77.2437L261.156 29.0876L295.092 62.9769L309.912 48.1561L261.71 0Z" fill="url(#paint0_linear_965_35627)"/>
<path d="M290.244 126L242.088 77.7977L275.977 43.9084L261.156 29.0876L213 77.2437L261.71 126H290.244Z" fill="url(#paint1_linear_965_35627)"/>
<path d="M339 48.7101L290.798 96.9124L256.908 62.9769L242.088 77.7977L290.244 126L339 77.2437V48.7101Z" fill="url(#paint2_linear_965_35627)"/>
<path d="M290.244 0H261.71L309.912 48.1561L275.977 82.0916L290.798 96.9124L339 48.7102L290.244 0Z" fill="url(#paint3_linear_965_35627)"/>
<path d="M261.71 0L309.912 48.1561L339 48.7102L290.244 0H261.71Z" fill="url(#paint4_linear_965_35627)"/>
<path d="M309.912 48.1561L295.092 62.9769L289.551 57.4365C289.551 57.4826 294.907 63.3001 309.912 48.1561Z" fill="url(#paint5_radial_965_35627)"/>
<path d="M242.088 77.8439L256.908 63.0231L262.449 68.5636C262.403 68.5174 257.093 62.6999 242.088 77.8439Z" fill="url(#paint6_radial_965_35627)"/>
<path opacity="0.17" d="M261.156 29.0876L275.977 43.9084L270.436 49.4489C270.483 49.4489 276.254 44.0931 261.156 29.0876Z" fill="url(#paint7_radial_965_35627)"/>
<path opacity="0.17" d="M290.798 96.9125L275.977 82.0916L281.517 76.5511C281.517 76.5973 275.7 81.907 290.798 96.9125Z" fill="url(#paint8_radial_965_35627)"/>
<path d="M18.24 206V160.56H0.32V150H49.12V160.56H31.2V206H18.24ZM54.2756 206V162.96H66.1956V175.12L64.5156 171.6C65.7956 168.56 67.849 166.267 70.6756 164.72C73.5023 163.12 76.9423 162.32 80.9956 162.32V173.84C80.4623 173.787 79.9823 173.76 79.5556 173.76C79.129 173.707 78.6756 173.68 78.1956 173.68C74.7823 173.68 72.009 174.667 69.8756 176.64C67.7956 178.56 66.7556 181.573 66.7556 185.68V206H54.2756ZM106.889 206.64C103.315 206.64 100.115 205.947 97.2888 204.56C94.5154 203.173 92.3554 201.067 90.8088 198.24C89.2621 195.36 88.4888 191.707 88.4888 187.28V162.96H100.969V185.44C100.969 189.013 101.715 191.653 103.209 193.36C104.755 195.013 106.915 195.84 109.689 195.84C111.609 195.84 113.315 195.44 114.809 194.64C116.302 193.787 117.475 192.507 118.329 190.8C119.182 189.04 119.609 186.853 119.609 184.24V162.96H132.089V206H120.249V194.16L122.409 197.6C120.969 200.587 118.835 202.853 116.009 204.4C113.235 205.893 110.195 206.64 106.889 206.64ZM165.011 206.64C160.104 206.64 155.784 205.68 152.051 203.76C148.371 201.84 145.517 199.227 143.491 195.92C141.464 192.56 140.451 188.747 140.451 184.48C140.451 180.16 141.437 176.347 143.411 173.04C145.437 169.68 148.184 167.067 151.651 165.2C155.117 163.28 159.037 162.32 163.411 162.32C167.624 162.32 171.411 163.227 174.771 165.04C178.184 166.8 180.877 169.36 182.851 172.72C184.824 176.027 185.811 180 185.811 184.64C185.811 185.12 185.784 185.68 185.731 186.32C185.677 186.907 185.624 187.467 185.571 188H150.611V180.72H179.011L174.211 182.88C174.211 180.64 173.757 178.693 172.851 177.04C171.944 175.387 170.691 174.107 169.091 173.2C167.491 172.24 165.624 171.76 163.491 171.76C161.357 171.76 159.464 172.24 157.811 173.2C156.211 174.107 154.957 175.413 154.051 177.12C153.144 178.773 152.691 180.747 152.691 183.04V184.96C152.691 187.307 153.197 189.387 154.211 191.2C155.277 192.96 156.744 194.32 158.611 195.28C160.531 196.187 162.771 196.64 165.331 196.64C167.624 196.64 169.624 196.293 171.331 195.6C173.091 194.907 174.691 193.867 176.131 192.48L182.771 199.68C180.797 201.92 178.317 203.653 175.331 204.88C172.344 206.053 168.904 206.64 165.011 206.64Z" fill="#0066CB"/>
<path d="M222.039 206.96C217.613 206.96 213.533 206.267 209.799 204.88C206.119 203.44 202.893 201.413 200.119 198.8C197.399 196.187 195.266 193.12 193.719 189.6C192.226 186.08 191.479 182.213 191.479 178C191.479 173.787 192.226 169.92 193.719 166.4C195.266 162.88 197.426 159.813 200.199 157.2C202.973 154.587 206.226 152.587 209.959 151.2C213.693 149.76 217.799 149.04 222.279 149.04C227.239 149.04 231.693 149.867 235.639 151.52C239.639 153.173 242.999 155.573 245.719 158.72L237.399 166.4C235.373 164.267 233.159 162.693 230.759 161.68C228.359 160.613 225.746 160.08 222.919 160.08C220.199 160.08 217.719 160.507 215.479 161.36C213.239 162.213 211.293 163.44 209.639 165.04C208.039 166.64 206.786 168.533 205.879 170.72C205.026 172.907 204.599 175.333 204.599 178C204.599 180.613 205.026 183.013 205.879 185.2C206.786 187.387 208.039 189.307 209.639 190.96C211.293 192.56 213.213 193.787 215.399 194.64C217.639 195.493 220.093 195.92 222.759 195.92C225.319 195.92 227.799 195.52 230.199 194.72C232.653 193.867 235.026 192.453 237.319 190.48L244.679 199.84C241.639 202.133 238.093 203.893 234.039 205.12C230.039 206.347 226.039 206.96 222.039 206.96ZM232.839 198.16V177.12H244.679V199.84L232.839 198.16ZM255.838 206V162.96H267.758V175.12L266.078 171.6C267.358 168.56 269.411 166.267 272.238 164.72C275.065 163.12 278.505 162.32 282.558 162.32V173.84C282.025 173.787 281.545 173.76 281.118 173.76C280.691 173.707 280.238 173.68 279.758 173.68C276.345 173.68 273.571 174.667 271.438 176.64C269.358 178.56 268.318 181.573 268.318 185.68V206H255.838ZM313.566 206V197.6L312.766 195.76V180.72C312.766 178.053 311.94 175.973 310.286 174.48C308.686 172.987 306.206 172.24 302.846 172.24C300.553 172.24 298.286 172.613 296.046 173.36C293.86 174.053 291.993 175.013 290.446 176.24L285.966 167.52C288.313 165.867 291.14 164.587 294.446 163.68C297.753 162.773 301.113 162.32 304.526 162.32C311.086 162.32 316.18 163.867 319.806 166.96C323.433 170.053 325.246 174.88 325.246 181.44V206H313.566ZM300.446 206.64C297.086 206.64 294.206 206.08 291.806 204.96C289.406 203.787 287.566 202.213 286.286 200.24C285.006 198.267 284.366 196.053 284.366 193.6C284.366 191.04 284.98 188.8 286.206 186.88C287.486 184.96 289.486 183.467 292.206 182.4C294.926 181.28 298.473 180.72 302.846 180.72H314.286V188H304.206C301.273 188 299.246 188.48 298.126 189.44C297.06 190.4 296.526 191.6 296.526 193.04C296.526 194.64 297.14 195.92 298.366 196.88C299.646 197.787 301.38 198.24 303.566 198.24C305.646 198.24 307.513 197.76 309.166 196.8C310.82 195.787 312.02 194.32 312.766 192.4L314.686 198.16C313.78 200.933 312.126 203.04 309.726 204.48C307.326 205.92 304.233 206.64 300.446 206.64ZM355.334 206.64C351.28 206.64 347.627 205.733 344.374 203.92C341.12 202.053 338.534 199.467 336.614 196.16C334.747 192.853 333.814 188.96 333.814 184.48C333.814 179.947 334.747 176.027 336.614 172.72C338.534 169.413 341.12 166.853 344.374 165.04C347.627 163.227 351.28 162.32 355.334 162.32C358.96 162.32 362.134 163.12 364.854 164.72C367.574 166.32 369.68 168.747 371.174 172C372.667 175.253 373.414 179.413 373.414 184.48C373.414 189.493 372.694 193.653 371.254 196.96C369.814 200.213 367.734 202.64 365.014 204.24C362.347 205.84 359.12 206.64 355.334 206.64ZM357.494 196.4C359.52 196.4 361.36 195.92 363.014 194.96C364.667 194 365.974 192.64 366.934 190.88C367.947 189.067 368.454 186.933 368.454 184.48C368.454 181.973 367.947 179.84 366.934 178.08C365.974 176.32 364.667 174.96 363.014 174C361.36 173.04 359.52 172.56 357.494 172.56C355.414 172.56 353.547 173.04 351.894 174C350.24 174.96 348.907 176.32 347.894 178.08C346.934 179.84 346.454 181.973 346.454 184.48C346.454 186.933 346.934 189.067 347.894 190.88C348.907 192.64 350.24 194 351.894 194.96C353.547 195.92 355.414 196.4 357.494 196.4ZM368.774 206V197.2L369.014 184.4L368.214 171.68V146.64H380.694V206H368.774ZM392.244 206V162.96H404.724V206H392.244ZM398.484 156.96C396.191 156.96 394.324 156.293 392.884 154.96C391.444 153.627 390.724 151.973 390.724 150C390.724 148.027 391.444 146.373 392.884 145.04C394.324 143.707 396.191 143.04 398.484 143.04C400.778 143.04 402.644 143.68 404.084 144.96C405.524 146.187 406.244 147.787 406.244 149.76C406.244 151.84 405.524 153.573 404.084 154.96C402.698 156.293 400.831 156.96 398.484 156.96ZM437.667 206.64C432.76 206.64 428.44 205.68 424.707 203.76C421.027 201.84 418.174 199.227 416.147 195.92C414.12 192.56 413.107 188.747 413.107 184.48C413.107 180.16 414.094 176.347 416.067 173.04C418.094 169.68 420.84 167.067 424.307 165.2C427.774 163.28 431.694 162.32 436.067 162.32C440.28 162.32 444.067 163.227 447.427 165.04C450.84 166.8 453.534 169.36 455.507 172.72C457.48 176.027 458.467 180 458.467 184.64C458.467 185.12 458.44 185.68 458.387 186.32C458.334 186.907 458.28 187.467 458.227 188H423.267V180.72H451.667L446.867 182.88C446.867 180.64 446.414 178.693 445.507 177.04C444.6 175.387 443.347 174.107 441.747 173.2C440.147 172.24 438.28 171.76 436.147 171.76C434.014 171.76 432.12 172.24 430.467 173.2C428.867 174.107 427.614 175.413 426.707 177.12C425.8 178.773 425.347 180.747 425.347 183.04V184.96C425.347 187.307 425.854 189.387 426.867 191.2C427.934 192.96 429.4 194.32 431.267 195.28C433.187 196.187 435.427 196.64 437.987 196.64C440.28 196.64 442.28 196.293 443.987 195.6C445.747 194.907 447.347 193.867 448.787 192.48L455.427 199.68C453.454 201.92 450.974 203.653 447.987 204.88C445 206.053 441.56 206.64 437.667 206.64ZM492.936 162.32C496.349 162.32 499.389 163.013 502.056 164.4C504.776 165.733 506.909 167.813 508.456 170.64C510.002 173.413 510.776 176.987 510.776 181.36V206H498.296V183.28C498.296 179.813 497.522 177.253 495.976 175.6C494.482 173.947 492.349 173.12 489.576 173.12C487.602 173.12 485.816 173.547 484.216 174.4C482.669 175.2 481.442 176.453 480.536 178.16C479.682 179.867 479.256 182.053 479.256 184.72V206H466.776V162.96H478.696V174.88L476.456 171.28C478.002 168.4 480.216 166.187 483.096 164.64C485.976 163.093 489.256 162.32 492.936 162.32ZM539.688 206.64C534.621 206.64 530.675 205.36 527.848 202.8C525.021 200.187 523.608 196.32 523.608 191.2V153.44H536.088V191.04C536.088 192.853 536.568 194.267 537.528 195.28C538.488 196.24 539.795 196.72 541.448 196.72C543.421 196.72 545.101 196.187 546.488 195.12L549.848 203.92C548.568 204.827 547.021 205.52 545.208 206C543.448 206.427 541.608 206.64 539.688 206.64ZM516.968 173.52V163.92H546.808V173.52H516.968Z" fill="#0076A5"/>
<defs>
<linearGradient id="paint0_linear_965_35627" x1="278.413" y1="79.6847" x2="230.221" y2="31.4925" gradientUnits="userSpaceOnUse">
<stop stop-color="#11687C"/>
<stop offset="1" stop-color="#1485A3"/>
</linearGradient>
<linearGradient id="paint1_linear_965_35627" x1="251.619" y1="126.01" x2="251.619" y2="29.0719" gradientUnits="userSpaceOnUse">
<stop stop-color="#3BC9F8"/>
<stop offset="1" stop-color="#18849F"/>
</linearGradient>
<linearGradient id="paint2_linear_965_35627" x1="242.066" y1="87.3717" x2="339.005" y2="87.3717" gradientUnits="userSpaceOnUse">
<stop stop-color="#11687C"/>
<stop offset="1" stop-color="#1485A3"/>
</linearGradient>
<linearGradient id="paint3_linear_965_35627" x1="300.366" y1="96.9252" x2="300.366" y2="-0.0134338" gradientUnits="userSpaceOnUse">
<stop stop-color="#1D96B2"/>
<stop offset="0.303" stop-color="#32AECB"/>
<stop offset="0.7522" stop-color="#4DCCEC"/>
<stop offset="1" stop-color="#57D8F8"/>
</linearGradient>
<linearGradient id="paint4_linear_965_35627" x1="300.366" y1="48.7331" x2="300.366" y2="-0.0134351" gradientUnits="userSpaceOnUse">
<stop stop-color="#18849F" stop-opacity="0"/>
<stop offset="0.1206" stop-color="#2795AC" stop-opacity="0.1206"/>
<stop offset="0.5266" stop-color="#57C9D5" stop-opacity="0.5266"/>
<stop offset="0.8322" stop-color="#74EAEE" stop-opacity="0.8322"/>
<stop offset="1" stop-color="#7FF6F8"/>
</linearGradient>
<radialGradient id="paint5_radial_965_35627" cx="0" cy="0" r="1" gradientUnits="userSpaceOnUse" gradientTransform="translate(288.692 43.9333) rotate(-69.7947) scale(31.8673 36.6238)">
<stop offset="0.0114138" stop-color="white" stop-opacity="0"/>
<stop offset="0.9007"/>
</radialGradient>
<radialGradient id="paint6_radial_965_35627" cx="0" cy="0" r="1" gradientUnits="userSpaceOnUse" gradientTransform="translate(263.292 82.0682) rotate(110.205) scale(31.8673 36.6238)">
<stop offset="0.0114138" stop-color="white" stop-opacity="0"/>
<stop offset="0.9007"/>
</radialGradient>
<radialGradient id="paint7_radial_965_35627" cx="0" cy="0" r="1" gradientUnits="userSpaceOnUse" gradientTransform="translate(256.93 50.3024) rotate(-159.795) scale(31.8673 36.6238)">
<stop offset="0.0114138" stop-color="white" stop-opacity="0"/>
<stop offset="0.9007"/>
</radialGradient>
<radialGradient id="paint8_radial_965_35627" cx="0" cy="0" r="1" gradientUnits="userSpaceOnUse" gradientTransform="translate(295.059 75.6971) rotate(20.2053) scale(31.8673 36.6238)">
<stop offset="0.0114138" stop-color="white" stop-opacity="0"/>
<stop offset="0.9007"/>
</radialGradient>
</defs>
</svg>
