<svg width="188" height="40" viewBox="0 0 188 40" fill="none" xmlns="http://www.w3.org/2000/svg">
<path d="M24.3708 4L12 16.3708V23.6174L24.2301 11.3873L32.8487 19.9941L36.6127 16.2301L24.3708 4Z" fill="url(#paint0_linear_947_22850)"/>
<path d="M31.6174 36L19.3873 23.7582L27.9941 15.1513L24.2301 11.3873L12 23.6174L24.3708 36H31.6174Z" fill="url(#paint1_linear_947_22850)"/>
<path d="M44.0004 16.3708L31.7585 28.6127L23.1517 19.9942L19.3877 23.7582L31.6178 36L44.0004 23.6175V16.3708Z" fill="url(#paint2_linear_947_22850)"/>
<path d="M31.6177 4H24.3711L36.6129 16.2301L27.9944 24.8487L31.7584 28.6127L44.0003 16.3708L31.6177 4Z" fill="url(#paint3_linear_947_22850)"/>
<path d="M24.3711 4L36.6129 16.2301L44.0003 16.3708L31.6177 4H24.3711Z" fill="url(#paint4_linear_947_22850)"/>
<path d="M36.6125 16.2301L32.8485 19.9941L31.4414 18.587C31.4414 18.5987 32.8016 20.0762 36.6125 16.2301Z" fill="url(#paint5_radial_947_22850)"/>
<path d="M19.3877 23.7699L23.1517 20.0059L24.5588 21.413C24.5471 21.4012 23.1986 19.9238 19.3877 23.7699Z" fill="url(#paint6_radial_947_22850)"/>
<path opacity="0.17" d="M24.2305 11.3873L27.9945 15.1513L26.5874 16.5585C26.5991 16.5585 28.0648 15.1982 24.2305 11.3873Z" fill="url(#paint7_radial_947_22850)"/>
<path opacity="0.17" d="M31.7582 28.6127L27.9941 24.8486L29.4012 23.4415C29.4012 23.4533 27.9238 24.8017 31.7582 28.6127Z" fill="url(#paint8_radial_947_22850)"/>
<path d="M56.104 26.5V16.276H52.072V13.9H63.052V16.276H59.02V26.5H56.104ZM64.212 26.5V16.816H66.894V19.552L66.516 18.76C66.804 18.076 67.266 17.56 67.902 17.212C68.538 16.852 69.312 16.672 70.224 16.672V19.264C70.104 19.252 69.996 19.246 69.9 19.246C69.804 19.234 69.702 19.228 69.594 19.228C68.826 19.228 68.202 19.45 67.722 19.894C67.254 20.326 67.02 21.004 67.02 21.928V26.5H64.212ZM76.05 26.644C75.246 26.644 74.526 26.488 73.89 26.176C73.266 25.864 72.78 25.39 72.432 24.754C72.084 24.106 71.91 23.284 71.91 22.288V16.816H74.718V21.874C74.718 22.678 74.886 23.272 75.222 23.656C75.57 24.028 76.056 24.214 76.68 24.214C77.112 24.214 77.496 24.124 77.832 23.944C78.168 23.752 78.432 23.464 78.624 23.08C78.816 22.684 78.912 22.192 78.912 21.604V16.816H81.72V26.5H79.056V23.836L79.542 24.61C79.218 25.282 78.738 25.792 78.102 26.14C77.478 26.476 76.794 26.644 76.05 26.644ZM89.1274 26.644C88.0234 26.644 87.0514 26.428 86.2114 25.996C85.3834 25.564 84.7414 24.976 84.2854 24.232C83.8294 23.476 83.6014 22.618 83.6014 21.658C83.6014 20.686 83.8234 19.828 84.2674 19.084C84.7234 18.328 85.3414 17.74 86.1214 17.32C86.9014 16.888 87.7834 16.672 88.7674 16.672C89.7154 16.672 90.5674 16.876 91.3234 17.284C92.0914 17.68 92.6974 18.256 93.1414 19.012C93.5854 19.756 93.8074 20.65 93.8074 21.694C93.8074 21.802 93.8014 21.928 93.7894 22.072C93.7774 22.204 93.7654 22.33 93.7534 22.45H85.8874V20.812H92.2774L91.1974 21.298C91.1974 20.794 91.0954 20.356 90.8914 19.984C90.6874 19.612 90.4054 19.324 90.0454 19.12C89.6854 18.904 89.2654 18.796 88.7854 18.796C88.3054 18.796 87.8794 18.904 87.5074 19.12C87.1474 19.324 86.8654 19.618 86.6614 20.002C86.4574 20.374 86.3554 20.818 86.3554 21.334V21.766C86.3554 22.294 86.4694 22.762 86.6974 23.17C86.9374 23.566 87.2674 23.872 87.6874 24.088C88.1194 24.292 88.6234 24.394 89.1994 24.394C89.7154 24.394 90.1654 24.316 90.5494 24.16C90.9454 24.004 91.3054 23.77 91.6294 23.458L93.1234 25.078C92.6794 25.582 92.1214 25.972 91.4494 26.248C90.7774 26.512 90.0034 26.644 89.1274 26.644Z" fill="#0066CB"/>
<path d="M101.959 26.716C100.963 26.716 100.045 26.56 99.2049 26.248C98.3769 25.924 97.6509 25.468 97.0269 24.88C96.4149 24.292 95.9349 23.602 95.5869 22.81C95.2509 22.018 95.0829 21.148 95.0829 20.2C95.0829 19.252 95.2509 18.382 95.5869 17.59C95.9349 16.798 96.4209 16.108 97.0449 15.52C97.6689 14.932 98.4009 14.482 99.2409 14.17C100.081 13.846 101.005 13.684 102.013 13.684C103.129 13.684 104.131 13.87 105.019 14.242C105.919 14.614 106.675 15.154 107.287 15.862L105.415 17.59C104.959 17.11 104.461 16.756 103.921 16.528C103.381 16.288 102.793 16.168 102.157 16.168C101.545 16.168 100.987 16.264 100.483 16.456C99.9789 16.648 99.5409 16.924 99.1689 17.284C98.8089 17.644 98.5269 18.07 98.3229 18.562C98.1309 19.054 98.0349 19.6 98.0349 20.2C98.0349 20.788 98.1309 21.328 98.3229 21.82C98.5269 22.312 98.8089 22.744 99.1689 23.116C99.5409 23.476 99.9729 23.752 100.465 23.944C100.969 24.136 101.521 24.232 102.121 24.232C102.697 24.232 103.255 24.142 103.795 23.962C104.347 23.77 104.881 23.452 105.397 23.008L107.053 25.114C106.369 25.63 105.571 26.026 104.659 26.302C103.759 26.578 102.859 26.716 101.959 26.716ZM104.389 24.736V20.002H107.053V25.114L104.389 24.736ZM109.564 26.5V16.816H112.246V19.552L111.868 18.76C112.156 18.076 112.618 17.56 113.254 17.212C113.89 16.852 114.664 16.672 115.576 16.672V19.264C115.456 19.252 115.348 19.246 115.252 19.246C115.156 19.234 115.054 19.228 114.946 19.228C114.178 19.228 113.554 19.45 113.074 19.894C112.606 20.326 112.372 21.004 112.372 21.928V26.5H109.564ZM122.552 26.5V24.61L122.372 24.196V20.812C122.372 20.212 122.186 19.744 121.814 19.408C121.454 19.072 120.896 18.904 120.14 18.904C119.624 18.904 119.114 18.988 118.61 19.156C118.118 19.312 117.698 19.528 117.35 19.804L116.342 17.842C116.87 17.47 117.506 17.182 118.25 16.978C118.994 16.774 119.75 16.672 120.518 16.672C121.994 16.672 123.14 17.02 123.956 17.716C124.772 18.412 125.18 19.498 125.18 20.974V26.5H122.552ZM119.6 26.644C118.844 26.644 118.196 26.518 117.656 26.266C117.116 26.002 116.702 25.648 116.414 25.204C116.126 24.76 115.982 24.262 115.982 23.71C115.982 23.134 116.12 22.63 116.396 22.198C116.684 21.766 117.134 21.43 117.746 21.19C118.358 20.938 119.156 20.812 120.14 20.812H122.714V22.45H120.446C119.786 22.45 119.33 22.558 119.078 22.774C118.838 22.99 118.718 23.26 118.718 23.584C118.718 23.944 118.856 24.232 119.132 24.448C119.42 24.652 119.81 24.754 120.302 24.754C120.77 24.754 121.19 24.646 121.562 24.43C121.934 24.202 122.204 23.872 122.372 23.44L122.804 24.736C122.6 25.36 122.228 25.834 121.688 26.158C121.148 26.482 120.452 26.644 119.6 26.644ZM131.95 26.644C131.038 26.644 130.216 26.44 129.484 26.032C128.752 25.612 128.17 25.03 127.738 24.286C127.318 23.542 127.108 22.666 127.108 21.658C127.108 20.638 127.318 19.756 127.738 19.012C128.17 18.268 128.752 17.692 129.484 17.284C130.216 16.876 131.038 16.672 131.95 16.672C132.766 16.672 133.48 16.852 134.092 17.212C134.704 17.572 135.178 18.118 135.514 18.85C135.85 19.582 136.018 20.518 136.018 21.658C136.018 22.786 135.856 23.722 135.532 24.466C135.208 25.198 134.74 25.744 134.128 26.104C133.528 26.464 132.802 26.644 131.95 26.644ZM132.436 24.34C132.892 24.34 133.306 24.232 133.678 24.016C134.05 23.8 134.344 23.494 134.56 23.098C134.788 22.69 134.902 22.21 134.902 21.658C134.902 21.094 134.788 20.614 134.56 20.218C134.344 19.822 134.05 19.516 133.678 19.3C133.306 19.084 132.892 18.976 132.436 18.976C131.968 18.976 131.548 19.084 131.176 19.3C130.804 19.516 130.504 19.822 130.276 20.218C130.06 20.614 129.952 21.094 129.952 21.658C129.952 22.21 130.06 22.69 130.276 23.098C130.504 23.494 130.804 23.8 131.176 24.016C131.548 24.232 131.968 24.34 132.436 24.34ZM134.974 26.5V24.52L135.028 21.64L134.848 18.778V13.144H137.656V26.5H134.974ZM140.255 26.5V16.816H143.063V26.5H140.255ZM141.659 15.466C141.143 15.466 140.723 15.316 140.399 15.016C140.075 14.716 139.913 14.344 139.913 13.9C139.913 13.456 140.075 13.084 140.399 12.784C140.723 12.484 141.143 12.334 141.659 12.334C142.175 12.334 142.595 12.478 142.919 12.766C143.243 13.042 143.405 13.402 143.405 13.846C143.405 14.314 143.243 14.704 142.919 15.016C142.607 15.316 142.187 15.466 141.659 15.466ZM150.475 26.644C149.371 26.644 148.399 26.428 147.559 25.996C146.731 25.564 146.089 24.976 145.633 24.232C145.177 23.476 144.949 22.618 144.949 21.658C144.949 20.686 145.171 19.828 145.615 19.084C146.071 18.328 146.689 17.74 147.469 17.32C148.249 16.888 149.131 16.672 150.115 16.672C151.063 16.672 151.915 16.876 152.671 17.284C153.439 17.68 154.045 18.256 154.489 19.012C154.933 19.756 155.155 20.65 155.155 21.694C155.155 21.802 155.149 21.928 155.137 22.072C155.125 22.204 155.113 22.33 155.101 22.45H147.235V20.812H153.625L152.545 21.298C152.545 20.794 152.443 20.356 152.239 19.984C152.035 19.612 151.753 19.324 151.393 19.12C151.033 18.904 150.613 18.796 150.133 18.796C149.653 18.796 149.227 18.904 148.855 19.12C148.495 19.324 148.213 19.618 148.009 20.002C147.805 20.374 147.703 20.818 147.703 21.334V21.766C147.703 22.294 147.817 22.762 148.045 23.17C148.285 23.566 148.615 23.872 149.035 24.088C149.467 24.292 149.971 24.394 150.547 24.394C151.063 24.394 151.513 24.316 151.897 24.16C152.293 24.004 152.653 23.77 152.977 23.458L154.471 25.078C154.027 25.582 153.469 25.972 152.797 26.248C152.125 26.512 151.351 26.644 150.475 26.644ZM162.911 16.672C163.679 16.672 164.363 16.828 164.963 17.14C165.575 17.44 166.055 17.908 166.403 18.544C166.751 19.168 166.925 19.972 166.925 20.956V26.5H164.117V21.388C164.117 20.608 163.943 20.032 163.595 19.66C163.259 19.288 162.779 19.102 162.155 19.102C161.711 19.102 161.309 19.198 160.949 19.39C160.601 19.57 160.325 19.852 160.121 20.236C159.929 20.62 159.833 21.112 159.833 21.712V26.5H157.025V16.816H159.707V19.498L159.203 18.688C159.551 18.04 160.049 17.542 160.697 17.194C161.345 16.846 162.083 16.672 162.911 16.672ZM173.43 26.644C172.29 26.644 171.402 26.356 170.766 25.78C170.13 25.192 169.812 24.322 169.812 23.17V14.674H172.62V23.134C172.62 23.542 172.728 23.86 172.944 24.088C173.16 24.304 173.454 24.412 173.826 24.412C174.27 24.412 174.648 24.292 174.96 24.052L175.716 26.032C175.428 26.236 175.08 26.392 174.672 26.5C174.276 26.596 173.862 26.644 173.43 26.644ZM168.318 19.192V17.032H175.032V19.192H168.318Z" fill="#0076A5"/>
<defs>
<linearGradient id="paint0_linear_947_22850" x1="28.6128" y1="24.2374" x2="16.3735" y2="11.9981" gradientUnits="userSpaceOnUse">
<stop stop-color="#11687C"/>
<stop offset="1" stop-color="#1485A3"/>
</linearGradient>
<linearGradient id="paint1_linear_947_22850" x1="21.808" y1="36.0027" x2="21.808" y2="11.3833" gradientUnits="userSpaceOnUse">
<stop stop-color="#3BC9F8"/>
<stop offset="1" stop-color="#18849F"/>
</linearGradient>
<linearGradient id="paint2_linear_947_22850" x1="19.3823" y1="26.1897" x2="44.0017" y2="26.1897" gradientUnits="userSpaceOnUse">
<stop stop-color="#11687C"/>
<stop offset="1" stop-color="#1485A3"/>
</linearGradient>
<linearGradient id="paint3_linear_947_22850" x1="34.1885" y1="28.6159" x2="34.1885" y2="3.99659" gradientUnits="userSpaceOnUse">
<stop stop-color="#1D96B2"/>
<stop offset="0.303" stop-color="#32AECB"/>
<stop offset="0.7522" stop-color="#4DCCEC"/>
<stop offset="1" stop-color="#57D8F8"/>
</linearGradient>
<linearGradient id="paint4_linear_947_22850" x1="34.1885" y1="16.3766" x2="34.1885" y2="3.99659" gradientUnits="userSpaceOnUse">
<stop stop-color="#18849F" stop-opacity="0"/>
<stop offset="0.1206" stop-color="#2795AC" stop-opacity="0.1206"/>
<stop offset="0.5266" stop-color="#57C9D5" stop-opacity="0.5266"/>
<stop offset="0.8322" stop-color="#74EAEE" stop-opacity="0.8322"/>
<stop offset="1" stop-color="#7FF6F8"/>
</linearGradient>
<radialGradient id="paint5_radial_947_22850" cx="0" cy="0" r="1" gradientUnits="userSpaceOnUse" gradientTransform="translate(31.2232 15.1576) rotate(-69.7947) scale(8.09329 9.30129)">
<stop offset="0.0114138" stop-color="white" stop-opacity="0"/>
<stop offset="0.9007"/>
</radialGradient>
<radialGradient id="paint6_radial_947_22850" cx="0" cy="0" r="1" gradientUnits="userSpaceOnUse" gradientTransform="translate(24.7729 24.8427) rotate(110.205) scale(8.09329 9.30129)">
<stop offset="0.0114138" stop-color="white" stop-opacity="0"/>
<stop offset="0.9007"/>
</radialGradient>
<radialGradient id="paint7_radial_947_22850" cx="0" cy="0" r="1" gradientUnits="userSpaceOnUse" gradientTransform="translate(23.1571 16.7752) rotate(-159.795) scale(8.09329 9.30129)">
<stop offset="0.0114138" stop-color="white" stop-opacity="0"/>
<stop offset="0.9007"/>
</radialGradient>
<radialGradient id="paint8_radial_947_22850" cx="0" cy="0" r="1" gradientUnits="userSpaceOnUse" gradientTransform="translate(32.8405 23.2246) rotate(20.2053) scale(8.09329 9.30129)">
<stop offset="0.0114138" stop-color="white" stop-opacity="0"/>
<stop offset="0.9007"/>
</radialGradient>
</defs>
</svg>
