<?xml version="1.0" encoding="UTF-8"?>
<svg version="1.1" viewBox="0 0 1648 1648" width="103" height="125"  xmlns="http://www.w3.org/2000/svg">
<path transform="translate(798,11)" d="m0 0h67l61 2 53 4 46 5 50 7 57 10 43 10 34 9 29 9 31 11 36 16 22 11 25 15 18 12 14 11 16 15 9 10 10 14 8 14 5 13 1 5 1 18-1 1178-1 23-2 10-8 16-12 17-13 15-12 11-13 10-14 10-15 9-25 14-35 16-35 13-27 9-42 12-43 10-42 8-64 10-53 6-48 4-38 2-33 1h-61l-54-2-70-5-59-6-47-7-49-9-49-11-38-10-40-13-39-16-29-14-18-10-17-11-17-12-15-13-8-7v-2h-2l-9-11-8-10-9-15-5-14-2-13-1-1204 2-14 6-14 9-14 8-10 12-13 14-13 13-10 15-11 19-12 18-10 22-11 24-10 24-9 28-9 41-11 48-11 49-9 47-7 37-4 55-4 35-2z" fill="#2588D2"/>
<path transform="translate(212,266)" d="m0 0h2l8 10 12 14 9 11 11 11 11 9 17 13 19 12 22 12 30 14 25 10 30 11 29 9 49 13 51 11 37 7 38 6 48 6 43 4 47 3 53 2 12 2v48l1 102v16l1 50 1 28 4 22 3 9 7 12 4 9 1 5 8 1h8l3 2h7l1 3-18-1-6 3-17 3-20 7-10 3-17 7-20 11-6 4-5 5-16 13-17 17-8 10-13 21-8 17-9 27-4 20-2 18v48l3 21 5 20 9 25 12 23 10 15 11 12 8 8 6 5 5 5 9 7 19 11 17 8 12 5 15 6 5 7v66l-1 15v27l1 77v129l1 27v25l1 43v52h-50l-40-2-64-5-56-6-51-8-47-9-47-11-30-8-40-13-39-16-29-14-18-10-17-11-17-12-15-13-8-7v-2h-2l-9-11-8-10-9-15-5-14-2-13z" fill="#0473C6"/>
<path transform="translate(781,70)" d="m0 0h70l31 1 61 4 39 4 56 7 46 7 39 8 31 8 35 11 28 11 21 10 19 11 13 10 10 9 10 10 10 14 7 12 4 11v11l-4 10-11 15-9 10-7 7-17 13-19 11-27 13-38 13-44 12-31 7-42 8-32 5-77 9-21 2-43 2h-115l-49-2-52-5-64-8-44-7-44-9-48-12-36-12-21-9-16-8-11-7-11-8-13-11-12-12-9-12-7-11-3-10v-13l7-16 10-14 13-13 13-10 17-11 23-12 25-10 36-12 44-12 34-7 64-11 45-5 52-4 37-2z" fill="#C2D647"/>
<path transform="translate(798,11)" d="m0 0h67l61 2 53 4 46 5 50 7 57 10 43 10 34 9 29 9 31 11 36 16 22 11 25 15 18 12 14 11 16 15 9 10 10 14 8 14 5 13 1 5 1 18v27l-1 8-9 10-13 15-4 5h-2l-2 4-8 8-11 9-9 8-16 12-19 12-18 10-16 8-22 10-29 11-36 12-30 9-29 7-46 10-53 9-43 6-47 5-51 4-60 3-37 1h-20l-53-2-60-4-47-5-52-7-49-9-52-11-46-12-30-9-31-11-25-10-33-15-21-11-22-14-17-13-14-12-12-12-9-11-11-13-5-6v-2h-2v-45l2-14 6-14 9-14 8-10 12-13 14-13 13-10 15-11 19-12 18-10 22-11 24-10 24-9 28-9 41-11 48-11 49-9 47-7 37-4 55-4 35-2zm-17 59-44 2-49 3-52 5-28 4-68 12-29 7-33 9-36 12-25 10-20 10-24 16-13 11-10 10-9 13-7 16v13l4 12 8 12 11 13 12 12 14 11 14 9 14 8 17 7 12 5 27 9 29 8 39 9 41 8 47 7 68 8 34 3 49 2h115l43-2 48-5 57-7 30-5 56-11 42-11 29-9 25-9 25-12 14-8 13-9 13-11 10-10 13-18 4-10v-11l-5-13-10-16-9-11-14-14-13-10-15-9-17-9-28-12-36-12-29-8-30-7-34-6-47-7-59-7-50-4-33-2-31-1z" fill="#FCFCFC"/>
<path transform="translate(841,769)" d="m0 0h30l25 3 21 5 21 8 16 8 13 8 8 6 15 13 6 6v2h2l11 14 7 11 8 14 7 17 7 23 4 18 2 17 1 17v12l-2 27-3 19-6 22-6 17-12 23-10 15-11 14-7 8-8 7-18 13-23 12-14 6 2 4 13 10 6 7 2 1v2l4 2 14 12 14 11 8 8 11 9 7 7 10 7 14 14 3 5-1 5-2 1h-88l-12-2-9-5-10-9-10-11-7-8-22-24-12-13-10-10-11-6-13-4-21-4-21-7-18-8-17-10-14-10-13-11-13-13-9-13-9-15-9-19-9-27-4-18-2-16v-48l3-24 5-21 7-20 9-19 12-19 12-14 17-17 19-14 13-8 23-11 15-5 21-5z" fill="#FCFCFD"/>
<path transform="translate(754,253)" d="m0 0h139l16 1h11l49 4 13 2 36 4 40 6 16 3 46 9 24 6 14 4 1 1 9 2 13 5 5 3 1 5-4 2-1 2 13 1 12-3-1 2-34 11-45 12-29 6-41 8-36 5-68 8-21 2-43 2h-115l-49-2-52-5-64-8-44-7-44-9-48-12-36-12-21-9-2-2 5 1 26 10 17 5 11 1 3-1-6-3-12-4-3-3v-2l-3-1v-2l4-3 16-3 15-4 7-3 25-5 25-4 1-1 12-1 62-11 42-6 26-3z" fill="#92B911"/>
<path transform="translate(507,769)" d="m0 0h28l36 4 22 5 13 5 5 6 2 5 1 6v49l-3 11-7-1-12-5-16-9-18-6-18-3-9-1h-16l-14 4-15 8-9 10-7 11-2 6v12l5 10 5 5v2l4 2 10 8 16 10 20 11 16 9 22 13 19 13 16 13 7 7 10 14 9 19 3 15 1 8v18l-2 15-7 17-7 13-9 11-9 10-10 9-16 11-12 6-17 6-16 4-18 3-10 1h-42l-27-5-23-6-12-5-9-6-5-8-1-4v-72l5 1 19 12 13 8 16 8 14 5 20 4h24l16-4 12-6 9-7 5-5 5-6 4-9v-9l-6-12-10-11-14-10-15-9-26-14-22-12-18-12-11-9-10-9-8-9-9-14-8-16-5-19v-34l4-15 5-12 9-15 9-11 13-12 13-9 16-9 17-6 16-4z" fill="#FCFCFD"/>
<path transform="translate(1132,776)" d="m0 0h57l3 5 1 7 1 303 135 1 5 2 3 4 1 20v35l-3 5-4 2-9 1-143 1h-66l-4-2-2-253v-128l9-2z" fill="#FCFDFD"/>
<path transform="translate(849,842)" d="m0 0h22l16 4 14 7 12 9 11 11 10 14 8 15 6 17 5 22 2 26v14l-2 22-6 22-5 12-9 14-9 12-11 10-14 10-16 8-14 5h-25l-12-3-16-6-12-8-12-11-10-11-9-14-7-15-6-20-3-21-1-13v-17l2-19 5-21 4-11 7-14 7-10 7-8 12-12 12-8 12-6 13-4z" fill="#2588D2"/>
<path transform="translate(1254,288)" d="m0 0 2 1-3 5-7 8-16 11-19 10-23 11-15 6-17 6-39 13-13 5-12 4-15 3-11 4-19 5-23 6-28 6-15 1-12 2-23 2-24 1h-28l-52-3-34-2-29-3-19-3h-42l-20-2-30-2-36-6-28-5-29-6-30-7-13-4-10-3-26-8-11-4-5-3-8-2-3-3-9-3-6-3-7-3-5-3-7-3-8-5v-3h-3l-5-1-2-4-4 1-3-1-1-5 9 3 19 8 30 10 29 8 39 9 41 8 47 7 68 8 34 3 49 2h115l43-2 48-5 57-7 30-5 56-11 42-11 29-9 25-9 25-12z" fill="#EEFCFE"/>
<path transform="translate(806,862)" d="m0 0 5 2 1 2 1 17 1 16-1 8v14l-1 5-2 36v31l1 8v13l6 29 1 1 2 11 1 2-1 9-3 7-7-1-9-4-1 4-6-2-8-8-5-7v-5l4-1-5-9-4-4-3-6v-2h-2v-7h-2l-2-5v-8l-3-15-1-11v-30l2-15 1-12 2-3 2-9h2l1-7 11-20h2l2-5 4-6h2l2-5 5-5z" fill="#0473C6"/>
<path transform="translate(1182,774)" d="m0 0 7 1v1l-57 1-25 2 3 381 3 1h202v1l-72 1-124 1-10-2-2-1-1-3-1-25v-33l-1-18-1-10v-11l-1-5v-63l1-9v-44l-1-20-1-42v-37l-1-27 1-6 1-19 1-1 2-10 9-3z" fill="#3995DC"/>
<path transform="translate(803,860)" d="m0 0 2 1-5 4-6 10h-2l-2 5-4 6-3 3-9 17-2 7h-2l-1 9-2 3-3 33v28l2 14 2 11v7l1 3h2l1 5-1 2h2l4 8 4 4 5 10h-3l-2 4-4-4-9-17-7-21-3-16-2-22v-17l2-19 5-21 4-11 7-14 7-10 7-8 12-12z" fill="#288AD3"/>
<path transform="translate(827,773)" d="m0 0h8v1l-16 4-6 2-7 2-19 7-16 8-9 6-3 3 1 2-7 8-13 10-6 2 2-6-11 8-7 7-14 11-12 19-9 19-1-3 9-19 12-19 12-14 17-17 19-14 13-8 23-11 15-5 8-1v1l10-1z" fill="#EFFDFE"/>
<path transform="translate(610,787)" d="m0 0 3 3 3 9 1 9v37l-2 17-2 4h-3l-4-4-15-6-10-6-13-5-1-1-11-1-6-1-15-2-14-1h-10l-12 5-4 3-5 1-7 6-1 6h-2l-1 7-3 7v12l3 11 2 4-1 2h-2l-8-10-3-7v-12l4-9 9-13 8-7 16-8 11-3h16l23 3 17 5 30 15 10 3 2-11v-49l-2-9z" fill="#288AD3"/>
<path transform="translate(414,300)" d="m0 0 5 1 26 10 41 12 32 8 38 8 33 6 57 8 50 6 31 3 42 2v1h-26l-31-2-56-6-55-7-47-8-42-9-39-10-36-12-21-9z" fill="#147DCC"/>
<path transform="translate(730,814)" d="m0 0 2 1-20 20-8 10-13 21-8 17-9 27-4 20-2 18v48l3 21 5 20 9 25 12 23 6 9-1 2-7-10-6-10-8-16-7-17-3-11-4-22-2-15v-51l3-20 7-29 6-14 4-8 3-7 6-10 8-12 5-7h2l2-4 11-12z" fill="#3592DA"/>
<path transform="translate(1221,1085)" d="m0 0h93l10 2 2 2 4 2h-92l-21-1-1-2h2v-2z" fill="#0473C6"/>
<path transform="translate(849,842)" d="m0 0h22l16 4 14 7 12 9 11 11 10 14 8 15 6 17 5 22 2 26v14l-2 22-6 22-3 7-1-3 3-10 3-14 3-28-1-25-2-16-7-26-9-19-8-13-11-12-10-8-11-7-10-4-8-2-11-1h-11l-19 3-6 2-4-1 13-4z" fill="#3995DC"/>
<path transform="translate(524,1085)" d="m0 0 2 1-11 8-12 5-13 3h-24l-20-4-14-5-8-4 4-1 10 1h8v2l16 2 8 2 11 1h13l14-2 12-6z" fill="#2689D2"/>
<path transform="translate(732,1126)" d="m0 0 4 2 18 12 16 9 19 8 20 6 17 3 16 5 10 7 17 17 7 8 15 16v3l-5-5-16-17-7-8-8-7-7-6-6-4-34-9-9-2-16-6-16-8-18-10-11-8-6-5z" fill="#3894DB"/>
<path transform="translate(499,767)" d="m0 0h50l13 2 13 3 17 4 13 5 1 2-10-3-15-4-16-3-30-3h-28l-26 3-22 6-8 3-3-1 15-6 14-4z" fill="#308FD7"/>
<path transform="translate(610,787)" d="m0 0 3 3 3 9 1 9v37l-2 17-2 4h-3l-4-4-15-6-10-6-7-3v-2l-6-2 3-1 30 15 10 3 2-11v-49l-2-9z" fill="#3391D9"/>
<path transform="translate(911,1073)" d="m0 0h2l-1 3-13 10-7 4-22 11h-16l-14-4-10-3-12-5 3-1 17 6 6 1h25l16-6 16-8z" fill="#EFFDFF"/>
<path transform="translate(730,814)" d="m0 0 2 1-20 20-8 10-13 21-8 17-9 27-4 20-2 14-1 1-1 16h-1v-17l3-20 7-29 6-14 4-8 3-7 6-10 8-12 5-7h2l2-4 11-12z" fill="#2F8ED7"/>
<path transform="translate(624,1015)" d="m0 0 3 4 3 6 3 13v26l-4 19-4 12 3 1-2 4-3 1h-2l-6 11-6 7h-2l-2 4-14 14-4 1 16-16 11-14 9-17 5-13 2-15v-18l-3-20-3-7z" fill="#308FD7"/>
<path transform="translate(842,767)" d="m0 0h28l27 4 13 3-4 1-24-4-11-1h-30l-24 3-22 6-21 9-17 9-6 4-2-1 14-9 15-8 20-8 14-4 19-3z" fill="#3995DC"/>
<path transform="translate(509,1021)" d="m0 0 5 2 13 10 9 10 6 12v9l-6 12-6 7h-2l3-10 2-9 2-10-1-9-9-11-6-4-7-6z" fill="#2A8BD4"/>
<path transform="translate(974,805)" d="m0 0 5 2 3 1 5 5 6 7 7 6 3 2v2l3 1v3l2 1 5 4 2 10h2l2 4 2 2 3 6-1 3-3-3-8-13-10-14-4-4v-2h-2l-7-8-10-9-5-4z" fill="#127CCB"/>
<path transform="translate(338,237)" d="m0 0 3 1 7 10 9 11 12 12-1 2-5-1-8-6-8-9-7-12-2-5z" fill="#F2FDFE"/>
<path transform="translate(515,836)" d="m0 0h14l31 4 10 3 4 3-6-1-1-1-11-1-6-1-15-2-14-1h-10l-12 5-4 3-4-2 12-6z" fill="#2588D2"/>
<path transform="translate(1432,267)" d="m0 0h1v22l-2 4-2-4-2-3-7-1 1-6 9-9z" fill="#0976C8"/>
<path transform="translate(515,834)" d="m0 0h16l23 3 14 4-4 1-17-3-18-2h-14l-12 3-10 5h-2l-1 3-5 2-6 5 2-4 7-6 16-8z" fill="#3995DC"/>
<path transform="translate(414,300)" d="m0 0 5 1 26 10 41 12 9 3v2l-11-2-33-10-22-8-15-7z" fill="#177FCA"/>
<path transform="translate(958,1137)" d="m0 0 2 1-9 7-3 3-5 3-3 1v2l-5 1-2 3h-2l-1 3-6-5 1-3 24-11z" fill="#3995DC"/>
<path transform="translate(468,865)" d="m0 0 2 1-2 8v12l5 10 5 5-1 2-12-9-3-5-1-9 3-7h2z" fill="#EFFDFF"/>
<path transform="translate(732,1126)" d="m0 0 4 2 18 12 16 9 19 8 10 4v2l-11-3-25-12-17-10-13-10z" fill="#308FD7"/>
<path transform="translate(812,771)" d="m0 0 4 1-6 3-15 4-21 9-17 9-6 4-2-1 14-9 15-8 20-8z" fill="#3190D8"/>
<path transform="translate(672,1032)" d="m0 0 2 3 7 20v2h2l11 23 9 14-1 2-7-10-6-10-8-16-7-17-2-7z" fill="#2D8DD6"/>
<path transform="translate(506,1097)" d="m0 0h3l-1 2-6 2-8 3-13 1-18-2-12-3 3-1 12 2h24z" fill="#EFFDFE"/>
<path transform="translate(1414,550)" d="m0 0 3 1 1 3v3l1 2v9l-2 9 2 6-3 2-1-2v-7h-2l2-9-1-2v-9l-1-3z" fill="#3995DC"/>
<path transform="translate(524,1085)" d="m0 0 2 1-11 8-12 5-13 3h-24l-12-2v-1l15 1h18l15-3 6-1 1-3 5-2z" fill="#3995DC"/>
<path transform="translate(937,1146)" d="m0 0 2 2-14 6 2 4 6 5h-3l-7-5-6-3-1-4 2-1 15-2z" fill="#EFFDFF"/>
<path transform="translate(492,768)" d="m0 0h7l-2 1v2l-20 3-21 6-5 2-3-1 15-6 14-4z" fill="#3190D8"/>
<path transform="translate(618,1101)" d="m0 0h2l-2 6-5 8-4 4h-2l-2 4-14 14-4 1 16-16 11-14z" fill="#2E8ED6"/>
<path transform="translate(568,842)" d="m0 0 5 1 28 14 5 2v2l-5-1-10-4-10-6-7-3v-2l-6-2z" fill="#3190D8"/>
<path transform="translate(473,774)" d="m0 0 4 1h-2v2l-6 1-14 4-12 6-3 1v-3l16-7z" fill="#EFFDFF"/>
<path transform="translate(882,1089)" d="m0 0 3 1-16 6h-25l-12-3 4-1 10 2h15l15-3z" fill="#3995DC"/>
<path transform="translate(730,814)" d="m0 0 2 1-20 20-8 10-2 2 1-4 4-6h2l2-4 11-12z" fill="#3290D8"/>
<path transform="translate(409,299)" d="m0 0 9 3 11 5-4 1-5 1-3-3v-2l-4 1-3-1z" fill="#F1FDFE"/>
<path transform="translate(959,793)" d="m0 0h5l5 3v2l2 1 1 4-5-1-10-6v-2z" fill="#0E79CA"/>
<path transform="translate(416,803)" d="m0 0v3l-1 2-3 1-1 3-8 7-9 12v-3l7-10 9-10z" fill="#EFFDFF"/>
<path transform="translate(509,1021)" d="m0 0 5 2 13 10 9 10v2h-2l-9-11-6-4-7-6z" fill="#2E8ED6"/>
<path transform="translate(803,860)" d="m0 0 2 1-13 12-4 5h-2l-2 4-3 2 2-5 17-17z" fill="#3995DC"/>
<path transform="translate(974,805)" d="m0 0 5 2 3 1 5 5 2 3-2 2-13-11z" fill="#137DCC"/>
<path transform="translate(823,771)" d="m0 0h6l-4 2h-3v2l-6 2h-8l2-1v-2z" fill="#F7FDFD"/>
<path transform="translate(533,335)" d="m0 0 12 2 13 3v1h-9l-16-4z" fill="#0E79CA"/>
<path transform="translate(669,928)" d="m0 0 1 2-2 14-1 1-1 16h-1v-17l2-14z" fill="#2C8CD5"/>
<path transform="translate(1240,144)" d="m0 0 5 1 15 9 5 4-1 2-14-9-10-6z" fill="#A1C222"/>
<path transform="translate(447,312)" d="m0 0 22 6 1 2-9-1-13-4z" fill="#0F7ACA"/>
<path transform="translate(625,1089)" d="m0 0 1 4-1 2 3 1-2 4-3 1h-4l2-6 2-4h2z" fill="#298AD4"/>
<path transform="translate(421,797)" d="m0 0 2 1-15 13-8 9v-3l9-10 9-8z" fill="#308FD7"/>
<path transform="translate(1268,162)" d="m0 0 5 2 16 16-1 3-12-13-8-7z" fill="#A3C324"/>
<path transform="translate(686,872)" d="m0 0 1 2-8 20-2 4-1-2 4-13 5-10z" fill="#3190D8"/>
<path transform="translate(497,840)" d="m0 0v3l-6 2-1 3-5 2-6 5 2-4 7-6z" fill="#3793DB"/>
<path transform="translate(892,1222)" d="m0 0 7 6 10 11-1 2-12-12-4-5z" fill="#3995DC"/>
<path transform="translate(497,770)" d="m0 0 7 2v1h-13l-3 1-5-1v2l-6-1 4-2z" fill="#EFFDFF"/>
<path transform="translate(1015,849)" d="m0 0h2l2 4 2 2 3 6-1 3-3-3-4-9z" fill="#0D78C9"/>
<path transform="translate(610,787)" d="m0 0 3 3 3 9v8h-2l-3-16z" fill="#308FD7"/>
<path transform="translate(586,345)" d="m0 0 16 2 4 2h-11l-9-2z" fill="#0E79CA"/>
<path transform="translate(614,850)" d="m0 0h1v13l-2 3h-3l-2-4 4-1z" fill="#2588D2"/>
<path transform="translate(524,1085)" d="m0 0 2 1-11 8-7 1 2-2 11-6z" fill="#2F8ED7"/>
<path transform="translate(812,771)" d="m0 0 4 1-6 3-10 2 3-3z" fill="#3391D9"/>
<path transform="translate(601,1124)" d="m0 0v3l-10 10-4 1 5-5z" fill="#3491D9"/>
<path transform="translate(437,788)" d="m0 0h2l-1 3-11 6-2-1 10-7z" fill="#EFFDFF"/>
<path transform="translate(400,293)" d="m0 0 5 1 9 4v2l-5-1-9-5z" fill="#65A565"/>
</svg>
