<svg width="5" height="4" viewBox="0 0 5 4" fill="none" xmlns="http://www.w3.org/2000/svg">
<path d="M2.5 3.89834C2.15625 3.89834 1.84233 3.81453 1.55824 3.64692C1.27415 3.47646 1.04688 3.24919 0.87642 2.9651C0.708807 2.68101 0.625 2.36709 0.625 2.02334C0.625 1.67675 0.708807 1.36283 0.87642 1.08158C1.04688 0.797485 1.27415 0.571633 1.55824 0.404019C1.84233 0.233565 2.15625 0.148337 2.5 0.148337C2.84659 0.148337 3.16051 0.233565 3.44176 0.404019C3.72585 0.571633 3.9517 0.797485 4.11932 1.08158C4.28977 1.36283 4.375 1.67675 4.375 2.02334C4.375 2.36709 4.28977 2.68101 4.11932 2.9651C3.9517 3.24919 3.72585 3.47646 3.44176 3.64692C3.16051 3.81453 2.84659 3.89834 2.5 3.89834Z" fill="#8A8A8A"/>
</svg>
