<svg version="1.1" id="Layer_1" xmlns="http://www.w3.org/2000/svg" xmlns:xlink="http://www.w3.org/1999/xlink" x="20px" y="20px"
	 width="100%" viewBox="0 0 200 200" enable-background="new 0 0 200 200" xml:space="preserve">
<path fill="#000000" opacity="1000" stroke="none" 
	d="
M98.000000,201.000000 
	C65.353447,201.000000 33.206894,201.000000 1.030171,201.000000 
	C1.030171,134.395142 1.030171,67.790276 1.030171,1.092703 
	C67.563065,1.092703 134.126297,1.092703 200.844757,1.092703 
	C200.844757,67.666382 200.844757,134.333160 200.844757,201.000000 
	C166.790558,201.000000 132.645279,201.000000 98.000000,201.000000 
M112.993813,107.309151 
	C113.845909,106.494698 114.574402,105.461105 115.569359,104.899925 
	C124.853844,99.663239 129.096039,90.954208 127.532639,80.122658 
	C125.884834,68.706421 120.364830,61.726379 109.190834,60.126457 
	C99.218010,58.698521 88.968521,59.190754 78.840004,58.871082 
	C76.425102,58.794857 74.005730,58.859776 71.495171,58.859776 
	C71.495171,64.242126 71.495171,68.837341 71.495171,73.955986 
	C80.670090,73.955986 89.613632,73.879753 98.554314,74.005707 
	C101.011375,74.040329 103.577415,74.332932 105.887016,75.116005 
	C110.197418,76.577469 112.070503,79.998650 111.823982,84.450851 
	C111.583977,88.785339 109.152824,91.633331 104.995758,92.609917 
	C102.604401,93.171692 100.046242,93.148140 97.561607,93.165565 
	C88.949814,93.225945 80.337349,93.188858 71.550728,93.188858 
	C71.550728,109.802368 71.550728,125.854942 71.550728,142.158508 
	C76.878578,142.158508 81.899673,142.158508 87.392365,142.158508 
	C87.392365,130.895935 87.392365,120.009651 87.392365,109.187645 
	C96.000252,108.311996 96.010468,108.307266 99.284256,115.375290 
	C102.982933,123.360664 106.614258,131.377838 110.397018,139.323013 
	C110.976486,140.540115 112.161438,142.290451 113.154343,142.350998 
	C118.212677,142.659424 123.299942,142.493332 129.111969,142.493332 
	C123.498367,130.330994 118.354332,119.186035 112.993813,107.309151 
z"/>
<path fill="#F8F8F8" opacity="1.000000" stroke="none" 
	d="
M113.102051,107.675110 
	C118.354332,119.186035 123.498367,130.330994 129.111969,142.493332 
	C123.299942,142.493332 118.212677,142.659424 113.154343,142.350998 
	C112.161438,142.290451 110.976486,140.540115 110.397018,139.323013 
	C106.614258,131.377838 102.982933,123.360664 99.284256,115.375290 
	C96.010468,108.307266 96.000252,108.311996 87.392365,109.187645 
	C87.392365,120.009651 87.392365,130.895935 87.392365,142.158508 
	C81.899673,142.158508 76.878578,142.158508 71.550728,142.158508 
	C71.550728,125.854942 71.550728,109.802368 71.550728,93.188858 
	C80.337349,93.188858 88.949814,93.225945 97.561607,93.165565 
	C100.046242,93.148140 102.604401,93.171692 104.995758,92.609917 
	C109.152824,91.633331 111.583977,88.785339 111.823982,84.450851 
	C112.070503,79.998650 110.197418,76.577469 105.887016,75.116005 
	C103.577415,74.332932 101.011375,74.040329 98.554314,74.005707 
	C89.613632,73.879753 80.670090,73.955986 71.495171,73.955986 
	C71.495171,68.837341 71.495171,64.242126 71.495171,58.859776 
	C74.005730,58.859776 76.425102,58.794857 78.840004,58.871082 
	C88.968521,59.190754 99.218010,58.698521 109.190834,60.126457 
	C120.364830,61.726379 125.884834,68.706421 127.532639,80.122658 
	C129.096039,90.954208 124.853844,99.663239 115.569359,104.899925 
	C114.574402,105.461105 113.845909,106.494698 113.102051,107.675110 
z"/>
</svg>